<svg width="145" height="58" viewBox="0 0 145 58" fill="none" xmlns="http://www.w3.org/2000/svg">
<path fill-rule="evenodd" clip-rule="evenodd" d="M3.76081 49.4578C4.39011 49.4578 4.85524 49.2855 5.15347 48.9425C5.4517 48.5981 5.60082 48.0981 5.60082 47.4398V47.3703C5.60082 46.7232 5.45444 46.2301 5.16305 45.8885C4.87029 45.5482 4.39695 45.3774 3.74302 45.3774H3.1876V49.4578H3.76081ZM1.78125 44.2677H3.81279C4.3559 44.2677 4.83198 44.3399 5.23966 44.483C5.6487 44.6274 5.98798 44.8302 6.26022 45.0954C6.52699 45.3663 6.72672 45.6926 6.86352 46.0732C7.00033 46.4565 7.06873 46.8815 7.06873 47.3509V47.4217C7.06873 47.8925 7.00033 48.3217 6.86352 48.7092C6.73505 49.0831 6.52615 49.4233 6.25201 49.705C5.96253 49.9919 5.61398 50.2101 5.23145 50.3438C4.77179 50.5022 4.28853 50.5783 3.80322 50.5688H1.78125V44.2677ZM15.9993 44.2677H20.0446V45.3788H17.3961V46.8495H19.5152V47.8898H17.3961V49.4591H20.1828V50.5688H15.9993V44.2677ZM28.5771 44.2677H30.0614L31.5375 49.105L33.0123 44.2677H34.3324L32.2667 50.5688H30.6524L28.5771 44.2677ZM43.0824 44.2677H47.1264V45.3788H44.4792V46.8495H46.5983V47.8898H44.4778V49.4591H47.2645V50.5688H43.0824V44.2677ZM56.1636 44.2677H57.57V49.4578H60.0954V50.5688H56.1636V44.2677ZM71.6143 49.5286C71.8742 49.5286 72.1109 49.4786 72.3216 49.3786C72.5313 49.28 72.7168 49.1353 72.8647 48.955C73.0179 48.7617 73.1326 48.54 73.2026 48.3022C73.2847 48.0453 73.3257 47.7564 73.3257 47.4398V47.3703C73.3257 47.0648 73.2847 46.7843 73.2081 46.5315C73.1374 46.295 73.0237 46.0741 72.8729 45.8801C72.724 45.6992 72.537 45.5545 72.3257 45.4565C72.0966 45.3536 71.8483 45.3024 71.5979 45.3065C71.3243 45.3065 71.0835 45.3552 70.8728 45.4524C70.6608 45.5496 70.4802 45.6857 70.3297 45.8621C70.1792 46.044 70.0657 46.2634 69.9877 46.519C69.9083 46.7745 69.8687 47.0606 69.8687 47.3787V47.4481C69.8687 47.7717 69.9125 48.0606 70 48.3161C70.0876 48.5717 70.2079 48.7883 70.3639 48.9647C70.5144 49.1453 70.6977 49.2855 70.9111 49.3828C71.1245 49.48 71.3598 49.5286 71.6143 49.5286ZM71.5883 50.6646C71.1026 50.6646 70.6621 50.5841 70.2695 50.423C69.8931 50.2734 69.5526 50.0437 69.2708 49.7494C68.9888 49.461 68.7697 49.1156 68.6279 48.7356C68.4748 48.3277 68.3982 47.8943 68.4021 47.4578V47.387C68.4021 46.9176 68.4828 46.4843 68.6415 46.0912C68.7932 45.709 69.0225 45.3635 69.3146 45.0774C69.5978 44.7968 69.933 44.576 70.3201 44.4177C70.7086 44.258 71.1341 44.1788 71.5979 44.1788C72.0657 44.1788 72.4953 44.2552 72.8866 44.408C73.2765 44.5607 73.6144 44.776 73.8976 45.0524C74.1795 45.3396 74.4022 45.681 74.5528 46.0565C74.7115 46.444 74.7909 46.8759 74.7909 47.3523V47.4217C74.7909 47.8925 74.7143 48.3245 74.5611 48.7217C74.4078 49.1189 74.1917 49.4605 73.9153 49.7494C73.6291 50.0427 73.2857 50.2721 72.9071 50.423C72.487 50.5894 72.0392 50.6715 71.5883 50.6646ZM85.8337 47.2815C86.1867 47.2815 86.4493 47.2009 86.6231 47.0384C86.7968 46.8773 86.883 46.6384 86.883 46.3204V46.2857C86.883 45.951 86.7913 45.7107 86.6094 45.5676C86.4274 45.4232 86.1675 45.351 85.8323 45.351H85.121V47.2815H85.8337ZM83.7228 44.2677H85.8679C86.6258 44.2677 87.21 44.4344 87.6204 44.7691C88.0308 45.1052 88.236 45.6065 88.236 46.2759V46.3121C88.236 46.6454 88.1826 46.937 88.0718 47.1801C87.9624 47.4231 87.8064 47.6273 87.604 47.7912C87.387 47.9632 87.1373 48.0881 86.8707 48.1578C86.5834 48.237 86.2633 48.2772 85.9103 48.2772H85.121V50.5688H83.7228V44.2677ZM97.0735 44.2677H98.9313L100.381 48.1884L101.812 44.2677H103.636V50.5688H102.239V46.144L100.52 50.5688H100.06L98.3321 46.144V50.5688H97.0735V44.2677ZM112.899 44.2677H116.943V45.3788H114.296V46.8495H116.414V47.8898H114.296V49.4591H117.081V50.5688H112.899V44.2677ZM125.98 44.2677H127.611L129.972 48.4175V44.2677H131.223V50.5688H129.816L127.231 46.0829V50.5688H125.98V44.2677ZM141.691 45.3774H140.015V44.2663H144.781V45.3774H143.105V50.5688H141.691V45.3774ZM14.9035 34.6973V24.3088H6.55845V34.6973H1.81956V9.87336H6.55845V20.0188H14.9035V9.87336H19.6424V34.6959H14.9035M46.3931 26.1907C46.3931 27.5157 46.1591 28.7128 45.6899 29.7808C45.2428 30.8181 44.5882 31.7498 43.7678 32.5168C42.9371 33.2834 41.9693 33.8812 40.9168 34.2779C39.791 34.7032 38.598 34.9159 37.3968 34.9056C36.1382 34.9056 34.9645 34.6973 33.8769 34.2779C32.8245 33.8818 31.8566 33.2844 31.0259 32.5182C30.2051 31.7515 29.5506 30.8197 29.1038 29.7822C28.6332 28.7128 28.3992 27.5157 28.3992 26.1907V9.87336H33.1381V26.0143C33.1381 27.4559 33.5171 28.5767 34.2763 29.3795C35.0342 30.1808 36.0685 30.5822 37.3791 30.5822C38.6896 30.5822 39.7294 30.1808 40.4996 29.3795C41.2698 28.5767 41.6556 27.4559 41.6556 26.0143V9.87475H46.3944L46.3931 26.1907ZM64.4567 14.1982V34.6973H59.7178V14.1982H53.3304V9.87336H70.8441V14.1968L64.4567 14.1982ZM87.5 14.1982V34.6973H82.7611V14.1982H76.3723V9.87336H93.8874V14.1968L87.5 14.1982ZM113.015 22.2853C113.015 21.1007 112.998 20.1188 112.963 19.341C112.942 18.6922 112.879 18.0454 112.775 17.405C112.682 16.8939 112.556 16.4814 112.394 16.1675C111.986 15.3666 111.325 14.7282 110.516 14.3551C109.958 14.1022 109.351 13.9771 108.74 13.9885C108.124 13.9783 107.512 14.1034 106.948 14.3551C106.449 14.5767 106.003 14.9034 105.637 15.3134C105.408 15.5683 105.216 15.8561 105.068 16.1675C104.895 16.5622 104.773 16.9782 104.706 17.405C104.613 17.9161 104.55 18.5619 104.516 19.3396C104.478 20.321 104.461 21.3032 104.465 22.2853C104.465 23.4714 104.481 24.4533 104.516 25.2324C104.537 25.8809 104.601 26.5272 104.707 27.1671C104.798 27.6781 104.919 28.0906 105.068 28.4031C105.217 28.7184 105.406 29.0031 105.637 29.2586C105.981 29.6544 106.419 29.9725 106.948 30.2169C107.512 30.4687 108.124 30.5938 108.74 30.5836C109.406 30.5836 109.999 30.4614 110.516 30.2169C111.008 29.9921 111.448 29.6657 111.809 29.2586C112.039 29.0031 112.234 28.717 112.394 28.4045C112.556 28.0906 112.682 27.6781 112.775 27.1671C112.865 26.656 112.929 26.0102 112.963 25.2324C112.998 24.4533 113.015 23.4714 113.015 22.2853ZM117.754 22.2853C117.754 23.3547 117.743 24.3547 117.72 25.2852C117.697 26.2143 117.611 27.0851 117.463 27.899C117.322 28.6887 117.08 29.4563 116.743 30.1822C116.385 30.9279 115.904 31.6058 115.32 32.1863C114.491 33.0423 113.508 33.7288 112.424 34.2084C111.363 34.6737 110.134 34.9056 108.74 34.9056C107.345 34.9056 106.112 34.6737 105.038 34.2084C103.947 33.7322 102.958 33.0455 102.124 32.1863C101.541 31.6059 101.059 30.928 100.702 30.1822C100.365 29.4576 100.129 28.6893 99.9998 27.899C99.863 27.0851 99.7823 26.2143 99.759 25.2838C99.7354 24.2845 99.724 23.2849 99.7248 22.2853C99.7248 21.2159 99.7371 20.2174 99.759 19.2882C99.7823 18.3577 99.8616 17.4869 99.9998 16.6731C100.137 15.8592 100.371 15.0981 100.703 14.3898C101.06 13.6433 101.541 12.9649 102.126 12.3844C102.958 11.5258 103.947 10.8392 105.037 10.3622C106.112 9.89836 107.346 9.66504 108.74 9.66504C110.134 9.66504 111.363 9.89836 112.424 10.3622C113.487 10.8275 114.452 11.5011 115.322 12.3844C115.937 13.0121 116.411 13.6801 116.743 14.3898C117.074 15.0981 117.315 15.8592 117.463 16.6731C117.612 17.4869 117.697 18.3577 117.72 19.2882C117.743 20.2187 117.754 21.2173 117.754 22.2853ZM140.523 34.6973L130.838 19.4618V34.6973H126.099V9.87336H130.358L140.041 25.0741V9.87336H144.781V34.6959H140.523" fill="#525CB5"/>
</svg>
