<svg width="145" height="58" viewBox="0 0 145 58" fill="none" xmlns="http://www.w3.org/2000/svg">
<path d="M52.8591 43.666L46.1364 32.099H41.9182C44.4227 31.8447 46.5318 30.955 48.2454 29.5567C50.4864 27.7772 51.6727 25.4892 51.6727 22.8199C51.6727 20.1506 50.4864 17.8626 48.2454 16.083C46.0045 14.1764 43.1045 13.2866 39.8091 13.2866H25.0455L16.3455 35.1496L7.38182 13.2866H0V43.666H1.84545V16.5915L12.9182 43.666H15.0273L25.5727 16.7186V43.666H32.4273V32.2261H38.6227L45.2136 43.666H52.8591ZM32.4273 30.7007V14.8119H37.5682C41.2591 14.8119 43.7636 17.9897 43.7636 22.8199C43.7636 27.6501 41.2591 30.8279 37.5682 30.8279H32.4273V30.7007Z" fill="#FF7635"/>
<path d="M91.6046 36.1673L88.3092 30.3202H86.2001C87.3864 30.1931 88.441 29.6847 89.3637 29.0491C90.5501 28.1594 91.0773 27.0154 91.0773 25.6171C91.0773 24.2189 90.5501 23.202 89.3637 22.3123C88.1773 21.4225 86.8592 20.9141 85.1455 20.9141H78.0273V36.1673H81.4546V30.4473H84.6182L87.9137 36.1673H91.6046ZM81.4546 29.6847V21.6767H83.9592C85.8046 21.6767 86.991 23.202 86.991 25.6171C86.991 28.0322 85.8046 29.5576 83.9592 29.5576H81.4546V29.6847Z" fill="#FF7635"/>
<path d="M101.892 36.1673C99.5197 36.1673 97.5424 35.4046 95.9606 34.0064C94.3788 32.4811 93.5879 30.7016 93.5879 28.5407C93.5879 26.3798 94.3788 24.4732 95.9606 23.0749C97.5424 21.5496 99.5197 20.9141 101.892 20.9141C104.265 20.9141 106.242 21.6767 107.824 23.0749C109.406 24.6003 110.197 26.3798 110.197 28.5407C110.197 30.7016 109.406 32.6082 107.824 34.0064C106.242 35.5318 104.265 36.1673 101.892 36.1673ZM101.892 35.6589C103.342 35.6589 104.397 35.0233 105.32 33.7522C106.242 32.4811 106.638 30.7016 106.638 28.5407C106.638 26.3798 106.242 24.7274 105.32 23.3292C104.529 22.0581 103.342 21.4225 101.892 21.4225C100.442 21.4225 99.3879 22.0581 98.4652 23.3292C97.6743 24.6003 97.147 26.3798 97.147 28.5407C97.147 30.7016 97.5424 32.354 98.4652 33.7522C99.2561 35.0233 100.442 35.6589 101.892 35.6589Z" fill="#FF7635"/>
<path d="M124.956 20.9141C124.956 20.9141 124.956 31.4642 124.956 33.3709C124.165 34.5149 122.847 35.1504 121.134 35.1504C118.234 35.1504 116.388 33.3709 116.388 30.3202V20.9141H112.961V29.9389C112.961 31.7184 113.62 33.2438 114.938 34.3878C116.256 35.5318 117.97 36.0402 120.079 36.0402C122.056 36.0402 123.506 35.5318 124.693 34.5149C124.956 34.2607 125.22 34.0064 125.352 33.7522L127.856 36.1673H128.384V20.9141H124.956Z" fill="#FF7635"/>
<path d="M138.937 20.9141C140.65 20.9141 141.968 21.4225 143.155 22.3123C144.341 23.202 144.868 24.346 144.868 25.6171C144.868 27.0154 144.341 28.0322 143.155 29.0491C141.968 29.9389 140.65 30.4473 138.937 30.4473H135.246V36.1673H131.818V20.9141H138.937ZM137.882 29.6847C139.727 29.6847 140.914 28.1594 140.914 25.7443C140.914 23.3292 139.727 21.8038 137.882 21.8038H135.377V29.6847H137.882Z" fill="#FF7635"/>
<path d="M71.182 29.6843C71.182 29.6843 71.182 31.8452 71.182 33.4977C70.7865 34.8959 69.4684 35.7856 67.6229 35.7856C66.0411 35.7856 64.9865 35.1501 64.0638 33.879C63.1411 32.6079 62.7456 30.9555 62.7456 28.7946C62.7456 24.2186 64.9865 21.5493 68.6774 21.5493C69.9956 21.5493 71.0502 21.8035 71.8411 22.4391C72.7638 23.0746 73.1593 23.8373 73.1593 24.8542H73.8184C73.8184 23.7102 73.1593 22.5662 72.1047 21.8035C71.0502 21.0408 69.6002 20.7866 67.8865 20.7866C65.382 20.7866 63.4047 21.5493 61.6911 22.9475C60.1093 24.4728 59.3184 26.3795 59.3184 28.5404C59.3184 30.7012 60.1093 32.6079 61.6911 34.1332C63.2729 35.6585 65.382 36.2941 67.6229 36.2941C69.732 36.2941 71.4456 35.6585 72.2365 34.5145L74.082 36.167H74.6093V29.6843H71.182Z" fill="#FF7635"/>
</svg>
