<svg width="145" height="58" viewBox="0 0 145 58" fill="none" xmlns="http://www.w3.org/2000/svg">
<g clip-path="url(#clip0_3333_13770)">
<path d="M18.5775 7L16.4318 12.887H46.1664L48.3121 7H18.5775ZM15.3582 15.8291L13.2125 21.7147H42.9472L45.0929 15.8291H15.3582ZM12.1457 24.6583L10 30.544H39.7347L41.879 24.6583H12.1457Z" fill="#00AAFF"/>
<path d="M73.2138 32.7871V32.9114C74.5727 33.4109 75.8707 34.2845 76.5509 34.8455C78.652 36.5927 79.5796 38.9008 79.5796 41.8956C79.5796 46.8258 76.9835 50.3816 72.7189 51.5049C71.4209 51.8789 70.062 52.0044 67.5267 52.0044H54.6113V15.9421H66.0448C68.3934 15.9421 69.9998 16.0664 71.4209 16.4404C75.5624 17.5637 78.2816 20.4342 78.2816 24.9877C78.2816 27.4214 77.4162 29.4813 75.9951 30.853C75.3772 31.4768 74.5119 32.2261 73.2138 32.7871ZM61.7802 36.5927V46.0763H66.7249C68.2069 46.0763 69.5671 45.9522 70.5569 45.0159C71.5453 44.0795 71.978 42.8947 71.978 41.3345C71.978 40.1497 71.6683 39.0264 71.0503 38.2156C69.9998 36.9052 68.7017 36.5927 66.4776 36.5927H61.7802ZM61.718 30.3533H65.7352C66.971 30.3533 67.5889 30.3533 68.2069 30.1664C69.8767 29.6668 70.9273 28.1708 70.9273 26.1111C70.9273 23.6787 69.8145 22.6168 68.2069 22.1186C67.5267 21.9315 66.848 21.8688 65.4877 21.8688H61.718V30.3533ZM90.3331 52.0044V21.993H80.0123V15.9421H108.689L106.65 21.993H97.502V52.0044H90.3331ZM110.914 52.0044V15.9421H134.153L132.114 21.993H118.022V29.9795H123.77C128.405 29.9795 130.816 31.1028 132.484 32.5374C133.782 33.6607 136.006 36.1559 136.006 41.0861C136.006 45.9521 133.72 48.6344 131.804 50.0076C129.58 51.5664 127.231 52.0044 122.472 52.0044H110.914ZM118.022 45.9522H123.399C125.438 45.9522 126.674 45.4527 127.539 44.3293C127.972 43.7682 128.59 42.7691 128.59 40.8977C128.59 39.0264 127.972 37.716 126.736 36.7796C125.995 36.2187 125.006 35.9075 123.337 35.9075H118.022V45.9522Z" fill="#0A2896"/>
</g>
<defs>
<clipPath id="clip0_3333_13770">
<rect width="126" height="45" fill="white" transform="translate(10 7)"/>
</clipPath>
</defs>
</svg>
