<svg width="145" height="58" viewBox="0 0 145 58" fill="none" xmlns="http://www.w3.org/2000/svg">
<path d="M4.94737 43.8571V28.8571H16.7368C23.7903 28.8571 27.0526 31.7919 27.0526 36.7143C27.0526 41.4281 23.4109 43.8571 17.4737 43.8571H4.94737ZM4.94737 13.1429H16C22.3742 13.1429 25.5789 15.5649 25.5789 20.2857C25.5789 24.9381 22.2441 26.7143 16 26.7143H4.94737V13.1429ZM30 36.7143C30 32.6313 27.4872 29.3626 23.3684 28.1429H22.6316L23.3684 27.4286C26.3654 26.1918 28.5263 23.6648 28.5263 20.2857C28.5263 14.3779 23.825 11 16 11H2V46H18.2105C25.7688 46 30 42.7031 30 36.7143Z" fill="white"/>
<path d="M39.8696 16.7143L53.5 36L67.1304 16.7143V46H70V11H68.5652L53.5 32.4286L38.4348 11H37V46H39.8696V16.7143Z" fill="white"/>
<path d="M95.5 47C102.87 47 108.898 43.7681 111.6 37.64C112.394 35.8013 112.831 33.4808 113 31.16H110.9H110.2H96.2V33.32H110.2C110.135 33.6755 110.285 33.6994 110.2 34.04C108.481 40.651 102.91 44.84 95.5 44.84C86.0871 44.84 80.8 38.9259 80.8 29C80.8 19.2918 86.0857 13.3155 95.5 13.16C102.219 13.16 106.524 15.8378 108.8 21.08H111.6C109.31 14.7388 103.371 11 95.5 11C90.4789 11 86.0773 12.939 82.9 16.04C79.5848 19.274 78 23.6691 78 29C78 39.8258 84.9013 47 95.5 47Z" fill="white"/>
<path d="M2 54H113V52H2V54Z" fill="white"/>
<mask id="mask0_3333_13766" style="mask-type:luminance" maskUnits="userSpaceOnUse" x="97" y="3" width="47" height="28">
<path d="M102.911 4.61805C102.905 4.63279 102.918 4.60564 102.911 4.61805C102.905 4.63202 102.919 4.60253 102.911 4.61805C102.883 4.67935 102.869 4.70807 102.911 4.61805C102.795 4.88578 109.496 6.65773 115.886 8.94307C122.28 11.2307 128.817 13.5572 128.861 16.1514C128.813 18.9288 120.226 21.7526 112.282 24.0806C104.338 26.4071 96.8253 28.4149 97.1446 29.1265C97.7241 30.4201 101.273 30.9554 105.794 30.5682C110.317 30.1809 115.925 29.0475 121.653 27.6848C133.108 24.9595 144.136 20.7009 143.998 18.314C143.87 16.1202 133.803 12.3296 123.815 8.94307C116.019 6.29921 108.522 3.89722 105.074 3.89722C104.106 3.89722 103.078 4.26109 102.911 4.61805ZM102.911 4.61805C102.907 4.62815 102.917 4.60796 102.911 4.61805C102.967 4.497 102.911 3.89722 102.911 3.89722C102.911 3.89722 102.942 4.55132 102.911 4.61805Z" fill="white"/>
</mask>
<g mask="url(#mask0_3333_13766)">
<path d="M102.911 4.61864C102.787 4.88481 109.492 6.65677 115.886 8.94366C122.279 11.2306 128.815 13.5578 128.861 16.152C128.812 18.9286 120.227 21.754 112.282 24.0812C104.338 26.4092 96.8253 28.4155 97.1446 29.1271C97.7249 30.4207 101.273 30.9568 105.794 30.5688C110.317 30.1815 115.925 29.0481 121.653 27.6854C133.108 24.9601 144.136 20.7015 143.998 18.3145C143.871 16.1223 133.803 12.3309 123.815 8.94366C113.827 5.55639 103.666 2.9836 102.911 4.61864C103.183 4.03121 102.782 4.898 102.911 4.61864Z" fill="#BD1176"/>
<path d="M102.911 4.61828C102.783 4.89341 103.178 4.04004 102.911 4.61828C103.667 3.0056 114.009 4.87275 123.815 8.22247C133.611 11.5699 143.114 16.1403 143.278 18.3142C143.451 20.6792 132.741 24.7153 121.653 27.685C119.605 28.2338 117.322 28.6993 115.165 29.1267C115.081 29.1438 115.256 29.1065 115.165 29.1267C112.537 29.712 109.618 30.2832 107.236 30.5684C106.707 30.6298 106.296 30.5218 105.795 30.5684C104.481 30.6888 103.265 30.5669 102.191 30.5684C100.443 30.5692 98.7307 30.2261 97.8657 29.8476C97.4073 29.6494 97.2905 29.4423 97.1449 29.1267C96.8522 28.4171 104.468 26.3891 112.282 24.0809C120.098 21.7734 128.095 19.6246 128.14 16.8725C128.183 14.3016 122.054 11.3409 115.886 8.9433C114.895 8.55781 114.022 7.86846 113.003 7.50163C109.036 6.07469 105.05 5.15766 103.632 4.61828C103.287 4.48693 102.898 4.66647 102.911 4.61828Z" fill="#D01181"/>
<path d="M102.91 4.61855C102.78 4.88941 103.176 4.04881 102.91 4.61855C103.678 3.02609 114.037 4.91173 123.814 8.22273C133.57 11.5299 143.077 16.16 143.276 18.3144C143.493 20.6564 132.525 23.7057 121.652 26.9645C119.785 27.5241 118.026 28.6958 115.885 29.127C115.801 29.1434 115.259 29.1028 115.164 29.127C112.534 29.7808 109.738 29.5381 107.235 29.8478C106.69 29.9155 106.313 30.5173 105.794 30.5687C104.441 30.6978 103.301 30.5593 102.189 30.5687C100.39 30.5803 98.7641 30.223 97.8645 29.8478C97.3808 29.6517 97.2958 29.4414 97.1437 29.127C96.8741 28.4195 104.474 27.0911 112.281 24.802C120.088 22.5145 128.047 19.5985 128.139 16.8728C128.225 14.3276 121.913 11.4638 115.885 8.94357C114.96 8.55674 114.016 7.88795 113.002 7.5019C109.074 6.00517 105.209 5.20697 103.631 4.61855C103.279 4.48701 102.906 4.66914 102.91 4.61855Z" fill="#BF1176"/>
<path d="M102.911 4.61827C102.782 4.88405 103.17 4.05707 102.911 4.61827C103.679 3.04692 113.498 4.94881 123.094 8.22245C132.657 11.4883 142.323 16.1785 142.556 18.3142C142.809 20.633 132.113 23.371 121.652 26.9642C119.992 27.5347 117.977 27.9803 115.886 28.4059C115.804 28.4222 115.985 28.3786 115.886 28.4059C113.295 29.123 110.543 29.51 107.957 29.8475C107.404 29.9201 106.322 30.5123 105.794 30.5684C104.422 30.7079 103.322 30.552 102.19 30.5684C100.365 30.5918 98.7871 30.217 97.8651 29.8475C97.3642 29.6535 97.3 29.4401 97.1443 29.1267C96.9007 28.4213 104.605 27.0699 112.282 24.8017C119.958 22.5335 128.002 19.5717 128.14 16.8725C128.267 14.3518 121.667 11.6004 115.886 8.94329C115.039 8.55435 113.996 8.62776 113.002 8.22245C109.175 6.6589 105.345 5.2574 103.632 4.61827C103.279 4.48654 102.914 4.67127 102.911 4.61827Z" fill="#C01176"/>
<path d="M103.633 4.61852C103.502 4.87766 103.891 4.06511 103.633 4.61852C104.414 3.06912 113.529 4.98809 123.095 8.2227C132.618 11.4479 142.285 15.4767 142.557 17.5936C142.851 19.8899 131.824 22.248 121.653 26.2436C120.165 26.8282 118.685 27.9847 116.607 28.4061C116.527 28.4233 116.712 28.3749 116.607 28.4061C114.013 29.1703 110.667 29.481 107.958 29.8478C107.387 29.9243 107.06 30.5101 106.516 30.5686C105.103 30.7193 103.362 30.5444 102.191 30.5686C100.313 30.603 98.824 30.2131 97.8661 29.8478C97.3384 29.655 97.306 29.4408 97.1452 29.127C96.9254 28.4237 104.614 27.0499 112.282 24.8019C119.953 22.5532 127.956 19.5454 128.141 16.8727C128.312 14.3766 121.497 12.4759 115.887 9.66438C115.103 9.27176 114.712 8.64811 113.724 8.2227C109.938 6.59213 105.508 5.30463 103.633 4.61852C103.644 4.67237 103.272 4.48661 103.633 4.61852Z" fill="#C01177"/>
<path d="M102.911 4.61824C102.78 4.87304 103.164 4.07348 102.911 4.61824C103.692 3.08947 113.709 5.02497 123.094 8.22243C132.426 11.4058 141.53 15.4971 141.835 17.5933C142.167 19.8662 131.956 23.6422 121.652 26.2433C120.479 27.0781 118.635 27.9807 116.606 28.4059C116.528 28.4231 116.716 28.3707 116.606 28.4059C114.054 29.2312 110.747 29.4497 107.957 29.8475C107.378 29.9296 107.069 30.5059 106.515 30.5684C105.085 30.7309 104.103 30.5363 102.911 30.5684C101.009 30.6137 98.8431 30.2086 97.865 29.8475C97.3208 29.6576 97.3092 29.4393 97.1442 29.1267C96.9503 28.4248 104.743 27.03 112.281 24.8017C119.822 22.5733 127.189 19.5189 127.419 16.8725C127.631 14.4019 121.223 12.6404 115.886 9.6641C115.173 9.26706 114.69 8.66715 113.723 8.22243C110.038 6.52405 105.641 5.35372 103.632 4.61824C103.27 4.48616 102.931 4.67452 102.911 4.61824Z" fill="#C11177"/>
<path d="M103.633 4.61842C103.501 4.8673 103.885 4.08233 103.633 4.61842C104.428 3.11109 113.74 5.06472 123.095 8.22261C132.384 11.3648 141.492 15.5141 141.836 17.5935C142.209 19.8427 132.548 23.6663 122.374 26.2435C121.409 27.1365 119.339 27.9756 117.328 28.406C117.25 28.4225 117.444 28.3669 117.328 28.406C114.773 29.2787 111.594 29.4196 108.678 29.8477C108.083 29.9346 107.808 30.5004 107.237 30.5685C105.766 30.7384 104.143 30.5286 102.912 30.5685C100.954 30.6249 99.6026 30.2054 98.5869 29.8477C98.0167 29.6599 97.3176 29.4376 97.1453 29.1269C96.9766 28.4272 104.752 27.0088 112.283 24.8018C119.814 22.5933 127.143 19.4921 127.42 16.8726C127.678 14.4269 122.218 11.8337 116.607 9.66428C116.038 9.14853 115.406 8.68827 114.445 8.22261C110.801 6.4578 105.807 5.40574 103.633 4.61842C103.661 4.67633 103.265 4.48538 103.633 4.61842Z" fill="#C21177"/>
<path d="M103.632 4.61846C103.501 4.86293 103.879 4.0919 103.632 4.61846C104.428 3.13123 113.2 5.10322 122.373 8.22265C131.471 11.324 140.737 15.5351 141.115 17.5935C141.524 19.8197 132.251 22.9722 122.373 25.5227C121.632 26.4756 120.012 27.2597 118.049 27.6852C117.972 27.7017 117.447 28.363 117.328 28.4061C114.808 29.3166 111.674 29.3902 108.678 29.8477C108.075 29.9394 107.817 29.7764 107.236 29.8477C105.748 30.0272 104.162 30.5232 102.911 30.5686C100.931 30.6399 99.6222 30.2004 98.5863 29.8477C97.9982 29.6621 97.3184 29.4356 97.1447 29.1269C97.0013 28.4288 104.161 26.9888 111.561 24.8019C118.964 22.6149 126.378 20.1856 126.698 17.5935C126.998 15.173 122.043 12.5337 116.607 10.3851C116.125 9.84762 115.386 8.70925 114.444 8.22265C110.902 6.39299 105.937 5.45454 103.632 4.61846C103.668 4.6788 103.264 4.48447 103.632 4.61846Z" fill="#C31177"/>
<path d="M103.631 4.6183C103.499 4.85837 103.877 4.0997 103.631 4.6183C104.441 3.15273 113.23 5.14306 122.373 8.22247C131.428 11.2807 140.696 14.8342 141.114 16.8725C141.565 19.0748 132.116 22.9962 122.373 25.5226C121.844 26.5339 120.715 27.2559 118.769 27.6851C118.693 27.7023 118.173 27.6372 118.048 27.6851C115.525 28.6367 112.522 29.358 109.398 29.8476C108.778 29.9449 107.835 29.7715 107.236 29.8476C105.705 30.0382 104.202 30.5159 102.911 30.5684C100.875 30.6516 99.659 30.1959 98.5857 29.8476C97.9716 29.6624 97.325 29.4358 97.1441 29.1267C97.0244 28.4316 104.169 26.9679 111.561 24.8017C118.954 22.6355 126.327 20.1589 126.698 17.5934C127.043 15.1973 121.955 12.5135 116.606 10.385C116.205 9.82562 115.382 9.45171 114.444 8.94331C110.947 7.04938 106.826 5.50485 104.352 4.6183C103.977 4.48335 103.677 4.67949 103.631 4.6183Z" fill="#C31177"/>
<path d="M103.631 4.61827C103.499 4.85314 103.872 4.11006 103.631 4.61827C104.44 3.17296 113.41 5.1818 122.372 8.22246C131.236 11.2388 139.942 14.853 140.393 16.8725C140.879 19.0507 131.821 23.0239 122.372 25.5225C122.065 26.5948 120.666 27.2515 118.768 27.685C118.695 27.7016 118.896 27.634 118.768 27.685C116.283 28.6779 112.599 29.3307 109.397 29.8476C108.77 29.9489 107.842 29.7675 107.235 29.8476C105.687 30.0471 104.221 30.5087 102.91 30.5684C100.851 30.6627 99.6786 30.1916 98.5851 29.8476C97.9537 29.6653 97.328 29.4331 97.1435 29.1267C97.0505 28.4323 104.298 26.9477 111.56 24.8017C118.824 22.6565 126.285 20.1313 126.697 17.5933C127.084 15.2235 121.78 12.4933 116.606 10.385C116.293 9.80368 116.082 9.47193 115.164 8.94329C111.77 6.98741 106.955 5.55145 104.352 4.61827C103.975 4.48317 103.684 4.6819 103.631 4.61827Z" fill="#C41177"/>
<path d="M103.632 4.61824C103.502 4.84787 103.867 4.11808 103.632 4.61824C104.44 3.1917 112.871 5.22073 121.653 8.22242C130.326 11.1958 139.191 14.8734 139.674 16.8725C140.194 19.0256 131.531 22.3261 122.374 24.8017C122.285 25.9325 120.621 27.2572 118.77 27.685C118.698 27.7015 118.902 27.6291 118.77 27.685C116.32 28.7129 112.676 29.297 109.399 29.8475C108.765 29.9545 108.572 29.7634 107.957 29.8475C106.394 30.0606 104.241 30.5007 102.912 30.5684C100.832 30.6745 99.6996 30.1865 98.5866 29.8475C97.9393 29.6667 97.3324 29.4326 97.145 29.1267C97.0779 28.4347 104.431 26.9265 111.561 24.8017C118.696 22.6768 125.522 20.1012 125.978 17.5933C126.403 15.2467 121.608 12.472 116.607 10.3849C116.381 9.77943 116.064 9.49295 115.166 8.94326C111.872 6.92535 107.084 5.60124 104.353 4.61824C103.977 4.48298 103.694 4.68429 103.632 4.61824Z" fill="#C51177"/>
<path d="M103.632 5.33925C103.5 5.55835 103.866 4.86122 103.632 5.33925C104.455 3.97257 112.904 6.06298 121.653 8.94344C130.283 11.7971 139.149 14.9452 139.673 16.8726C140.237 18.9441 131.392 22.4193 122.373 24.8018C122.503 25.9609 121.325 27.2639 119.49 27.6852C119.42 27.7021 119.629 27.6269 119.49 27.6852C117.036 28.7202 113.528 29.2823 110.12 29.8477C109.466 29.9557 108.591 29.7611 107.957 29.8477C106.35 30.0614 105.002 30.495 103.632 30.5685C101.496 30.6826 99.7375 30.8957 98.5864 30.5685C97.9109 30.3954 97.3393 30.1442 97.1447 29.8477C97.1022 29.1766 104.439 26.8488 111.561 24.8018C118.686 22.7549 125.472 20.7283 125.978 18.3143C126.45 16.0559 121.519 13.8385 116.607 11.8268C116.463 11.2177 116.059 10.2205 115.165 9.66427C111.918 7.64259 107.254 6.34588 104.353 5.33925C103.969 5.20672 103.702 5.40513 103.632 5.33925Z" fill="#C61177"/>
<path d="M103.632 5.33914C103.501 5.55311 103.86 4.87056 103.632 5.33914C104.456 3.99245 113.084 6.10117 121.653 8.94333C130.092 11.7556 138.395 14.9653 138.952 16.8725C139.548 18.9194 131.101 22.4458 122.373 24.8017C122.717 26.0196 121.996 27.261 120.211 27.6851C120.142 27.7019 119.632 27.6222 119.49 27.6851C117.071 28.7503 113.601 29.2533 110.119 29.8476C109.459 29.9595 108.598 29.7578 107.957 29.8476C106.334 30.0708 105.021 30.4871 103.632 30.5684C101.475 30.6942 99.7561 30.8905 98.5862 30.5684C97.8964 30.399 97.3413 30.1436 97.1446 29.8476C97.128 29.1781 103.849 27.5472 110.84 25.5226C117.836 23.4956 125.43 20.7 125.977 18.3142C126.489 16.0818 121.347 13.8183 116.607 11.8267C116.548 11.1955 116.04 10.2424 115.165 9.66416C112.02 7.58585 107.378 6.39288 104.353 5.33914C103.968 5.20494 103.71 5.40663 103.632 5.33914Z" fill="#C61177"/>
<path d="M103.632 4.61832C103.5 4.82639 103.859 4.15765 103.632 4.61832C104.472 3.29082 113.116 4.69849 121.652 7.50168C130.048 10.2703 138.354 14.263 138.952 16.1517C139.593 18.1741 130.962 21.0283 122.373 23.3601C122.939 24.6354 121.98 25.8134 120.211 26.2434C120.142 26.2596 120.36 26.8967 120.211 26.9643C117.786 28.0607 113.735 28.5003 110.119 29.1268C109.442 29.2443 109.339 29.0323 108.678 29.1268C107.013 29.3648 105.063 29.7585 103.632 29.8476C101.416 29.9835 99.7957 30.1655 98.5862 29.8476C97.8668 29.6787 97.3478 29.4216 97.1445 29.1268C97.1525 28.4604 103.858 26.8072 110.84 24.8018C117.827 22.7948 125.379 19.952 125.977 17.5934C126.538 15.3845 121.978 13.076 117.328 11.1059C117.354 10.4517 116.757 9.54299 115.886 8.94335C112.788 6.80967 107.555 5.7201 104.353 4.61832C103.961 4.4832 103.719 4.68743 103.632 4.61832Z" fill="#C71177"/>
<path d="M103.632 4.61858C103.501 4.82302 103.854 4.16742 103.632 4.61858C104.472 3.31123 112.575 4.73811 120.932 7.50193C129.136 10.2296 137.601 14.282 138.231 16.152C138.905 18.1503 130.672 21.0538 122.373 23.3603C123.152 24.6938 122.655 25.8179 120.932 26.2437C120.865 26.2598 120.364 26.1715 120.211 26.2437C117.824 27.3742 114.527 28.4699 110.84 29.127C110.155 29.2492 109.346 29.0279 108.678 29.127C106.997 29.3692 105.082 29.7518 103.632 29.8479C101.397 29.9954 99.8145 30.1607 98.5862 29.8479C97.8517 29.6811 97.3521 29.4198 97.1445 29.127C97.177 28.4622 103.988 26.7857 110.84 24.802C117.697 22.816 124.618 19.9248 125.257 17.5936C125.856 15.4109 121.084 13.0576 116.607 11.1061C116.716 10.4321 116.738 10.2862 115.886 9.66444C112.889 7.47475 107.676 5.76838 104.353 4.61858C103.961 4.48254 103.726 4.69006 103.632 4.61858Z" fill="#C81177"/>
<path d="M103.632 4.61844C103.501 4.81694 103.852 4.1768 103.632 4.61844C104.488 3.32968 112.608 4.7773 120.932 7.50178C129.09 10.1878 137.558 13.5805 138.231 15.431C138.949 17.4061 131.25 21.0797 123.094 23.3602C124.098 24.7528 123.358 25.815 121.652 26.2435C121.587 26.2605 121.091 26.1673 120.932 26.2435C118.534 27.3977 114.664 28.4375 110.84 29.1269C110.137 29.2538 109.365 29.0238 108.678 29.1269C106.951 29.3792 105.845 29.7438 104.353 29.8477C102.058 30.0062 99.8541 30.1562 98.5862 29.8477C97.8235 29.6823 97.3579 29.4193 97.1445 29.1269C97.2029 28.4636 103.997 26.7654 110.84 24.8019C117.687 22.8368 124.566 20.618 125.257 18.3143C125.905 16.1569 121.714 13.758 117.328 11.8268C117.523 11.1305 117.454 10.3091 116.607 9.66429C113.659 7.42146 107.859 5.81102 104.353 4.61844C103.953 4.48302 103.736 4.69153 103.632 4.61844Z" fill="#C81177"/>
<path d="M103.632 4.61828C103.501 4.81236 103.847 4.18467 103.632 4.61828C104.488 3.3475 112.789 4.81605 120.932 7.50163C128.901 10.1449 136.807 13.6009 137.511 15.4308C138.261 17.3809 130.243 20.3841 122.373 22.6392C123.587 24.0902 123.31 25.8082 121.652 26.2434C121.589 26.2595 121.815 26.1625 121.652 26.2434C119.291 27.4271 114.733 28.4082 110.84 29.1267C110.131 29.2576 109.373 29.0212 108.678 29.1267C106.938 29.3932 105.861 29.7359 104.353 29.8476C102.04 30.0177 99.8714 30.1518 98.5862 29.8476C97.8077 29.6851 97.3608 29.4179 97.1445 29.1267C97.2274 28.4667 104.129 26.7441 110.84 24.8017C117.557 22.8578 123.805 20.5885 124.536 18.3142C125.221 16.1816 121.544 13.7359 117.328 11.8266C117.606 11.1081 117.436 10.3326 116.607 9.66414C113.758 7.37057 107.977 5.86057 104.353 4.61828C103.953 4.48119 103.743 4.69299 103.632 4.61828Z" fill="#C91178"/>
<path d="M103.632 4.61851C103.5 4.80662 103.845 4.19371 103.632 4.61851C104.506 3.36724 112.823 4.85592 120.932 7.50186C128.854 10.1031 136.762 13.6185 137.511 15.4311C138.306 17.3561 130.816 20.4121 123.094 22.6394C124.539 24.1497 124.015 25.0934 122.373 25.5228C122.311 25.539 122.542 26.1581 122.373 26.2436C120.001 27.4494 115.593 28.3761 111.561 29.127C110.832 29.2619 110.112 29.016 109.399 29.127C107.612 29.3991 105.905 29.7291 104.353 29.8478C101.979 30.0297 99.9125 30.1485 98.5862 29.8478C97.7789 29.6874 97.368 29.4168 97.1445 29.127C97.2541 28.4686 104.139 26.7232 110.84 24.8019C117.547 22.8792 123.752 20.5602 124.536 18.3144C125.272 16.2066 121.448 13.7165 117.328 11.8269C117.694 11.0867 117.432 10.3567 116.607 9.66437C113.807 7.31911 108.16 5.90833 104.353 4.61851C103.946 4.48051 103.753 4.69561 103.632 4.61851Z" fill="#CA1178"/>
<path d="M103.632 4.61845C103.502 4.80135 103.84 4.20327 103.632 4.61845C104.506 3.38447 112.282 4.89492 120.211 7.5018C127.944 10.06 136.01 13.6391 136.79 15.431C137.616 17.331 130.53 20.4361 123.094 22.6394C124.744 24.2075 123.968 25.0898 122.373 25.5227C122.313 25.5397 122.546 26.1532 122.373 26.2435C120.034 27.4729 115.661 27.6251 111.561 28.4061C110.826 28.5458 110.119 29.0127 109.399 29.1269C107.599 29.4124 105.921 29.7212 104.353 29.8477C101.962 30.0407 99.9291 30.1433 98.5862 29.8477C97.7644 29.6895 97.3701 29.4155 97.1445 29.1269C97.2786 28.4717 103.548 26.7019 110.119 24.8019C116.698 22.8996 123.713 20.5331 124.536 18.3143C125.308 16.2307 121.28 13.6959 117.328 11.8268C117.775 11.0659 118.135 10.3797 117.328 9.66431C114.627 7.27043 108.275 5.95893 104.353 4.61845C103.946 4.47954 103.76 4.69794 103.632 4.61845Z" fill="#CB1178"/>
<path d="M103.632 4.61832C103.501 4.79599 103.839 4.21123 103.632 4.61832C104.525 3.40399 112.318 4.93551 120.211 7.50167C127.897 10.0176 135.966 12.938 136.79 14.71C137.662 16.5856 130.38 19.7423 123.094 21.9184C124.981 23.546 124.672 25.0854 123.094 25.5226C123.035 25.5396 123.273 25.4268 123.094 25.5226C120.747 26.7786 116.524 27.5925 112.282 28.4059C111.528 28.5504 110.86 29.0062 110.119 29.1268C108.274 29.4188 105.966 29.7148 104.353 29.8476C101.899 30.0515 99.9709 30.1388 98.5862 29.8476C97.7342 29.6908 97.3781 29.4149 97.1445 29.1268C97.3046 28.4733 103.558 26.6812 110.119 24.8018C116.686 22.9208 123.659 20.5026 124.536 18.3142C125.361 16.2556 121.183 14.3953 117.328 12.5475C117.865 11.7627 118.13 10.4035 117.328 9.66418C114.676 7.22085 108.466 6.00415 104.353 4.61832C103.939 4.47928 103.77 4.69866 103.632 4.61832Z" fill="#CC1178"/>
<path d="M103.632 3.89745C103.833 3.49926 103.503 4.79071 103.632 4.61828C104.526 3.42138 112.497 4.97562 120.211 7.50163C127.707 9.9751 135.214 12.9564 136.069 14.71C136.971 16.5602 130.098 19.7674 123.094 21.9184C125.183 23.6032 125.352 25.098 123.815 25.5225C123.758 25.538 123.275 25.4228 123.094 25.5225C120.781 26.8053 116.589 27.5608 112.282 28.4059C111.522 28.5544 110.866 29.0014 110.119 29.1267C108.26 29.4282 105.982 29.7069 104.353 29.8476C101.883 30.0625 99.9875 30.1345 98.5862 29.8476C97.7205 29.6937 97.381 29.4136 97.1445 29.1267C97.3291 28.4757 103.689 26.6597 110.119 24.8017C116.556 22.9422 122.896 20.4729 123.815 18.3142C124.673 16.2807 121.015 14.3753 117.328 12.5475C117.945 11.7418 118.111 11.1489 117.328 10.385C114.773 7.89608 108.578 6.05023 104.353 4.61828C103.938 4.47834 103.777 3.9794 103.632 3.89745Z" fill="#CC1278"/>
<path d="M103.632 3.89753C103.504 4.0647 103.829 3.50902 103.632 3.89753C104.529 2.71885 111.955 5.01509 119.49 7.50172C126.799 9.93259 134.464 12.9765 135.348 14.7101C136.28 16.535 129.816 19.7948 123.094 21.9185C125.38 23.6645 125.306 25.0931 123.815 25.5226C123.759 25.5381 123.279 25.4182 123.094 25.5226C120.811 26.8213 116.651 27.5299 112.282 28.406C111.516 28.5592 110.873 28.9984 110.119 29.1268C108.249 29.4387 106.716 29.6983 105.074 29.8477C102.587 30.0736 100.003 30.1301 98.5862 29.8477C97.7068 29.696 97.3831 29.4124 97.1445 29.1268C97.3528 28.4775 103.819 26.6383 110.119 24.8018C116.427 22.9629 122.861 21.1658 123.815 19.0351C124.711 17.0252 120.849 14.3547 117.328 12.5476C118.024 11.7203 118.092 11.1737 117.328 10.3851C114.869 7.85123 108.689 6.09735 104.353 4.61837C103.938 4.47752 103.784 3.98189 103.632 3.89753Z" fill="#CD1278"/>
<path d="M103.632 3.89744C103.504 4.06011 103.827 3.51711 103.632 3.89744C104.547 2.73707 111.992 5.05539 119.49 7.50163C126.749 9.88896 134.417 12.9958 135.348 14.71C136.326 16.5102 129.662 19.0999 123.094 21.1975C125.621 23.0023 126.008 24.3687 124.536 24.8017C124.481 24.818 124.007 25.4117 123.815 25.5225C121.523 26.8471 117.517 27.4981 113.003 28.4059C112.218 28.5639 110.894 28.995 110.119 29.1267C108.201 29.452 106.762 29.6911 105.074 29.8476C102.525 30.0846 100.047 30.1264 98.5862 29.8476C97.6765 29.6981 97.3896 29.411 97.1445 29.1267C97.3795 28.4799 103.83 26.6174 110.119 24.8017C116.416 22.9845 122.807 21.1365 123.815 19.035C124.765 17.0512 121.472 15.053 118.048 13.2683C118.837 12.4186 118.809 11.1991 118.048 10.385C115.638 7.80551 108.881 6.14427 104.353 4.61828C103.93 4.47575 103.793 3.98342 103.632 3.89744Z" fill="#CE1178"/>
<path d="M103.632 3.89783C103.505 4.05522 103.822 3.52646 103.632 3.89783C104.548 2.75504 112.169 5.09549 119.49 7.50201C126.561 9.84574 133.667 13.0163 134.627 14.7104C135.634 16.485 129.383 19.1263 123.094 21.1979C125.816 23.0617 125.962 24.364 124.536 24.8021C124.482 24.8192 124.731 24.685 124.536 24.8021C122.277 26.1488 117.578 27.4682 113.003 28.4063C112.213 28.5683 111.62 28.9915 110.84 29.1271C108.911 29.462 106.777 29.6828 105.074 29.8479C102.51 30.0961 100.061 30.1224 98.5862 29.8479C97.6635 29.7014 97.3925 29.4093 97.1445 29.1271C97.4026 28.482 103.24 26.5946 109.399 24.8021C115.565 23.0057 122.053 21.107 123.094 19.0354C124.08 17.077 120.586 15.0333 117.328 13.2687C118.193 12.3965 118.789 11.225 118.048 10.3854C115.732 7.76252 108.988 6.19252 104.353 4.61867C103.932 4.47523 103.801 3.98544 103.632 3.89783Z" fill="#CE1278"/>
<path d="M103.632 3.89757C103.505 4.04967 103.82 3.53596 103.632 3.89757C104.57 2.77238 112.208 5.13573 119.49 7.50176C126.511 9.8026 133.619 12.3162 134.627 13.9893C135.68 15.7392 129.946 18.4321 123.815 20.4768C126.783 22.399 126.666 24.3572 125.257 24.8018C125.205 24.8181 125.457 24.6808 125.257 24.8018C122.984 26.1653 117.726 27.4353 113.003 28.406C112.192 28.5721 111.642 28.9856 110.84 29.1269C108.863 29.4675 106.824 29.6746 105.074 29.8477C102.446 30.1069 100.105 30.117 98.5862 29.8477C97.6325 29.7018 97.4004 29.4086 97.1445 29.1269C97.4314 28.4843 103.251 26.5734 109.399 24.8018C115.554 23.0271 121.998 21.0791 123.094 19.0351C124.136 17.1029 121.205 15.0129 118.048 13.2685C119.008 12.3753 119.506 11.2519 118.769 10.3851C116.502 7.72187 109.187 6.23637 104.353 4.61841C103.924 4.47408 103.811 3.98682 103.632 3.89757Z" fill="#CF1278"/>
<path d="M104.353 3.89765C104.228 4.04521 104.535 3.54506 104.353 3.89765C105.293 2.79017 112.385 5.1766 119.49 7.50184C126.323 9.7595 133.591 12.3351 134.627 13.9894C135.708 15.7143 129.669 18.4592 123.815 20.4769C126.973 22.4596 127.344 24.3639 125.977 24.8019C125.928 24.8175 126.181 24.6761 125.977 24.8019C123.736 26.1866 119.225 27.4027 114.444 28.4061C113.629 28.5777 112.368 28.9817 111.561 29.1269C109.574 29.4772 107.557 29.6676 105.794 29.8478C103.152 30.1188 100.839 30.1126 99.3069 29.8478C98.341 29.7041 98.1233 29.4065 97.8652 29.1269C98.1745 28.487 104.102 26.5525 110.119 24.8019C116.145 23.0499 121.964 21.0506 123.094 19.0352C124.172 17.1294 121.763 14.9911 118.769 13.2685C119.804 12.3528 120.207 11.9983 119.49 11.106C117.314 8.40101 110.01 6.28592 105.073 4.61849C104.644 4.47326 104.537 3.98852 104.353 3.89765Z" fill="#D01278"/>
<path d="M104.353 3.89791C104.255 4.06004 104.534 3.55338 104.353 3.89791C105.492 2.99295 112.425 5.2128 119.49 7.50209C126.271 9.72356 133.542 12.3512 134.627 13.9896C135.755 15.6943 130.229 18.4793 124.536 20.4771C127.947 22.5248 128.047 23.637 126.698 24.0813C126.648 24.0977 126.908 24.6712 126.698 24.8022C124.443 26.2091 119.376 27.3665 114.444 28.4063C113.609 28.5833 113.111 28.2567 112.282 28.4063C110.244 28.7688 108.325 29.6594 106.515 29.848C103.808 30.1302 101.605 30.1092 100.028 29.848C99.0294 29.7062 98.1305 29.4062 97.8652 29.1272C98.2026 28.4872 104.114 27.2557 110.119 25.523C116.132 23.7872 121.904 21.7439 123.094 19.7563C124.224 17.8676 121.658 15.6958 118.769 13.9896C119.9 13.0496 120.923 12.0284 120.211 11.1063C118.084 8.35242 110.931 6.33902 105.794 4.61874C105.358 4.47221 104.548 3.99144 104.353 3.89791Z" fill="#D11278"/>
<path d="M104.353 3.89755C104.256 4.05516 104.529 3.56127 104.353 3.89755C105.496 3.01979 112.603 4.5307 119.49 6.78089C126.085 8.95775 132.793 12.3703 133.906 13.9893C135.061 15.6675 129.956 17.7858 124.536 19.756C128.133 21.8634 128.727 23.6394 127.419 24.081C127.372 24.0966 126.911 24.6645 126.698 24.8018C124.477 26.2327 119.431 27.334 114.444 28.406C113.604 28.587 113.115 28.2515 112.282 28.406C110.235 28.7774 108.338 29.651 106.515 29.8477C103.795 30.1411 101.617 30.1036 100.028 29.8477C99.0171 29.708 98.1334 29.4046 97.8652 29.1268C98.2249 28.4894 104.246 27.2345 110.119 25.5227C116.003 23.8085 121.87 21.7159 123.094 19.756C124.257 17.8927 121.497 15.6746 118.769 13.9893C119.974 13.0272 120.903 12.0547 120.211 11.1059C118.172 8.3119 111.031 6.3864 105.794 4.61838C105.358 4.4717 104.554 3.99274 104.353 3.89755Z" fill="#D21279"/>
<path d="M104.353 3.8974C104.257 4.05125 104.527 3.57096 104.353 3.8974C105.523 3.04772 112.644 4.57065 119.49 6.78075C126.03 8.91431 132.743 11.6705 133.906 13.2683C135.11 14.9216 129.789 17.812 124.536 19.7558C128.389 21.9229 129.429 23.6341 128.14 24.0808C128.094 24.0965 127.637 23.9395 127.419 24.0808C125.181 25.5264 120.306 27.2992 115.165 28.4058C114.304 28.5917 113.137 28.2473 112.282 28.4058C110.184 28.7924 108.386 29.6429 106.515 29.8475C103.728 30.1529 101.663 30.0997 100.028 29.8475C98.9854 29.7116 98.1406 29.4031 97.8652 29.1267C98.2538 28.491 104.258 27.2125 110.119 25.5225C115.99 23.8294 121.812 21.6848 123.094 19.7558C124.315 17.9182 121.391 15.6525 118.769 13.9891C120.072 13.0051 120.896 12.082 120.211 11.1058C118.221 8.27325 111.236 6.43395 105.794 4.61824C105.35 4.47064 104.565 3.99502 104.353 3.8974Z" fill="#D21279"/>
<path d="M104.353 3.89765C104.258 4.04695 104.523 3.58028 104.353 3.89765C105.526 3.07611 112.101 4.61263 118.769 6.78099C125.124 8.87119 131.995 11.6903 133.186 13.2685C134.415 14.8967 129.519 17.8394 124.536 19.756C128.572 21.9838 129.385 23.6316 128.14 24.0811C128.096 24.0975 127.641 23.9326 127.42 24.0811C125.216 25.5514 120.358 27.2672 115.165 28.4061C114.3 28.5968 113.863 28.2427 113.003 28.4061C110.897 28.7985 108.397 29.6344 106.515 29.8478C103.718 30.1644 101.676 30.094 100.028 29.8478C98.9739 29.7117 98.1428 29.4037 97.8652 29.1269C98.2761 28.493 103.668 27.19 109.399 25.5227C115.139 23.8508 121.06 21.6563 122.374 19.756C123.627 17.9442 121.232 16.3525 118.769 14.7102C120.145 13.7034 120.877 12.1089 120.211 11.106C118.308 8.23414 111.333 6.47652 105.794 4.61848C105.35 4.46996 104.571 3.99692 104.353 3.89765Z" fill="#D31279"/>
<path d="M104.353 3.89745C104.521 3.58918 104.981 4.0422 105.074 3.89745C106.275 3.10251 112.143 4.65259 118.769 6.7808C125.067 8.82685 131.944 11.7105 133.186 13.2683C134.464 14.8707 129.348 17.1447 124.536 19.035C128.835 21.3221 130.092 23.6349 128.861 24.0809C128.817 24.0973 129.089 23.9283 128.861 24.0809C126.642 25.5682 121.236 27.2338 115.886 28.4059C114.999 28.5999 113.886 28.2392 113.003 28.4059C110.847 28.8127 108.447 29.6269 106.515 29.8476C103.649 30.1746 101.722 30.0893 100.028 29.8476C98.9407 29.7154 98.15 29.4022 97.8652 29.1267C98.3049 28.4961 103.682 27.1696 109.399 25.5225C115.126 23.8732 121.002 21.6251 122.374 19.7559C123.686 17.9688 121.842 16.3312 119.49 14.71C120.966 13.6811 121.589 12.1362 120.932 11.1058C119.076 8.19519 111.544 6.5235 105.794 4.61829C105.342 4.46885 104.583 3.99838 104.353 3.89745Z" fill="#D41279"/>
<path d="M104.353 3.89748C104.262 4.03767 104.515 3.59911 104.353 3.89748C105.557 3.13001 112.32 4.69299 118.769 6.78083C124.881 8.78332 131.197 11.731 132.465 13.2684C133.768 14.8464 129.08 17.172 124.536 19.0351C129.011 21.3829 130.05 22.9067 128.861 23.3601C128.819 23.3757 129.093 23.9227 128.861 24.0809C126.673 25.5869 121.284 26.4806 115.886 27.6851C114.996 27.884 113.889 28.2344 113.003 28.4059C110.838 28.8179 109.178 29.619 107.236 29.8476C104.36 30.1852 101.733 30.0849 100.028 29.8476C98.9299 29.7161 98.1528 29.4009 97.8652 29.1268C98.3258 28.4979 103.814 27.1484 109.399 25.5226C114.995 23.8952 120.97 21.5963 122.374 19.7559C123.717 17.9938 121.685 16.31 119.49 14.71C121.037 13.6583 121.569 12.8862 120.932 11.8267C119.16 8.87973 111.636 6.57069 105.794 4.61832C105.344 4.46796 104.588 4.00086 104.353 3.89748Z" fill="#D51279"/>
<path d="M105.074 3.89762C104.982 4.03401 105.234 3.60838 105.074 3.89762C106.306 3.15846 112.363 4.73592 118.77 6.78096C124.823 8.73979 131.144 11.0317 132.465 12.5477C133.818 14.1012 129.626 16.4786 125.257 18.3144C130.001 20.7223 130.652 22.7002 129.582 23.3602C129.539 23.3689 129.819 23.9172 129.582 24.081C127.38 25.6064 122.165 26.4468 116.607 27.6852C115.694 27.889 114.633 28.2297 113.724 28.4061C111.507 28.8278 109.229 29.611 107.236 29.8477C104.291 30.1966 101.781 30.0806 100.028 29.8477C98.8975 29.7192 98.1608 29.3997 97.8652 29.1269C98.3568 28.5014 103.827 27.1257 109.399 25.5227C114.981 23.9166 120.91 22.2867 122.374 20.4769C123.778 18.7399 121.572 16.2888 119.49 14.7102C121.139 13.6363 122.283 12.9148 121.653 11.8268C119.928 8.84352 111.847 6.62196 105.794 4.61845C105.335 4.46639 105.319 4.00344 105.074 3.89762Z" fill="#D51279"/>
<path d="M104.353 3.89742C104.509 3.61812 104.985 4.03001 105.074 3.89742C106.308 3.18662 111.826 4.76369 118.049 6.78077C123.922 8.68409 130.399 11.0521 131.745 12.5475C133.12 14.0758 128.638 16.505 124.536 18.3142C129.451 20.7832 130.606 22.6932 129.582 23.36C129.541 23.3687 129.821 23.1898 129.582 23.36C127.41 24.9048 122.21 26.4133 116.607 27.685C115.692 27.8929 114.636 28.2254 113.724 28.4059C111.501 28.8382 109.238 29.5989 107.236 29.8475C104.282 30.2022 101.789 30.0758 100.028 29.8475C98.8859 29.7205 98.1622 29.3982 97.8652 29.1267C98.377 28.503 103.959 27.1034 109.399 25.5225C114.85 23.9378 120.161 22.2561 121.653 20.4767C123.087 18.7655 121.416 16.9874 119.49 15.4308C121.207 14.3348 122.26 12.9423 121.653 11.8266C120.009 8.8061 111.937 6.66515 105.794 4.61826C105.336 4.46527 104.606 4.00491 104.353 3.89742Z" fill="#D61279"/>
<path d="M105.074 3.89758C104.984 4.02479 105.228 3.62587 105.074 3.89758C106.336 3.21438 111.866 4.81693 118.049 6.78093C123.857 8.65147 130.344 11.0729 131.745 12.5476C133.171 14.0506 129.18 16.5317 125.257 18.3143C130.446 20.8429 131.302 22.6848 130.303 23.3602C130.263 23.368 130.549 23.1843 130.303 23.3602C128.117 24.9229 122.374 26.3785 116.607 27.6852C115.669 27.898 114.66 28.2207 113.724 28.406C111.448 28.8481 109.289 28.8701 107.236 29.1269C104.211 29.492 101.838 30.0715 100.028 29.8477C98.8521 29.7228 98.1694 29.397 97.8652 29.1269C98.408 28.5049 103.974 27.0815 109.399 25.5227C114.834 23.9608 120.099 22.2272 121.653 20.4768C123.149 18.7932 121.301 16.9662 119.49 15.431C121.311 14.3127 122.972 12.9718 122.374 11.8268C120.776 8.7681 112.154 6.71748 105.794 4.61841C105.328 4.46371 105.337 4.00673 105.074 3.89758Z" fill="#D71279"/>
<path d="M105.074 3.89784C104.988 4.02044 105.222 3.63536 105.074 3.89784C106.339 3.24242 112.046 4.84713 118.049 6.78119C123.677 8.59501 129.599 11.0932 131.024 12.5479C132.472 14.0254 128.917 15.8397 125.257 17.5937C130.611 20.1832 131.976 21.9559 131.024 22.6396C130.985 22.6467 130.55 23.1797 130.303 23.3604C128.147 24.9425 122.415 26.3471 116.607 27.6855C115.666 27.9024 114.664 28.2169 113.724 28.4063C111.443 28.8582 109.297 28.8662 107.236 29.1271C104.206 29.5099 101.849 30.0672 100.028 29.848C98.8434 29.7253 98.1716 29.3951 97.8652 29.1271C98.4282 28.5079 103.385 27.0601 108.678 25.5229C113.982 23.9826 119.35 22.1974 120.932 20.4771C122.457 18.8181 121.148 16.9456 119.49 15.4312C121.377 14.2901 122.95 13.0011 122.374 11.827C120.855 8.73225 112.237 6.76335 105.794 4.61868C105.329 4.46308 105.343 4.00866 105.074 3.89784Z" fill="#D81279"/>
<path d="M105.074 3.8978C104.987 4.0158 105.221 3.64609 105.074 3.8978C106.365 3.2701 112.105 4.88782 118.049 6.78115C123.606 8.55099 128.826 10.3938 130.303 11.827C131.8 13.2799 128.728 15.8656 125.257 17.5937C130.882 20.2437 132.67 21.9473 131.745 22.6396C131.707 22.6466 131.277 23.1732 131.024 23.3604C128.855 24.9604 123.294 26.3152 117.328 27.6854C116.366 27.9064 115.406 28.2128 114.444 28.4062C112.113 28.8687 110.066 28.8549 107.957 29.1271C104.859 29.5165 101.893 30.0627 100.028 29.8479C98.8095 29.7283 98.1795 29.3937 97.8652 29.1271C98.4592 28.5096 103.41 27.0371 108.678 25.5229C113.957 24.0047 119.291 22.1674 120.932 20.477C122.517 18.8441 121.748 17.6442 120.211 16.152C122.201 14.9887 122.939 13.7521 122.374 12.5478C120.904 9.41798 112.451 6.80301 105.794 4.61864C105.322 4.46368 105.354 4.01029 105.074 3.8978Z" fill="#D81279"/>
<path d="M105.074 4.61824C104.99 4.72845 105.216 4.38174 105.074 4.61824C106.364 4.03504 111.568 5.70147 117.328 7.50159C122.693 9.17847 128.083 11.1752 129.582 12.5474C131.097 13.935 128.463 15.9401 125.257 17.5933C131.031 20.2292 132.623 21.9595 131.745 22.6391C131.709 22.6468 131.277 23.1725 131.024 23.36C128.89 24.9343 123.32 26.3173 117.328 27.685C116.366 27.9046 115.407 28.2137 114.444 28.4058C112.113 28.8658 110.07 28.858 107.957 29.1267C104.86 29.5216 101.898 30.0527 100.028 29.8475C98.8038 29.7335 98.1802 29.3861 97.8652 29.1267C98.4765 28.5297 103.55 26.9736 108.678 25.5225C113.818 24.0684 119.268 22.8109 120.932 21.1975C122.543 19.6346 120.873 17.5813 119.49 16.1516C121.542 14.9975 122.915 13.7452 122.374 12.5474C120.982 9.46918 112.517 7.51268 105.794 5.33907C105.324 5.18677 105.359 4.72998 105.074 4.61824Z" fill="#D91279"/>
<path d="M105.074 4.61833C104.99 4.72404 105.213 4.39082 105.074 4.61833C106.391 4.06297 111.632 5.74213 117.328 7.50168C122.617 9.1356 128.031 11.1955 129.582 12.5475C131.147 13.9111 128.269 15.9671 125.257 17.5934C131.303 20.2882 133.316 21.9506 132.465 22.6392C132.43 22.6446 132.006 22.4454 131.745 22.6392C129.601 24.2311 124.196 26.2841 118.049 27.6851C117.066 27.9088 116.149 28.2099 115.165 28.4059C112.785 28.8755 110.117 28.8457 107.957 29.1268C104.793 29.5266 101.944 30.0483 100.028 29.8476C98.772 29.7357 98.1874 29.3842 97.8652 29.1268C98.5075 28.5316 103.579 26.952 108.678 25.5226C113.789 24.0894 119.208 22.7825 120.932 21.1976C122.603 19.6602 121.47 18.2805 120.211 16.8726C122.366 15.6967 123.624 14.4948 123.095 13.2684C121.751 10.1545 112.725 7.56292 105.794 5.33917C105.315 5.18596 105.37 4.73171 105.074 4.61833Z" fill="#DA1279"/>
<path d="M105.074 4.6183C104.992 4.72027 105.208 4.40134 105.074 4.6183C106.388 4.09085 111.812 5.06122 117.328 6.78081C122.428 8.3716 127.291 10.4965 128.861 11.8267C130.443 13.1668 128.011 15.2733 125.257 16.8725C131.447 19.6271 133.271 21.9446 132.465 22.6392C132.433 22.6461 132.006 22.4406 131.745 22.6392C129.633 24.2484 124.223 26.253 118.049 27.6851C117.066 27.9128 116.15 28.2051 115.165 28.4059C112.784 28.885 110.121 28.8377 107.957 29.1267C104.794 29.5369 101.949 30.0439 100.028 29.8476C98.7641 29.7387 98.1889 29.3836 97.8652 29.1267C98.5248 28.5341 103.716 27.6502 108.678 26.2434C113.653 24.8312 118.465 22.7523 120.211 21.1975C121.907 19.6865 120.6 18.2601 119.49 16.8725C121.703 15.6758 123.6 14.5226 123.095 13.2683C121.826 10.1197 112.792 7.60457 105.794 5.33913C105.318 5.18504 105.375 4.73329 105.074 4.6183Z" fill="#DB127A"/>
<path d="M105.074 4.61836C104.993 4.71657 105.205 4.40967 105.074 4.61836C106.416 4.11811 111.878 5.10135 117.328 6.78087C122.348 8.32765 127.237 10.517 128.861 11.8267C130.492 13.1425 127.812 15.2997 125.257 16.8726C131.719 19.6861 133.962 21.9357 133.186 22.6393C133.155 22.6454 132.734 22.4337 132.465 22.6393C130.345 24.2674 124.376 26.2174 118.049 27.6851C117.045 27.9184 116.172 28.2004 115.165 28.406C112.735 28.894 110.168 28.8307 107.957 29.1268C104.729 29.5481 101.994 30.0395 100.028 29.8476C98.7331 29.7394 98.1968 29.3815 97.8652 29.1268C98.5572 28.536 103.748 27.6283 108.678 26.2435C113.621 24.8532 118.406 22.7237 120.211 21.1976C121.968 19.713 121.194 18.2391 120.211 16.8726C122.529 15.6534 123.586 14.5513 123.095 13.2684C121.873 10.085 112.999 7.65477 105.794 5.3392C105.311 5.18345 105.385 4.73575 105.074 4.61836Z" fill="#DC127A"/>
<path d="M105.074 4.6186C104.994 4.71151 105.2 4.41819 105.074 4.6186C106.413 4.14559 111.334 5.14247 116.607 6.78111C121.447 8.2846 126.497 10.5393 128.14 11.827C129.787 13.1178 127.562 15.3256 125.257 16.8728C131.86 19.7446 133.918 21.2084 133.186 21.9187C133.156 21.9248 132.734 22.4284 132.465 22.6395C130.376 24.285 124.402 26.1865 118.049 27.6854C117.045 27.9227 116.172 28.1966 115.165 28.4062C112.736 28.9053 110.171 28.8237 107.957 29.127C104.729 29.5601 101.999 30.0337 100.028 29.8479C98.7266 29.7419 98.1975 29.382 97.8652 29.127C98.5738 28.5396 103.161 27.6075 107.957 26.2437C112.768 24.8746 117.664 23.416 119.49 21.9187C121.272 20.459 121.05 18.9382 120.211 17.5937C122.586 16.352 123.562 14.5794 123.095 13.2686C121.946 10.049 113.064 7.6945 105.794 5.33944C105.312 5.18356 105.391 4.73762 105.074 4.6186Z" fill="#DC137A"/>
<path d="M105.073 4.61833C104.996 4.70748 105.197 4.42775 105.073 4.61833C106.439 4.17414 111.403 5.18316 116.607 6.78084C121.363 8.2402 126.444 10.561 128.14 11.8267C129.837 13.0939 127.357 14.6324 125.256 16.1517C132.133 19.0843 134.608 21.1991 133.906 21.9184C133.878 21.9238 133.46 22.4218 133.186 22.6392C131.087 24.303 125.277 26.152 118.769 27.6851C117.745 27.9264 116.914 28.1923 115.886 28.4059C113.408 28.9147 110.94 28.8148 108.678 29.1268C105.385 29.571 102.043 30.0298 100.028 29.8476C98.6942 29.7439 98.2047 29.3789 97.8652 29.1268C98.6048 28.5412 103.196 27.5852 107.957 26.2434C112.734 24.8971 117.604 23.3863 119.49 21.9184C121.332 20.4837 120.92 18.9167 120.211 17.5934C122.689 16.3308 124.268 14.6078 123.815 13.2684C122.713 10.0131 113.274 7.74223 105.794 5.33917C105.306 5.1824 105.401 4.73821 105.073 4.61833Z" fill="#DD137A"/>
<path d="M105.073 4.61838C104.996 4.70298 105.195 4.43687 105.073 4.61838C106.466 4.20154 111.474 5.22429 116.607 6.78089C121.276 8.19674 125.67 9.86153 127.419 11.1059C129.166 12.3495 127.872 14.6606 125.977 16.1518C133.13 19.1442 135.298 21.1924 134.627 21.9185C134.599 21.9239 134.187 21.6946 133.906 21.9185C131.796 23.5997 126.152 26.1201 119.49 27.6852C118.445 27.9305 116.935 27.4675 115.886 27.6852C113.359 28.2043 110.988 28.8061 108.678 29.1268C105.32 29.5821 102.088 30.0253 100.028 29.8477C98.6617 29.7462 98.2119 29.3783 97.8652 29.1268C98.6358 28.5439 103.232 27.564 107.957 26.2435C112.695 24.9192 117.547 23.3566 119.49 21.9185C121.393 20.5103 120.789 18.8955 120.211 17.5934C122.796 16.3083 124.973 15.3574 124.536 13.9893C123.483 10.6976 114.206 7.78562 106.515 5.33922C106.018 5.18078 105.412 4.74066 105.073 4.61838Z" fill="#DE137A"/>
<path d="M105.073 4.61826C104.998 4.69753 105.191 4.44585 105.073 4.61826C106.464 4.2288 110.926 5.26529 115.886 6.78077C120.377 8.15386 124.931 9.88281 126.698 11.1058C128.461 12.3249 126.906 13.9653 125.256 15.4308C132.545 18.4817 135.255 21.1833 134.627 21.9183C134.601 21.9237 134.187 21.6898 133.906 21.9183C131.826 23.617 126.175 25.3664 119.49 26.9642C118.445 27.2136 116.937 27.4626 115.886 27.685C113.36 28.2122 110.989 28.7981 108.678 29.1267C105.321 29.5932 102.092 30.02 100.028 29.8475C98.6567 29.7483 98.2134 29.3761 97.8652 29.1267C98.6531 28.5464 103.361 27.5418 107.957 26.2434C112.566 24.9411 116.803 23.3276 118.769 21.9183C120.696 20.5368 120.648 18.874 120.211 17.5933C122.85 16.2856 124.949 15.3861 124.536 13.9891C123.551 10.6618 114.265 7.83206 106.515 5.33909C106.021 5.17977 105.417 4.74294 105.073 4.61826Z" fill="#DF137A"/>
<path d="M105.073 4.61846C104.998 4.69316 105.188 4.45517 105.073 4.61846C106.49 4.25645 111 5.30676 115.886 6.78097C120.288 8.10883 124.877 9.90442 126.698 11.106C128.51 12.3014 127.417 13.993 125.977 15.431C133.543 18.5419 135.945 20.456 135.348 21.1977C135.322 21.2023 134.914 21.6821 134.627 21.9185C132.538 23.6346 126.329 25.3323 119.49 26.9644C118.425 27.2186 117.678 27.4588 116.607 27.6852C114.033 28.2228 111.036 28.7911 108.678 29.1269C105.257 29.6052 102.137 30.0149 100.028 29.8477C98.6235 29.7507 98.2206 29.3757 97.8652 29.1269C98.6834 28.5492 103.4 27.5198 107.957 26.2436C112.528 24.9627 116.744 23.2988 118.769 21.9185C120.757 20.5629 121.236 19.5737 120.932 18.3144C123.677 16.9865 124.932 15.4142 124.536 13.9893C123.599 10.6243 114.476 7.88256 106.515 5.33929C106.013 5.17909 105.427 4.74477 105.073 4.61846Z" fill="#DF137A"/>
<path d="M105.073 4.61829C105.001 4.6892 105.184 4.46414 105.073 4.61829C106.488 4.28378 111.168 5.34795 115.886 6.7808C120.115 8.0649 124.138 9.92731 125.977 11.1058C127.805 12.2774 126.458 14.0196 125.256 15.4308C132.953 18.601 135.903 20.4468 135.348 21.1975C135.325 21.2021 134.914 21.6764 134.627 21.9184C132.566 23.651 126.351 25.2986 119.49 26.9642C118.424 27.2232 117.68 27.4538 116.607 27.6851C114.033 28.2331 111.038 28.7838 108.678 29.1267C105.257 29.6154 102.142 30.011 100.028 29.8476C98.6178 29.752 98.2213 29.3749 97.8652 29.1267C98.7007 28.551 103.527 27.4966 107.957 26.2434C112.401 24.9832 116.725 23.2688 118.769 21.9184C120.779 20.5904 120.378 19.5521 120.211 18.3142C123.01 16.9638 124.908 15.4428 124.536 13.9892C123.663 10.5885 114.534 7.92967 106.515 5.33912C106.016 5.17804 105.432 4.74624 105.073 4.61829Z" fill="#E0137A"/>
<path d="M105.073 4.61856C105.001 4.68566 105.18 4.47434 105.073 4.61856C106.514 4.31237 111.244 5.38896 115.886 6.78107C120.024 8.02124 124.084 9.22838 125.977 10.3853C127.854 11.5321 126.966 13.3259 125.977 14.7103C133.954 17.9387 136.593 20.4404 136.069 21.1978C136.047 21.2024 135.641 21.6695 135.348 21.9186C133.279 23.6694 127.226 25.267 120.211 26.9645C119.125 27.2275 117.701 27.4501 116.607 27.6853C113.984 28.2437 111.807 28.7761 109.398 29.127C105.914 29.6268 102.907 30.0067 100.749 29.8479C99.3069 29.7561 98.2285 29.3738 97.8652 29.127C98.7317 28.5539 102.848 27.4762 107.236 26.2437C111.641 25.0074 115.946 23.9598 118.048 22.6395C120.121 21.3376 120.964 19.5307 120.932 18.3145C123.838 16.9408 125.611 15.4718 125.256 13.9894C124.432 10.552 114.751 7.95933 106.515 5.3394C106.009 5.17821 105.443 4.7489 105.073 4.61856Z" fill="#E1137A"/>
<path d="M105.073 4.61839C105.002 4.68089 105.177 4.48335 105.073 4.61839C106.54 4.33982 111.324 5.4313 115.886 6.7809C119.93 7.97772 124.03 9.25077 125.977 10.3851C127.904 11.5078 126.75 13.3536 125.977 14.7101C134.234 17.998 137.28 20.4322 136.79 21.1976C136.769 21.2015 136.368 20.943 136.069 21.1976C133.99 22.9663 127.381 25.2335 120.211 26.9643C119.104 27.2313 118.443 27.4452 117.327 27.6852C114.658 28.2531 111.856 28.7673 109.398 29.1268C105.85 29.6377 102.951 30.002 100.749 29.8477C99.2737 29.7574 98.2372 29.3722 97.8652 29.1268C98.7648 28.5566 102.891 27.4527 107.236 26.2435C111.598 25.0282 115.885 23.9318 118.048 22.6393C120.182 21.3638 120.828 20.2288 120.932 19.0351C123.945 17.6407 125.595 16.2202 125.256 14.7101C124.48 11.2354 114.962 8.00756 106.515 5.33922C106 5.17641 105.455 4.75034 105.073 4.61839Z" fill="#E2137A"/>
<path d="M105.073 4.61841C105.004 4.67631 105.173 4.4918 105.073 4.61841C106.538 4.36751 110.767 5.47313 115.165 6.78092C119.039 7.93432 123.292 9.2734 125.256 10.3851C127.198 11.4845 126.519 12.6598 125.977 13.9893C134.36 17.336 137.239 20.4241 136.79 21.1977C136.77 21.2008 136.368 20.9375 136.069 21.1977C134.017 22.9826 127.404 25.2003 120.211 26.9643C119.104 27.2353 118.443 27.442 117.327 27.6852C114.658 28.2642 111.856 28.7586 109.398 29.1269C105.851 29.6487 102.956 29.9975 100.749 29.8477C99.2694 29.7597 98.2365 29.3701 97.8652 29.1269C98.7792 28.5586 103.014 27.4294 107.236 26.2435C111.475 25.0507 115.866 23.9016 118.048 22.6393C120.204 21.3918 120.694 20.2079 120.932 19.0351C123.996 17.6185 125.569 16.2464 125.256 14.7101C124.542 11.1974 115.016 8.05289 106.515 5.33925C106.003 5.17558 105.458 4.75197 105.073 4.61841Z" fill="#E2137B"/>
<path d="M105.073 4.61826C105.005 4.67155 105.171 4.50162 105.073 4.61826C106.563 4.39658 110.849 5.5148 115.165 6.78077C118.944 7.88761 122.518 9.29664 124.536 10.3849C126.527 11.4594 126.299 12.6877 125.977 13.9891C134.643 17.3946 137.928 19.6958 137.51 20.4767C137.492 20.4806 137.094 20.931 136.79 21.1975C134.729 23.0003 128.277 25.1676 120.932 26.9642C119.805 27.2392 118.464 27.4378 117.327 27.685C114.609 28.2736 111.904 28.7521 109.398 29.1267C105.786 29.6597 103 29.992 100.749 29.8475C99.237 29.7602 98.2451 29.3693 97.8652 29.1267C98.8117 28.5613 103.059 27.4082 107.236 26.2434C111.431 25.0731 115.807 23.8727 118.048 22.6392C120.266 21.4188 120.557 20.1844 120.932 19.035C124.105 17.5953 126.271 16.2741 125.977 14.71C125.311 11.1593 115.228 8.10275 106.515 5.33909C105.996 5.17457 105.47 4.7542 105.073 4.61826Z" fill="#E3137B"/>
<path d="M105.073 4.61843C105.007 4.66712 105.166 4.51101 105.073 4.61843C106.563 4.42446 110.286 5.55685 114.444 6.78094C118.058 7.84506 121.78 8.59785 123.815 9.66429C125.821 10.7153 126.072 12.715 125.977 13.9893C134.766 17.4537 137.887 19.6894 137.51 20.4768C137.495 20.4807 137.815 20.9249 137.51 21.1977C135.478 23.0184 128.295 25.1205 120.932 26.9644C119.804 27.2418 118.465 27.4341 117.327 27.6852C114.611 28.2834 111.906 28.7436 109.398 29.1269C105.789 29.6709 103.003 29.9868 100.749 29.8477C99.2319 29.7635 98.2437 29.3672 97.8652 29.1269C98.8261 28.5643 103.178 27.3849 107.236 26.2435C111.311 25.0952 115.067 23.8434 117.327 22.6393C119.567 21.4461 120.426 20.1642 120.932 19.0352C124.155 17.5761 126.247 16.3028 125.977 14.7101C125.37 11.1221 115.282 8.14757 106.515 5.33927C105.998 5.17312 105.474 4.75599 105.073 4.61843Z" fill="#E4137B"/>
<path d="M105.073 4.61835C105.008 4.66243 105.163 4.52017 105.073 4.61835C106.588 4.45213 110.369 5.59795 114.444 6.78086C117.958 7.80065 121.727 8.62124 123.815 9.6642C125.871 10.691 125.85 12.0221 125.977 13.2684C135.048 16.7932 138.575 19.682 138.231 20.4768C138.215 20.4799 138.541 20.1976 138.231 20.4768C136.188 22.3145 129.169 25.0879 121.652 26.9643C120.505 27.2465 119.207 27.4284 118.048 27.6851C115.284 28.2921 112.674 28.7364 110.119 29.1268C106.446 29.6811 103.048 29.9837 100.749 29.8476C99.1988 29.7649 98.2523 29.3665 97.8652 29.1268C98.8592 28.5663 103.224 27.3614 107.236 26.2434C111.264 25.117 115.007 23.8144 117.327 22.6393C119.629 21.4742 120.286 20.8623 120.932 19.7559C124.263 18.2738 126.227 16.3291 125.977 14.7101C125.418 11.084 115.494 8.1921 106.515 5.33919C105.99 5.1722 105.484 4.7583 105.073 4.61835Z" fill="#E5137B"/>
<path d="M105.073 4.61853C105.009 4.65798 105.159 4.52957 105.073 4.61853C106.586 4.48006 110.526 5.64084 114.444 6.78104C117.798 7.75647 120.989 8.64485 123.094 9.66438C125.164 10.6676 125.631 12.0495 125.977 13.2686C135.169 16.8516 138.536 19.674 138.231 20.4769C138.218 20.48 138.542 20.1915 138.231 20.4769C136.214 22.3319 129.189 25.0554 121.652 26.9645C120.506 27.2506 119.207 27.4246 118.048 27.6853C115.285 28.3018 112.675 28.7286 110.119 29.127C106.447 29.6932 103.052 29.9793 100.749 29.8478C99.1952 29.7689 98.2538 29.3644 97.8652 29.127C98.8737 28.5701 102.621 27.3405 106.515 26.2436C110.427 25.1413 114.268 24.5051 116.607 23.3603C118.93 22.2216 120.159 20.8406 120.932 19.7561C124.312 18.2524 126.203 16.3579 125.977 14.7102C125.476 11.0444 115.549 8.23239 106.515 5.33936C105.993 5.17305 105.489 4.75931 105.073 4.61853Z" fill="#E6137B"/>
<path d="M105.073 4.61829C105.01 4.65312 105.156 4.53781 105.073 4.61829C106.612 4.50762 110.611 4.96254 114.444 6.05997C117.698 6.991 120.934 8.66734 123.094 9.66415C125.214 10.6424 125.407 12.078 125.977 13.2683C135.453 16.9112 139.223 18.9433 138.952 19.7559C138.94 19.7582 139.267 20.1849 138.952 20.4767C136.927 22.3489 129.344 25.024 121.652 26.9642C120.485 27.256 119.228 27.4212 118.048 27.6851C115.236 28.3135 112.723 28.7204 110.119 29.1267C106.383 29.7041 103.096 29.9737 100.749 29.8476C99.1627 29.771 98.2602 29.3643 97.8652 29.1267C98.9054 28.5718 102.669 27.3176 106.515 26.2434C110.379 25.163 114.209 24.4753 116.607 23.36C118.993 22.2495 120.018 20.8177 120.932 19.7559C124.42 18.2304 126.904 17.1056 126.698 15.4308C126.245 11.7245 115.763 8.27695 106.515 5.33913C105.987 5.17196 105.5 4.7607 105.073 4.61829Z" fill="#E6137B"/>
<path d="M105.073 4.61858C105.011 4.64955 105.153 4.54734 105.073 4.61858C106.637 4.53651 110.698 5.00493 114.444 6.06025C117.595 6.94678 120.881 8.69119 123.094 9.66443C125.265 10.6191 125.899 11.3841 126.698 12.5478C136.457 16.2488 139.909 18.9378 139.673 19.7561C139.662 19.7585 139.994 20.1781 139.673 20.477C137.639 22.3677 130.219 24.2724 122.373 26.2437C121.185 26.5402 119.97 27.4167 118.769 27.6854C115.91 28.3226 112.77 28.712 110.119 29.127C106.32 29.7147 103.14 29.9702 100.749 29.8479C99.1296 29.7727 98.2675 29.3624 97.8652 29.127C98.9385 28.5742 102.717 28.016 106.515 26.9645C110.331 25.9069 114.149 24.4474 116.607 23.3603C119.056 22.2779 120.597 21.5176 121.652 20.477C125.251 18.93 127.603 17.1322 127.419 15.4311C127.013 11.6852 115.975 8.3273 106.515 5.33941C105.979 5.16985 105.511 4.76259 105.073 4.61858Z" fill="#E7137B"/>
<path d="M105.073 4.61807C105.014 4.64441 105.148 4.55765 105.073 4.61807C106.635 4.56385 110.129 5.0473 113.723 6.05974C116.718 6.90254 120.145 7.99338 122.373 8.94309C124.558 9.87418 125.686 11.4117 126.698 12.5473C136.575 16.3082 139.872 18.9291 139.673 19.7556C139.664 19.7572 139.994 20.1713 139.673 20.4765C137.664 22.3844 130.239 24.2384 122.373 26.2432C121.186 26.5422 119.971 27.4121 118.769 27.6848C115.91 28.3316 112.772 28.7059 110.119 29.1265C106.322 29.7276 103.144 29.9635 100.749 29.8473C99.1252 29.7737 98.2682 29.3612 97.8652 29.1265C98.9522 28.5773 102.832 27.9927 106.515 26.964C110.217 25.9283 113.411 24.418 115.886 23.3598C118.355 22.3048 120.333 21.3023 121.652 20.4765C125.019 18.3687 127.579 17.1588 127.419 15.4306C127.069 11.6442 116.033 8.34758 106.515 5.3389C105.981 5.16771 105.515 4.76448 105.073 4.61807Z" fill="#E8147B"/>
<path d="M105.073 4.61832C105.011 4.62916 105.146 4.56644 105.073 4.61832C106.635 4.33647 110.218 5.09132 113.723 6.05999C116.612 6.85755 119.37 8.01725 121.652 8.94334C123.888 9.84928 125.455 10.7194 126.698 11.8267C136.86 15.6433 140.558 18.9219 140.394 19.7559C140.385 19.7575 140.72 19.4454 140.394 19.7559C138.375 21.6785 130.392 24.2077 122.373 26.2434C121.166 26.5478 119.992 27.4079 118.769 27.6851C115.863 28.341 113.539 28.6978 110.84 29.1268C106.979 29.7377 103.188 29.9599 100.749 29.8476C99.0928 29.7772 98.2761 29.3591 97.8652 29.1268C98.9854 28.5794 102.882 27.9701 106.515 26.9643C110.167 25.9522 113.351 24.3876 115.886 23.3601C118.417 22.3341 120.218 21.3037 121.652 20.4767C125.187 18.441 127.557 17.1839 127.419 15.4309C127.117 11.6065 116.246 8.39154 106.515 5.33916C105.974 5.16726 105.526 4.76544 105.073 4.61832Z" fill="#E9147B"/>
<path d="M105.073 4.61821C105.014 4.60891 105.141 4.5748 105.073 4.61821C106.643 4.85234 109.645 5.13425 113.003 6.05989C115.739 6.81497 118.634 8.04008 120.932 8.94323C123.181 9.82625 125.114 10.9598 126.698 11.8266C136.345 17.1028 140.521 18.1931 140.394 19.0349C140.387 19.0357 140.72 19.438 140.394 19.7558C138.401 21.7001 130.41 24.1734 122.373 26.2433C121.166 26.5518 119.992 26.6835 118.769 26.9641C115.865 27.6316 113.54 28.6902 110.84 29.1267C106.981 29.7492 103.191 29.9553 100.749 29.8475C99.0885 29.7793 98.2768 29.3592 97.8652 29.1267C98.9991 28.5832 102.275 27.9479 105.794 26.9641C109.334 25.9741 113.334 25.0801 115.886 24.0808C118.437 23.0823 120.124 21.3062 121.652 20.4766C125.285 18.5052 127.534 17.213 127.419 15.4308C127.17 11.5631 116.295 8.44075 106.515 5.33905C105.976 5.16617 105.53 4.76783 105.073 4.61821Z" fill="#E9147B"/>
<path d="M105.073 3.89771C105.138 3.86513 105.737 3.88995 105.794 3.89771C107.391 4.11333 109.736 4.45673 113.003 5.33938C115.633 6.05062 118.58 7.34318 120.932 8.22273C123.231 9.08289 124.919 10.2296 126.698 11.1061C136.813 16.0894 141.208 17.4659 141.115 18.3144C141.109 18.3152 141.446 18.711 141.115 19.0353C139.111 20.996 131.285 23.4216 123.094 25.5228C121.866 25.8362 120.733 25.959 119.49 26.2436C116.537 26.92 113.587 27.961 110.84 28.4062C106.917 29.0406 103.236 29.2301 100.749 29.127C99.0568 29.061 98.2833 28.6365 97.8652 28.4062C99.0315 27.864 102.326 27.2047 105.794 26.2436C109.282 25.2757 112.554 24.3344 115.165 23.3603C117.78 22.3939 120 21.3123 121.652 20.477C125.438 18.5651 128.232 17.2398 128.14 15.4311C127.939 11.5212 116.509 7.766 106.515 4.61854C105.969 4.44481 105.542 4.04973 105.073 3.89771Z" fill="#EA147B"/>
<path d="M105.073 3.8978C105.135 3.87451 105.738 3.89003 105.794 3.8978C107.418 4.10576 109.827 4.50527 113.003 5.33947C115.523 6.00993 118.526 6.64683 120.932 7.50198C123.283 8.3385 124.714 9.49526 126.698 10.3853C137.247 15.1197 141.892 17.4563 141.835 18.3145C141.832 18.3153 142.171 18.7048 141.835 19.0354C139.824 21.0149 132.161 23.3897 123.815 25.5229C122.568 25.8411 120.755 25.9535 119.49 26.2437C116.489 26.9305 113.635 27.9531 110.84 28.4062C106.853 29.0503 103.279 29.2248 100.749 29.1271C99.0236 29.0626 98.2905 28.6352 97.8652 28.4062C99.0647 27.8685 102.379 27.1811 105.794 26.2437C109.229 25.2978 112.493 24.3055 115.165 23.3604C117.843 22.4214 119.872 21.3175 121.652 20.477C125.587 18.6201 128.21 17.2656 128.14 15.4312C127.989 11.4783 117.443 7.81341 107.236 4.61863C106.683 4.44403 105.554 4.05144 105.073 3.8978Z" fill="#EB147C"/>
<path d="M105.073 3.89766C105.13 3.88213 105.74 3.89144 105.794 3.89766C107.42 4.08476 109.972 4.54744 113.003 5.33933C115.375 5.96585 117.789 6.67268 120.211 7.50184C122.574 8.31702 124.537 9.47995 126.698 10.3852C137.48 14.9028 141.856 17.4487 141.835 18.3144C141.833 18.3152 142.171 17.9775 141.835 18.3144C139.847 20.312 132.179 23.3567 123.815 25.5228C122.568 25.8457 120.755 25.9493 119.49 26.2436C116.491 26.9392 113.635 27.9457 110.84 28.4061C106.855 29.0629 103.282 29.2209 100.749 29.1269C99.0193 29.0664 98.292 28.6328 97.8652 28.4061C99.0784 27.8697 102.489 27.1589 105.794 26.2436C109.122 25.3205 112.476 24.2756 115.165 23.3602C117.862 22.448 119.772 21.3247 121.652 20.4769C125.665 18.6688 128.186 17.2927 128.14 15.431C128.04 11.4359 117.491 7.85981 107.236 4.61849C106.685 4.44381 105.556 4.05293 105.073 3.89766Z" fill="#EC147C"/>
<path d="M105.073 3.89748C105.128 3.89282 105.741 3.89593 105.794 3.89748C107.457 3.95573 110.066 4.58962 113.003 5.33916C115.265 5.92014 117.735 6.69543 120.211 7.50167C122.625 8.29237 124.322 9.46305 126.698 10.385C137.867 14.7191 142.54 17.4412 142.556 18.3142C142.555 18.3142 142.897 17.9702 142.556 18.3142C140.56 20.329 132.333 23.3237 123.815 25.5226C122.547 25.8488 121.497 25.9451 120.211 26.2434C117.165 26.951 113.684 27.9376 110.84 28.4059C106.793 29.0723 103.328 29.2153 100.749 29.1268C98.9868 29.0669 98.2984 28.6327 97.8652 28.4059C99.1108 27.8731 102.543 27.1351 105.794 26.2434C109.067 25.3432 112.416 24.2456 115.165 23.3601C117.924 22.4762 120.359 22.0528 122.373 21.1976C126.526 19.4352 128.884 17.3183 128.861 15.4309C128.81 11.3927 117.704 7.90619 107.236 4.61832C106.678 4.44278 105.568 4.05438 105.073 3.89748Z" fill="#ED147C"/>
</g>
</svg>
