<svg width="145" height="58" viewBox="0 0 145 58" fill="none" xmlns="http://www.w3.org/2000/svg">
<g clip-path="url(#clip0_3333_13778)">
<path d="M102.166 34.8057H45.8652V38.0766H102.166V34.8057Z" fill="#A3D562"/>
<path d="M45.8652 58.0002H49.3345V54.2336H69.0595V41.3479H45.8652V58.0002ZM49.3345 44.619H65.5902V50.9627H49.3345V44.619Z" fill="#A3D562"/>
<path d="M72.332 54.2336H85.416V58.0002H88.9843V54.2336H102.068V41.3479H72.332V54.2336ZM88.9843 44.619H98.6981V50.9627H88.9843V44.619ZM75.8012 44.619H85.416V50.9627H75.8012V44.619Z" fill="#A3D562"/>
<path d="M75.7001 1.6001H62.418V31.4355H75.7001V1.6001ZM72.231 28.1645H65.8871V4.97021H72.231V28.1645Z" fill="#A3D562"/>
<path d="M82.5375 11.6113L88.8812 4.97021V31.5347H92.3505V11.6113L98.5952 4.97021V31.5347H102.064V1.6001H97.2075L92.3505 6.75438V1.6001H87.4936L79.0684 10.3227V31.5347H82.5375V11.6113Z" fill="#A3D562"/>
<path d="M55.5786 31.5347H59.0478V28.2636V1.6001H54.1909L45.7656 10.3227V28.1645V31.4355H49.2349H55.5786V31.5347ZM49.334 11.6113L55.6777 4.97021V28.1645H49.334V11.6113Z" fill="#A3D562"/>
</g>
<defs>
<clipPath id="clip0_3333_13778">
<rect width="56.3998" height="56.3998" fill="white" transform="translate(45.7656 1.6001)"/>
</clipPath>
</defs>
</svg>
