<svg width="176" height="52" viewBox="0 0 176 52" fill="none" xmlns="http://www.w3.org/2000/svg">
<g clip-path="url(#clip0_2165_43210)">
<mask id="mask0_2165_43210" style="mask-type:luminance" maskUnits="userSpaceOnUse" x="0" y="0" width="176" height="52">
<path d="M175.81 0H0V51.8105H175.81V0Z" fill="white"/>
</mask>
<g mask="url(#mask0_2165_43210)">
<path d="M63.4612 50.9895H43.9997C43.9785 50.4 43.9785 50.4422 44.6343 50.3369C45.692 50.1474 46.792 49.979 47.8074 49.6421C49.3304 49.1579 50.2612 48 50.5997 46.4843C51.1497 44.1474 51.615 41.7895 52.0381 39.4316C52.7997 35.2843 53.4977 31.1158 54.217 26.9474C54.9785 22.5053 55.7612 18.0843 56.5227 13.6422C56.9247 11.3895 57.3266 9.11586 57.7285 6.86322C57.7708 6.67375 57.792 6.46322 57.8131 6.27375C57.7708 6.2527 57.7285 6.2527 57.6862 6.23164C57.3054 6.86322 56.9247 7.4948 56.565 8.14743C54.64 11.4316 52.7362 14.7159 50.8112 18.0211C49.0343 21.0737 47.2785 24.1264 45.5016 27.179C43.7458 30.1895 41.9689 33.2 40.2343 36.2316C38.6054 39.0316 36.9977 41.8316 35.39 44.6106C34.0574 46.9053 32.7247 49.2 31.3708 51.4948C31.265 51.6632 31.0112 51.8106 30.7997 51.8106C30.1862 51.8527 29.5727 51.8316 28.917 51.8316C24.8766 37.5579 20.8151 23.2843 16.7747 9.03164C16.7324 9.03164 16.6901 9.03164 16.6266 9.0527C16.4574 10.0211 16.2881 10.9685 16.1189 11.9369C15.2728 16.758 14.4266 21.6 13.5805 26.4421C12.7555 31.2843 11.9093 36.1053 11.1266 40.9474C10.8516 42.7158 10.8516 44.5053 11.2747 46.2737C11.7401 48.1264 12.9458 49.2421 14.7228 49.7264C15.8439 50.0211 16.9862 50.1685 18.1285 50.379C18.3612 50.4211 18.6151 50.4211 18.9112 50.4422C18.8901 50.6527 18.8689 50.8421 18.8478 51.0106H-0.00031851C-0.0426263 50.5474 0.211219 50.4 0.676604 50.3579C3.6593 50.0632 5.8593 48.6106 7.25545 45.9369C8.41891 43.7053 8.99007 41.2843 9.4343 38.8421C10.6401 32.1685 11.8458 25.4948 12.967 18.8211C13.5381 15.4527 14.0458 12.0843 14.4478 8.6948C14.617 7.34743 14.5112 5.95796 14.3843 4.61059C14.2151 2.77901 12.967 1.68428 10.9574 1.43164C10.1112 1.32638 9.28622 1.26322 8.35545 1.17901C8.37661 0.98954 8.37661 0.757961 8.39776 0.463224H8.96891C13.3266 0.421119 17.642 0.421119 21.9574 0.400066C22.4016 0.400066 22.5497 0.547434 22.6554 0.947434C24.6862 8.14743 26.717 15.3264 28.7689 22.5264C30.4612 28.4843 32.1324 34.4211 33.8035 40.379C34.015 41.0948 34.2266 41.8106 34.4593 42.6737C34.8824 41.979 35.242 41.3685 35.6016 40.7579C37.6324 37.2843 39.642 33.8316 41.6727 30.3579C43.1535 27.8316 44.6131 25.2843 46.0939 22.7579C47.9554 19.5369 49.8381 16.3369 51.7208 13.1159C53.2016 10.5895 54.6612 8.04217 56.142 5.51586C57.0727 3.8948 58.0247 2.27375 58.9766 0.67375C59.04 0.547434 59.2516 0.442171 59.3785 0.442171C63.715 0.421119 68.0516 0.442171 72.3881 0.442171C72.4304 0.442171 72.4939 0.463224 72.5362 0.484277C72.6208 0.968487 72.4939 1.17901 71.9227 1.22112C70.8016 1.32638 69.6804 1.4948 68.6016 1.72638C66.9939 2.06322 66.042 3.15796 65.6189 4.67375C65.1958 6.14743 64.8997 7.66322 64.6247 9.17901C63.8843 13.2422 63.1651 17.3264 62.4458 21.3895C61.5362 26.5264 60.6266 31.6632 59.717 36.8211C59.2939 39.2632 58.8285 41.6843 58.4477 44.1264C58.3208 44.9685 58.2997 45.8316 58.342 46.6948C58.4477 48.3579 59.0189 49.4106 60.6266 49.9158C61.5574 50.2106 63.5881 50.5264 64.4343 50.5474M47.5747 50.2948C50.2824 50.3369 52.567 49.0106 54.6189 46.9053C57.0516 44.4211 58.7862 41.4316 60.4785 38.4422C62.065 35.6422 63.6727 32.8632 65.2593 30.0843C66.6766 27.6 68.0727 25.0948 69.49 22.6106C71.4997 19.0948 73.5093 15.579 75.5189 12.0632C76.9362 9.60007 78.3112 7.11585 79.7285 4.63164C80.5535 3.20007 81.3785 1.74743 82.2247 0.315855C82.2881 0.189539 82.4362 0.0421708 82.542 0.0421708C83.6208 0.0211182 84.6785 0.0211182 85.7785 0.0211182C86.1593 2.02112 86.5189 3.97901 86.8785 5.93691C87.7458 10.6316 88.6131 15.3264 89.4804 20.0211C90.1997 23.9158 90.8977 27.7895 91.617 31.6843C92.4631 36.2316 93.3093 40.7579 94.1977 45.2843C94.367 46.2106 94.7054 47.1158 95.065 47.979C95.6574 49.3685 96.8208 50.0843 98.2804 50.2948C98.6612 50.3579 99.042 50.4 99.4227 50.4422C99.5708 50.9474 99.3804 50.6948 98.8727 50.6737C95.8266 50.6106 92.7804 50.9474 89.7343 50.9474C86.7304 50.9474 83.7477 51.0316 80.7439 51.0948C80.5535 51.0948 80.3631 51.0948 80.1093 51.0948C80.1304 50.8632 80.1516 50.6948 80.1939 50.3579C81.0612 50.3579 81.9074 50.379 82.7747 50.3579C83.3881 50.3369 84.0016 50.2737 84.6151 50.1685C86.0324 49.9158 86.6035 49.1158 86.4131 47.7264C86.1804 46.1264 85.9266 44.5474 85.6727 42.9685C85.1227 39.6843 84.5516 36.379 84.0227 33.0948C83.9593 32.7158 83.8535 32.5895 83.4304 32.5685C80.6804 32.5053 77.9304 32.3579 75.2016 32.3579C72.2189 32.3369 69.2574 32.4632 66.2747 32.4843C65.9362 32.4843 65.8093 32.6527 65.6824 32.8843C64.7727 34.5474 63.842 36.2316 62.9324 37.8948C61.79 40 60.6054 42.0843 59.4843 44.1895C59.0824 44.9474 58.765 45.7474 58.5747 46.5685C58.2785 47.7685 58.7862 48.7579 59.865 49.4106C61.092 50.1474 62.467 50.3579 63.8631 50.4422C64.0535 50.4632 64.2439 50.4632 64.4766 50.4843C64.4554 50.6948 64.4343 50.8843 64.4131 51.0316H47.49M79.6227 8.06322C75.3497 15.6843 71.1401 23.179 66.8881 30.7579C72.5151 30.9264 78.0362 31.0316 83.5997 30.6316C82.2881 23.1579 80.9766 15.6843 79.6227 8.06322Z" fill="white"/>
<path d="M85.4405 50.9895C85.3982 50.5053 85.6944 50.3789 86.1598 50.3579C87.6405 50.2316 89.1213 50.0421 90.5175 49.4526C91.9348 48.8421 92.9078 47.7895 93.3098 46.3579C93.9021 44.1474 94.3886 41.8947 94.8117 39.6421C95.5944 35.5158 96.2713 31.3684 97.0117 27.221C98.1752 20.5895 99.3386 13.979 100.46 7.34738C100.65 6.21054 100.756 5.05264 100.439 3.9158C100.1 2.7158 99.2328 2.02105 98.0694 1.74737C96.8425 1.45263 95.5944 1.30526 94.2617 1.07368C94.2617 0.947368 94.2828 0.715789 94.304 0.568421C96.1444 0.568421 97.9425 0.568421 99.7405 0.568421C104.585 0.547368 109.429 0.547368 114.273 0.48421C118.61 0.421053 122.946 0.48421 127.198 1.51579C130.541 2.3158 133.65 3.57896 136.337 5.76843C139.489 8.3158 141.519 11.579 142.45 15.5158C143.127 18.4 143.148 21.3053 142.937 24.2316C142.683 27.6842 141.985 31.0316 140.652 34.2105C139.594 36.6947 138.198 38.9895 136.4 41.0316C133.333 44.5474 129.504 46.9474 125.146 48.5895C121.889 49.8105 118.525 50.5053 115.077 50.9053C111.037 51.3684 106.996 51.2421 102.956 51.1368C98.5136 51.0316 94.0925 51.0526 89.6501 51.0105C88.2117 50.9684 86.8367 50.9895 85.4405 50.9895ZM114.654 1.93684C112.856 2.10527 111.058 2.27369 109.239 2.44211C108.794 2.48422 108.625 2.67369 108.562 3.1158C108.244 5.05264 107.906 6.98948 107.546 8.90527C106.7 13.7263 105.833 18.5684 104.966 23.3895C104.119 28.2105 103.252 33.0105 102.427 37.8316C102.067 39.8947 100.798 47.0737 100.608 49.1579H102.723H106.742C110.55 49.1579 113.089 49.3684 118.377 48.1053C123.137 46.8842 125.844 44.8631 128.912 41.0105C131.217 38.1053 132.719 34.821 133.65 31.2631C134.581 27.6842 134.898 24.0631 134.835 20.379C134.792 17.6 134.348 14.8842 133.248 12.2947C131.366 7.83159 128.129 4.80001 123.539 3.20001C120.683 2.16843 117.7 1.87368 114.654 1.93684Z" fill="white"/>
<path d="M168.279 51.1789C168.279 51.1789 128.721 51.1789 128.785 51.1368C128.7 50.5474 129.06 50.4632 129.504 50.4211C131.006 50.2947 132.466 50.1053 133.862 49.4947C135.321 48.8632 136.273 47.7684 136.675 46.2737C137.204 44.3158 137.648 42.3368 138.008 40.3368C139.235 33.4947 140.441 26.6316 141.625 19.7895C142.344 15.7263 143.064 11.6842 143.741 7.62105C143.889 6.73684 143.91 5.81053 143.889 4.90526C143.846 3.2421 142.894 2.12632 141.181 1.74737C139.996 1.47368 138.791 1.34737 137.543 1.13684C137.564 0.989474 137.585 0.778947 137.606 0.547368C143.994 0.547368 150.341 0.610526 156.687 0.526316C163.033 0.442105 169.4 0.778947 175.768 0C174.943 4.58947 174.118 9.15789 173.293 13.7684H172.827C172.7 12.8421 172.594 11.8947 172.446 10.9684C172.214 9.53684 171.981 8.10526 171.219 6.82105C170.268 5.2 168.829 4.21053 167.094 3.57895C164.471 2.63158 161.721 2.35789 158.95 2.27368C156.856 2.21053 154.762 2.23158 152.668 2.18947C152.266 2.18947 152.096 2.25263 152.012 2.69474C150.785 9.70526 149.537 16.6947 148.289 23.7053C148.268 23.8526 148.268 24 148.246 24.1895C148.373 24.2105 148.458 24.2316 148.543 24.2316C151.102 24.1474 153.662 24.2105 156.179 23.9368C158.993 23.6421 161.51 22.5474 163.414 20.3368C164.408 19.1789 164.979 17.7895 165.444 16.3368C165.571 15.9158 165.593 15.9158 166.143 16C165.994 16.7368 165.825 17.4526 165.677 18.1895C165.043 21.7474 164.408 25.3053 163.794 28.8421C163.519 30.4 163.287 31.9579 163.075 33.5158C163.012 33.9368 162.843 34.021 162.504 33.9368C162.504 33.2632 162.525 32.5684 162.504 31.8947C162.419 30.3789 162.144 28.9263 160.939 27.8526C159.987 27.0105 158.823 26.6105 157.596 26.4211C156.285 26.2316 154.931 26.0842 153.598 26.0421C151.694 25.9789 149.791 26.0211 147.866 26.0211C147.591 27.5579 147.294 29.0737 147.019 30.5895C146.491 33.5158 145.941 36.4421 145.454 39.3895C145.158 41.2211 144.946 43.0737 145.264 44.9263C145.644 47.1789 146.787 48.3789 149.05 48.8842C151.293 49.3895 153.556 49.3684 155.841 49.3474C157.618 49.3263 159.373 49.1158 161.087 48.5684C163.858 47.7053 165.994 45.9789 167.75 43.7263C169.083 42.021 170.162 40.1684 171.071 38.2105C171.241 37.8316 171.473 37.6421 171.854 37.7895C170.585 42.4632 169.527 46.6316 168.279 51.1789Z" fill="white"/>
</g>
</g>
<defs>
<clipPath id="clip0_2165_43210">
<rect width="176" height="52" fill="white"/>
</clipPath>
</defs>
</svg>
