<svg width="116" height="34" viewBox="0 0 116 34" fill="none" xmlns="http://www.w3.org/2000/svg">
<g clip-path="url(#clip0_2701_8010)">
<mask id="mask0_2701_8010" style="mask-type:luminance" maskUnits="userSpaceOnUse" x="0" y="0" width="116" height="34">
<path d="M115.875 0H0V33.8761H115.875V0Z" fill="white"/>
</mask>
<g mask="url(#mask0_2701_8010)">
<path d="M41.827 33.3392H29.0001C28.9861 32.9537 28.9861 32.9813 29.4183 32.9124C30.1154 32.7886 30.8404 32.6784 31.5097 32.4582C32.5135 32.1416 33.127 31.3845 33.3501 30.3934C33.7126 28.8655 34.0193 27.3238 34.2981 25.7821C34.8001 23.0703 35.2602 20.3448 35.7342 17.6193C36.2361 14.7149 36.752 11.8242 37.2539 8.91975C37.5188 7.44687 37.7837 5.96023 38.0486 4.48736C38.0765 4.36347 38.0904 4.22582 38.1044 4.10193C38.0765 4.08817 38.0486 4.08817 38.0207 4.0744C37.7698 4.48736 37.5188 4.90031 37.2818 5.32703C36.013 7.4744 34.7582 9.62177 33.4895 11.7829C32.3183 13.7788 31.1611 15.7748 29.99 17.7707C28.8328 19.7392 27.6616 21.7076 26.5183 23.6898C25.4448 25.5205 24.3852 27.3513 23.3255 29.1683C22.4472 30.6687 21.5688 32.1691 20.6765 33.6695C20.6068 33.7797 20.4395 33.876 20.3001 33.876C19.8957 33.9035 19.4914 33.8898 19.0592 33.8898C16.3962 24.557 13.7193 15.2242 11.0563 5.90517C11.0284 5.90517 11.0006 5.90517 10.9587 5.91893C10.8472 6.55213 10.7357 7.17157 10.6241 7.80476C10.0664 10.957 9.50873 14.123 8.95104 17.289C8.40729 20.455 7.8496 23.6072 7.33373 26.7732C7.15248 27.9294 7.15248 29.0995 7.43133 30.2558C7.73806 31.4671 8.53277 32.1967 9.70393 32.5133C10.4429 32.706 11.1958 32.8023 11.9486 32.94C12.102 32.9675 12.2693 32.9675 12.4645 32.9813C12.4506 33.1189 12.4366 33.2428 12.4227 33.3529H7.86027e-05C-0.027806 33.0501 0.139501 32.9537 0.446232 32.9262C2.4121 32.7335 3.8621 31.7837 4.78229 30.0355C5.54912 28.5764 5.92556 26.9934 6.21835 25.3967C7.01306 21.0331 7.80777 16.6695 8.54671 12.306C8.92316 10.1035 9.25777 7.90112 9.52268 5.68493C9.63421 4.80396 9.5645 3.89545 9.48085 3.01448C9.36931 1.81691 8.54671 1.10112 7.22219 0.935939C6.6645 0.867113 6.12075 0.825818 5.50729 0.770757C5.52123 0.64687 5.52123 0.495454 5.53518 0.302741H5.91162C8.78373 0.275211 11.628 0.275211 14.4722 0.261445C14.765 0.261445 14.8626 0.357802 14.9323 0.61934C16.2707 5.32703 17.6092 10.021 18.9616 14.7286C20.077 18.6242 21.1784 22.506 22.2799 26.4015C22.4193 26.8695 22.5587 27.3375 22.7121 27.9019C22.9909 27.4477 23.2279 27.0485 23.465 26.6493C24.8034 24.378 26.1279 22.1205 27.4664 19.8493C28.4424 18.1975 29.4044 16.5319 30.3804 14.8801C31.6073 12.774 32.8481 10.6817 34.089 8.57561C35.065 6.92379 36.027 5.25821 37.0029 3.60638C37.6164 2.54647 38.2438 1.48655 38.8712 0.440393C38.913 0.357802 39.0525 0.288976 39.1361 0.288976C41.9943 0.275211 44.8525 0.288976 47.7106 0.288976C47.7385 0.288976 47.7804 0.302741 47.8082 0.316506C47.864 0.633105 47.7804 0.770757 47.4039 0.798287C46.665 0.867113 45.926 0.977235 45.215 1.12865C44.1553 1.34889 43.528 2.06468 43.2491 3.05578C42.9703 4.01934 42.7751 5.01043 42.5938 6.00153C42.1058 8.65821 41.6318 11.3287 41.1578 13.9853C40.5582 17.344 39.9587 20.7027 39.3592 24.0752C39.0804 25.672 38.7736 27.255 38.5227 28.8517C38.439 29.4023 38.4251 29.9667 38.4529 30.5311C38.5227 31.6185 38.8991 32.3068 39.9587 32.6371C40.5722 32.8299 41.9106 33.0363 42.4683 33.0501M31.3563 32.8849C33.1409 32.9124 34.6467 32.0452 35.9991 30.6687C37.6025 29.0444 38.7457 27.0898 39.8611 25.1351C40.9068 23.3043 41.9664 21.4873 43.0121 19.6703C43.9462 18.046 44.8664 16.408 45.8005 14.7837C47.1251 12.4849 48.4496 10.1861 49.7741 7.88736C50.7082 6.27683 51.6145 4.65254 52.5486 3.02825C53.0924 2.09221 53.6361 1.14242 54.1938 0.206385C54.2356 0.123793 54.3332 0.0274371 54.403 0.0274371C55.114 0.0136719 55.8111 0.0136719 56.5361 0.0136719C56.7871 1.32136 57.0241 2.60153 57.2611 3.88169C57.8328 6.95132 58.4044 10.021 58.976 13.0906C59.4501 15.6371 59.9102 18.1699 60.3842 20.7165C60.9419 23.6898 61.4996 26.6493 62.0852 29.6088C62.1967 30.2145 62.4198 30.8064 62.6568 31.3707C63.0472 32.2792 63.814 32.7473 64.776 32.8849C65.027 32.9262 65.2779 32.9537 65.5289 32.9813C65.6265 33.3116 65.501 33.1465 65.1664 33.1327C63.1587 33.0914 61.151 33.3116 59.1433 33.3116C57.1635 33.3116 55.1977 33.3667 53.2179 33.408C53.0924 33.408 52.9669 33.408 52.7996 33.408C52.8135 33.2566 52.8275 33.1465 52.8554 32.9262C53.427 32.9262 53.9847 32.94 54.5563 32.9262C54.9606 32.9124 55.365 32.8711 55.7693 32.8023C56.7034 32.6371 57.0799 32.1141 56.9544 31.2056C56.801 30.1594 56.6337 29.127 56.4664 28.0946C56.1039 25.9473 55.7275 23.7861 55.3789 21.6388C55.3371 21.391 55.2674 21.3084 54.9885 21.2946C53.176 21.2533 51.3635 21.157 49.565 21.157C47.5991 21.1432 45.6472 21.2258 43.6813 21.2396C43.4582 21.2396 43.3746 21.3497 43.2909 21.5011C42.6914 22.5886 42.0779 23.6898 41.4784 24.7772C40.7255 26.1537 39.9448 27.5165 39.2058 28.893C38.9409 29.3886 38.7318 29.9116 38.6063 30.4485C38.4111 31.2331 38.7457 31.8801 39.4568 32.3068C40.2654 32.7886 41.1717 32.9262 42.0919 32.9813C42.2174 32.995 42.3428 32.995 42.4962 33.0088C42.4823 33.1465 42.4683 33.2703 42.4544 33.3667H31.3005M52.4789 5.27197C49.6626 10.255 46.888 15.1554 44.0856 20.1108C47.7943 20.2209 51.4332 20.2898 55.1001 20.0282C54.2356 15.1416 53.3712 10.255 52.4789 5.27197Z" fill="#F8EB00"/>
<path d="M56.3132 33.3393C56.2853 33.0227 56.4805 32.9401 56.7872 32.9264C57.7632 32.8438 58.7392 32.7199 59.6593 32.3345C60.5935 31.9353 61.2348 31.247 61.4997 30.311C61.8901 28.8656 62.2108 27.3928 62.4896 25.9199C63.0055 23.2219 63.4517 20.5102 63.9396 17.7984C64.7065 13.4624 65.4733 9.14013 66.2122 4.8041C66.3377 4.06078 66.4074 3.3037 66.1983 2.56038C65.9752 1.77576 65.4036 1.3215 64.6367 1.14256C63.8281 0.949845 63.0055 0.853488 62.1271 0.702071C62.1271 0.61948 62.1411 0.468063 62.155 0.371707C63.368 0.371707 64.5531 0.371707 65.7382 0.371707C68.931 0.357942 72.1238 0.357942 75.3166 0.316646C78.1747 0.275351 81.0329 0.316646 83.8353 0.99114C86.0382 1.51422 88.0877 2.34013 89.8584 3.77171C91.9358 5.4373 93.2743 7.5709 93.8877 10.145C94.3339 12.0308 94.3478 13.9304 94.2084 15.8438C94.0411 18.1013 93.581 20.2899 92.7026 22.3685C92.0055 23.9928 91.0853 25.4932 89.9002 26.8284C87.8786 29.1272 85.355 30.6964 82.4829 31.7701C80.3358 32.5685 78.119 33.0227 75.8464 33.2843C73.1834 33.5871 70.5204 33.5045 67.8574 33.4357C64.9295 33.3668 62.0156 33.3806 59.0877 33.3531C58.1396 33.3255 57.2334 33.3393 56.3132 33.3393ZM75.5675 1.26644C74.3824 1.37657 73.1973 1.48669 71.9983 1.59681C71.7055 1.62434 71.594 1.74823 71.5521 2.0373C71.343 3.3037 71.1199 4.57009 70.8829 5.82272C70.3252 8.97495 69.7536 12.1409 69.1819 15.2932C68.6242 18.4454 68.0526 21.5838 67.5089 24.7361C67.2718 26.0851 66.4353 30.779 66.3098 32.1417H67.7041H70.3531C72.8627 32.1417 74.5358 32.2794 78.0214 31.4535C81.1584 30.6551 82.943 29.3336 84.9646 26.8146C86.4843 24.915 87.4742 22.7677 88.0877 20.4413C88.7012 18.1013 88.9103 15.7336 88.8685 13.3247C88.8406 11.5077 88.5478 9.73204 87.8228 8.03892C86.5819 5.1207 84.4488 3.13851 81.4233 2.09236C79.5411 1.41787 77.5752 1.22515 75.5675 1.26644Z" fill="#F8EB00"/>
<path d="M110.912 33.4632C110.912 33.4632 84.8394 33.4632 84.8812 33.4356C84.8255 33.0502 85.0625 32.9951 85.3553 32.9676C86.3452 32.885 87.3072 32.7611 88.2274 32.3619C89.1894 31.949 89.8168 31.2332 90.0817 30.2559C90.4303 28.9757 90.7231 27.6818 90.9601 26.3741C91.7687 21.9004 92.5634 17.413 93.3442 12.9393C93.8182 10.2826 94.2923 7.63968 94.7384 4.983C94.836 4.40486 94.85 3.79919 94.836 3.20729C94.8081 2.11984 94.1807 1.39028 93.0514 1.14251C92.2707 0.963563 91.4759 0.880972 90.6533 0.74332C90.6673 0.646964 90.6812 0.509312 90.6952 0.357895C94.9057 0.357895 99.0884 0.39919 103.271 0.34413C107.454 0.289069 111.65 0.509312 115.847 0C115.303 3.00081 114.76 5.98785 114.216 9.00243H113.909C113.825 8.39676 113.756 7.77733 113.658 7.17166C113.505 6.23563 113.351 5.29959 112.849 4.45992C112.222 3.4 111.274 2.75304 110.131 2.34008C108.402 1.72065 106.589 1.5417 104.763 1.48664C103.383 1.44534 102.002 1.45911 100.622 1.43158C100.357 1.43158 100.246 1.47287 100.19 1.76194C99.3812 6.34575 98.5586 10.9158 97.736 15.4996C97.7221 15.596 97.7221 15.6923 97.7082 15.8162C97.7918 15.83 97.8476 15.8437 97.9033 15.8437C99.5904 15.7887 101.277 15.83 102.937 15.651C104.791 15.4583 106.45 14.7425 107.705 13.2972C108.36 12.5401 108.737 11.6316 109.043 10.6818C109.127 10.4065 109.141 10.4065 109.503 10.4615C109.406 10.9433 109.294 11.4113 109.197 11.8931C108.778 14.2194 108.36 16.5457 107.956 18.8583C107.774 19.8769 107.621 20.8955 107.482 21.9142C107.44 22.1895 107.328 22.2445 107.105 22.1895C107.105 21.749 107.119 21.2947 107.105 20.8542C107.049 19.8632 106.868 18.9134 106.074 18.2113C105.446 17.6607 104.679 17.3992 103.871 17.2753C103.006 17.1514 102.114 17.0551 101.236 17.0275C99.9807 16.9862 98.7259 17.0138 97.4572 17.0138C97.2759 18.0186 97.0807 19.0097 96.8995 20.0008C96.5509 21.9142 96.1884 23.8275 95.8678 25.7547C95.6726 26.9522 95.5331 28.1636 95.7423 29.3749C95.9932 30.8478 96.7461 31.6324 98.238 31.9628C99.7158 32.2931 101.208 32.2794 102.713 32.2656C103.885 32.2518 105.042 32.1142 106.171 31.7563C107.998 31.1919 109.406 30.0632 110.563 28.5903C111.441 27.4753 112.152 26.264 112.752 24.9838C112.863 24.736 113.017 24.6121 113.268 24.7085C112.431 27.7644 111.734 30.4899 110.912 33.4632Z" fill="#F8EB00"/>
</g>
</g>
<defs>
<clipPath id="clip0_2701_8010">
<rect width="116" height="34" fill="white"/>
</clipPath>
</defs>
</svg>
