<svg width="29" height="29" viewBox="0 0 29 29" fill="none" xmlns="http://www.w3.org/2000/svg">
<path d="M4.83333 7.25008L12.2134 12.8232L12.2159 12.8253C13.0353 13.4262 13.4453 13.7269 13.8943 13.843C14.2912 13.9457 14.7084 13.9457 15.1053 13.843C15.5548 13.7268 15.966 13.4252 16.7869 12.8232C16.7869 12.8232 21.5205 9.19059 24.1667 7.25008M3.625 19.092V9.90865C3.625 8.55519 3.625 7.87796 3.8884 7.361C4.12009 6.90628 4.48953 6.53684 4.94425 6.30515C5.46121 6.04175 6.13844 6.04175 7.4919 6.04175H21.5086C22.862 6.04175 23.5378 6.04175 24.0548 6.30515C24.5095 6.53684 24.8802 6.90628 25.1119 7.361C25.375 7.87745 25.375 8.55387 25.375 9.90468V19.0961C25.375 20.4469 25.375 21.1223 25.1119 21.6388C24.8802 22.0935 24.5095 22.4636 24.0548 22.6953C23.5383 22.9584 22.8629 22.9584 21.5121 22.9584H7.48793C6.13712 22.9584 5.4607 22.9584 4.94425 22.6953C4.48953 22.4636 4.12009 22.0935 3.8884 21.6388C3.625 21.1218 3.625 20.4454 3.625 19.092Z" stroke="white" stroke-width="2" stroke-linecap="round" stroke-linejoin="round"/>
</svg>
