<svg xmlns="http://www.w3.org/2000/svg" width="29" height="29" viewBox="0 0 29 29" fill="none">
<path d="M11.4821 5.14414C11.1151 4.22663 10.2265 3.625 9.23832 3.625H5.91447C4.65003 3.625 3.625 4.64978 3.625 5.91423C3.625 16.662 12.338 25.375 23.0858 25.375C24.3502 25.375 25.375 24.3499 25.375 23.0854L25.3756 19.761C25.3756 18.7728 24.7741 17.8844 23.8566 17.5174L20.6709 16.2435C19.8467 15.9139 18.9083 16.0622 18.2264 16.6305L17.4043 17.3162C16.444 18.1164 15.0312 18.0528 14.1474 17.1689L11.8323 14.8517C10.9485 13.9679 10.8831 12.5562 11.6833 11.596L12.3689 10.7739C12.9372 10.0919 13.0868 9.15332 12.7572 8.32915L11.4821 5.14414Z" stroke="white" stroke-width="2" stroke-linecap="round" stroke-linejoin="round"/>
</svg>