<svg width="58" height="57" viewBox="0 0 58 57" fill="none" xmlns="http://www.w3.org/2000/svg">
<circle cx="14.5548" cy="14.0548" r="13.0548" stroke="#7D7D7D" stroke-width="2"/>
<path d="M27.6096 42.5546C27.6096 50.0062 21.7391 55.9998 14.5548 55.9998C7.37048 55.9998 1.5 50.0062 1.5 42.5546C1.5 35.103 7.37048 29.1094 14.5548 29.1094C21.7391 29.1094 27.6096 35.103 27.6096 42.5546Z" stroke="#7D7D7D" stroke-width="2"/>
<path d="M56.4998 14.0548C56.4998 21.2391 50.5062 27.1096 43.0546 27.1096C35.603 27.1096 29.6094 21.2391 29.6094 14.0548C29.6094 6.87048 35.603 1 43.0546 1C50.5062 1 56.4998 6.87048 56.4998 14.0548Z" stroke="#7D7D7D" stroke-width="2"/>
<circle cx="43.0546" cy="42.5546" r="13.4452" stroke="#7D7D7D" stroke-width="2"/>
</svg>
