<svg width="173" height="47" viewBox="0 0 173 47" fill="none" xmlns="http://www.w3.org/2000/svg">
<path d="M150.9 8.60035L137.1 22.3996C135.664 23.8357 135.664 26.1642 137.1 27.6003L150.9 41.3996C152.336 42.8357 154.664 42.8357 156.1 41.3996L169.9 27.6003C171.336 26.1642 171.336 23.8357 169.9 22.3996L156.1 8.60035C154.664 7.16421 152.336 7.16421 150.9 8.60035Z" fill="white"/>
<path d="M153.543 35.8818C159.553 35.8818 164.424 31.0099 164.424 25.0002C164.424 18.9904 159.553 14.1185 153.543 14.1185C147.533 14.1185 142.661 18.9904 142.661 25.0002C142.661 31.0099 147.533 35.8818 153.543 35.8818Z" fill="#101010"/>
<path d="M156.762 18.1995H150.419C148.388 18.1995 146.741 19.846 146.741 21.877V28.2206C146.741 30.2516 148.388 31.8981 150.419 31.8981H156.762C158.793 31.8981 160.44 30.2516 160.44 28.2206V21.877C160.44 19.846 158.793 18.1995 156.762 18.1995Z" fill="white"/>
<path d="M153.524 29.7234C156.142 29.7234 158.265 27.6006 158.265 24.982C158.265 22.3633 156.142 20.2405 153.524 20.2405C150.905 20.2405 148.782 22.3633 148.782 24.982C148.782 27.6006 150.905 29.7234 153.524 29.7234Z" fill="#101010"/>
<path d="M152.809 23.6938L152.37 24.1332C151.891 24.6119 151.891 25.3881 152.37 25.8668L152.809 26.3062C153.288 26.785 154.064 26.785 154.543 26.3062L154.982 25.8668C155.461 25.3881 155.461 24.6119 154.982 24.1332L154.543 23.6938C154.064 23.215 153.288 23.215 152.809 23.6938Z" fill="white"/>
<path d="M4.46 34.2313V38.9473H2.246V26.3473C2.87 26.3473 3.548 26.3413 4.28 26.3293C5.012 26.3173 5.612 26.3113 6.08 26.3113C9.128 26.3113 10.652 27.6073 10.652 30.1993C10.652 31.1593 10.406 31.9513 9.914 32.5753C9.422 33.1753 8.858 33.5833 8.222 33.7993L12.164 38.9473H9.482L6.008 34.2313H4.46ZM5.972 28.3813C5.912 28.3813 5.816 28.3873 5.684 28.3993C5.552 28.3993 5.366 28.4053 5.126 28.4173C4.886 28.4173 4.664 28.4173 4.46 28.4173V32.1613H5.9C6.608 32.1613 7.184 31.9873 7.628 31.6393C8.084 31.2913 8.312 30.8173 8.312 30.2173C8.312 28.9933 7.532 28.3813 5.972 28.3813ZM19.1154 36.6793L19.7094 38.1373C18.9054 38.8093 17.8734 39.1453 16.6134 39.1453C15.3174 39.1453 14.2614 38.7553 13.4454 37.9753C12.6534 37.2073 12.2574 36.1813 12.2574 34.8973C12.2574 33.6973 12.6474 32.6893 13.4274 31.8733C14.2074 31.0573 15.2454 30.6493 16.5414 30.6493C17.6094 30.6493 18.5154 31.0033 19.2594 31.7113C20.0034 32.4193 20.3754 33.3193 20.3754 34.4113C20.3754 34.8913 20.3334 35.2633 20.2494 35.5273H14.3994C14.4834 36.1153 14.7414 36.5773 15.1734 36.9133C15.6174 37.2493 16.1694 37.4173 16.8294 37.4173C17.7294 37.4173 18.4914 37.1713 19.1154 36.6793ZM16.4514 32.3773C15.2754 32.3773 14.5674 32.9653 14.3274 34.1413H18.3054C18.3174 33.6253 18.1494 33.2053 17.8014 32.8813C17.4654 32.5453 17.0154 32.3773 16.4514 32.3773ZM29.7659 42.5473H27.6959V38.5333C27.0719 38.9413 26.4059 39.1453 25.6979 39.1453C24.4139 39.1453 23.3879 38.7613 22.6199 37.9933C21.8639 37.2133 21.4859 36.1813 21.4859 34.8973C21.4859 33.6853 21.9239 32.6773 22.7999 31.8733C23.6879 31.0573 24.7979 30.6493 26.1299 30.6493C27.5219 30.6493 28.7339 30.9733 29.7659 31.6213V42.5473ZM25.9679 37.2193C26.6639 37.2193 27.2399 36.9733 27.6959 36.4813V32.9893C27.1559 32.7253 26.6279 32.5933 26.1119 32.5933C25.3679 32.5933 24.7799 32.8213 24.3479 33.2773C23.9159 33.7213 23.6999 34.2913 23.6999 34.9873C23.6999 35.6353 23.9039 36.1693 24.3119 36.5893C24.7319 37.0093 25.2839 37.2193 25.9679 37.2193ZM37.3006 30.8473H39.3706V38.9473H37.3006V37.9573C36.6526 38.7493 35.7886 39.1453 34.7086 39.1453C33.8446 39.1453 33.1546 38.8573 32.6386 38.2813C32.1226 37.7053 31.8646 36.8773 31.8646 35.7973V30.8473H33.9346V35.3653C33.9346 36.6013 34.4506 37.2193 35.4826 37.2193C36.1906 37.2193 36.7966 36.8893 37.3006 36.2293V30.8473ZM48.0314 36.6793L48.6254 38.1373C47.8214 38.8093 46.7894 39.1453 45.5294 39.1453C44.2334 39.1453 43.1774 38.7553 42.3614 37.9753C41.5694 37.2073 41.1734 36.1813 41.1734 34.8973C41.1734 33.6973 41.5634 32.6893 42.3434 31.8733C43.1234 31.0573 44.1614 30.6493 45.4574 30.6493C46.5254 30.6493 47.4314 31.0033 48.1754 31.7113C48.9194 32.4193 49.2914 33.3193 49.2914 34.4113C49.2914 34.8913 49.2494 35.2633 49.1654 35.5273H43.3154C43.3994 36.1153 43.6574 36.5773 44.0894 36.9133C44.5334 37.2493 45.0854 37.4173 45.7454 37.4173C46.6454 37.4173 47.4074 37.1713 48.0314 36.6793ZM45.3674 32.3773C44.1914 32.3773 43.4834 32.9653 43.2434 34.1413H47.2214C47.2334 33.6253 47.0654 33.2053 46.7174 32.8813C46.3814 32.5453 45.9314 32.3773 45.3674 32.3773ZM50.6886 33.1153C50.6886 32.3593 50.9646 31.7593 51.5166 31.3153C52.0686 30.8713 52.7826 30.6493 53.6586 30.6493C54.9786 30.6493 56.0046 30.9913 56.7366 31.6753L55.9626 33.1513C55.3026 32.6353 54.5706 32.3773 53.7666 32.3773C53.4786 32.3773 53.2386 32.4493 53.0466 32.5933C52.8546 32.7253 52.7586 32.8873 52.7586 33.0793C52.7586 33.4753 53.2686 33.8053 54.2886 34.0693C54.6606 34.1533 54.9906 34.2493 55.2786 34.3573C55.5666 34.4533 55.8606 34.5973 56.1606 34.7893C56.4726 34.9693 56.7126 35.2093 56.8806 35.5093C57.0486 35.8093 57.1326 36.1573 57.1326 36.5533C57.1326 37.3453 56.8326 37.9753 56.2326 38.4433C55.6446 38.9113 54.8526 39.1453 53.8566 39.1453C53.1486 39.1453 52.4586 38.9953 51.7866 38.6953C51.1026 38.3833 50.6646 38.0713 50.4726 37.7593L51.4806 36.4093C51.7086 36.6853 52.0866 36.9193 52.6146 37.1113C53.1546 37.3153 53.6166 37.4173 54.0006 37.4173C54.4686 37.4653 54.7986 37.3153 54.9906 36.9673C55.1826 36.6073 55.0566 36.3133 54.6126 36.0853C54.4326 35.9893 54.1506 35.8873 53.7666 35.7793C53.3946 35.6713 53.0466 35.5633 52.7226 35.4553C52.4106 35.3353 52.0866 35.1853 51.7506 35.0053C51.4266 34.8253 51.1686 34.5793 50.9766 34.2673C50.7846 33.9433 50.6886 33.5593 50.6886 33.1153ZM58.7767 35.8693V28.5973H60.8467V30.8473H63.4567V32.7913H60.8467V35.7433C60.8467 36.7153 61.1707 37.2013 61.8187 37.2013C62.2267 37.2013 62.6407 37.0453 63.0607 36.7333L63.6907 38.3353C63.0307 38.8633 62.2327 39.1273 61.2967 39.1273C60.4207 39.1273 59.7787 38.8633 59.3707 38.3353C58.9747 37.7953 58.7767 36.9733 58.7767 35.8693ZM70.1494 38.9473H69.9964V27.0473H70.1834C70.6707 27.0473 71.124 27.0416 71.5434 27.0303C72.382 27.0076 72.8807 26.9963 73.0394 26.9963C74.184 26.9963 75.1927 27.1549 76.0654 27.4723C76.9494 27.7783 77.652 28.2089 78.1734 28.7643C78.6947 29.3083 79.08 29.9259 79.3294 30.6173C79.59 31.2973 79.7204 32.0339 79.7204 32.8273C79.7204 34.6179 79.1254 36.0913 77.9354 37.2473C76.7567 38.4033 75.0794 38.9813 72.9034 38.9813C72.416 38.9813 71.9684 38.9756 71.5604 38.9643C71.1524 38.9529 70.682 38.9473 70.1494 38.9473ZM73.0054 27.8803C72.756 27.8803 72.3877 27.8916 71.9004 27.9143C71.4244 27.9256 71.1014 27.9313 70.9314 27.9313V38.0633C71.3054 38.0633 71.6567 38.0689 71.9854 38.0803C72.314 38.0803 72.552 38.0859 72.6994 38.0973C72.8467 38.0973 72.926 38.0973 72.9374 38.0973C74.7847 38.0973 76.2127 37.6099 77.2214 36.6353C78.23 35.6493 78.7344 34.3799 78.7344 32.8273C78.7344 31.3653 78.2527 30.1753 77.2894 29.2573C76.3147 28.3393 74.8867 27.8803 73.0054 27.8803ZM87.9555 37.3323L88.2445 38.0123C87.5532 38.7376 86.6125 39.1003 85.4225 39.1003C84.1985 39.1003 83.2182 38.7376 82.4815 38.0123C81.7335 37.2869 81.3595 36.3236 81.3595 35.1223C81.3595 33.9663 81.6995 33.0143 82.3795 32.2663C83.0709 31.5183 84.0229 31.1443 85.2355 31.1443C86.2215 31.1443 87.0489 31.4616 87.7175 32.0963C88.3749 32.7196 88.7035 33.5526 88.7035 34.5953C88.7035 34.8673 88.6865 35.1053 88.6525 35.3093H82.3455C82.3795 36.2273 82.6799 36.9526 83.2465 37.4853C83.8132 38.0066 84.5555 38.2673 85.4735 38.2673C86.5389 38.2673 87.3662 37.9556 87.9555 37.3323ZM85.1505 31.9773C84.3345 31.9773 83.6715 32.2153 83.1615 32.6913C82.6629 33.1673 82.3739 33.7963 82.2945 34.5783H87.8025C87.7912 33.7736 87.5475 33.1389 87.0715 32.6743C86.5955 32.2096 85.9552 31.9773 85.1505 31.9773ZM94.7796 36.9413C94.7796 36.5899 94.6323 36.3066 94.3376 36.0913C94.0543 35.8759 93.7029 35.7059 93.2836 35.5813C92.8756 35.4566 92.4619 35.3206 92.0426 35.1733C91.6233 35.0146 91.2663 34.7709 90.9716 34.4423C90.6883 34.1023 90.5466 33.6773 90.5466 33.1673C90.5466 32.5553 90.7733 32.0679 91.2266 31.7053C91.6799 31.3313 92.2749 31.1443 93.0116 31.1443C94.0656 31.1443 94.8646 31.4276 95.4086 31.9943L95.0346 32.6573C94.5133 32.1699 93.8446 31.9263 93.0286 31.9263C92.5753 31.9263 92.2013 32.0453 91.9066 32.2833C91.6233 32.5099 91.4816 32.7989 91.4816 33.1503C91.4816 33.5129 91.6233 33.8133 91.9066 34.0513C92.2013 34.2779 92.5526 34.4593 92.9606 34.5953C93.3799 34.7199 93.7993 34.8559 94.2186 35.0033C94.6379 35.1506 94.9893 35.3829 95.2726 35.7003C95.5673 36.0176 95.7146 36.4199 95.7146 36.9073C95.7146 37.5986 95.4539 38.1369 94.9326 38.5223C94.4226 38.9076 93.7653 39.1003 92.9606 39.1003C92.4619 39.1003 91.9406 38.9869 91.3966 38.7603C90.8866 38.5449 90.5353 38.2899 90.3426 37.9953L90.8356 37.4173C91.0509 37.6779 91.3739 37.8933 91.8046 38.0633C92.2466 38.2333 92.6659 38.3183 93.0626 38.3183C93.5613 38.3183 93.9693 38.1993 94.2866 37.9613C94.6153 37.7119 94.7796 37.3719 94.7796 36.9413ZM99.2331 38.9473H98.3491V31.2973H99.2331V38.9473ZM98.1961 28.3223C98.1961 28.1523 98.2584 28.0163 98.3831 27.9143C98.5077 27.8123 98.6551 27.7613 98.8251 27.7613C98.9724 27.7613 99.1027 27.8179 99.2161 27.9313C99.3407 28.0333 99.4031 28.1636 99.4031 28.3223C99.4031 28.5149 99.3464 28.6679 99.2331 28.7813C99.1311 28.8946 98.9951 28.9513 98.8251 28.9513C98.6437 28.9513 98.4907 28.8946 98.3661 28.7813C98.2527 28.6679 98.1961 28.5149 98.1961 28.3223ZM101.252 40.0693C101.252 39.4913 101.456 39.0039 101.864 38.6073C102.272 38.2106 102.85 37.9329 103.598 37.7743C103.428 37.5703 103.343 37.3266 103.343 37.0433C103.343 36.7599 103.439 36.5049 103.632 36.2783C103.133 36.0629 102.742 35.7399 102.459 35.3093C102.175 34.8786 102.034 34.3913 102.034 33.8473C102.034 33.0653 102.311 32.4193 102.867 31.9093C103.422 31.3993 104.153 31.1443 105.06 31.1443C105.785 31.1443 106.425 31.3369 106.981 31.7223H106.998L109.174 31.1443V31.9773L107.627 32.3683C107.933 32.8329 108.086 33.3259 108.086 33.8473C108.086 34.6066 107.802 35.2526 107.236 35.7853C106.669 36.2953 105.944 36.5503 105.06 36.5503C104.742 36.5503 104.487 36.5276 104.295 36.4823C104.193 36.6296 104.142 36.8166 104.142 37.0433C104.142 37.3039 104.215 37.5079 104.363 37.6553C104.793 37.6326 105.031 37.6213 105.077 37.6213C106.244 37.6213 107.173 37.8366 107.865 38.2673C108.556 38.6979 108.902 39.2986 108.902 40.0693C108.902 40.8286 108.556 41.4179 107.865 41.8373C107.173 42.2679 106.244 42.4833 105.077 42.4833C103.898 42.4833 102.963 42.2736 102.272 41.8543C101.592 41.4349 101.252 40.8399 101.252 40.0693ZM102.153 40.0693C102.153 40.5679 102.413 40.9589 102.935 41.2423C103.467 41.5369 104.181 41.6843 105.077 41.6843C105.961 41.6843 106.669 41.5369 107.202 41.2423C107.734 40.9476 108.001 40.5566 108.001 40.0693C108.001 39.5706 107.734 39.1739 107.202 38.8793C106.68 38.5733 105.972 38.4203 105.077 38.4203C104.193 38.4203 103.484 38.5676 102.952 38.8623C102.419 39.1569 102.153 39.5593 102.153 40.0693ZM103.53 32.4873C103.133 32.8499 102.935 33.3033 102.935 33.8473C102.935 34.3913 103.133 34.8446 103.53 35.2073C103.926 35.5699 104.436 35.7513 105.06 35.7513C105.683 35.7513 106.193 35.5699 106.59 35.2073C106.986 34.8446 107.185 34.3913 107.185 33.8473C107.185 33.3033 106.981 32.8499 106.573 32.4873C106.176 32.1246 105.672 31.9433 105.06 31.9433C104.459 31.9433 103.949 32.1246 103.53 32.4873ZM111.575 38.9473H110.691V31.2973H111.575V32.3683C111.892 32.0169 112.3 31.7279 112.799 31.5013C113.309 31.2746 113.819 31.1613 114.329 31.1613C115.394 31.1613 116.193 31.4389 116.726 31.9943C117.258 32.5496 117.525 33.4109 117.525 34.5783V38.9473H116.641V34.7483C116.641 32.9123 115.802 31.9943 114.125 31.9943C113.637 31.9943 113.161 32.1076 112.697 32.3343C112.232 32.5496 111.858 32.8273 111.575 33.1673V38.9473Z" fill="white"/>
<path d="M23.764 5.8C24.7987 5.8 25.6573 6.14667 26.34 6.84C27.0333 7.52267 27.38 8.376 27.38 9.4C27.38 10.4133 27.0333 11.2667 26.34 11.96C25.6573 12.6533 24.7987 13 23.764 13H21.188V17H19.7V5.8H23.764ZM23.764 11.608C24.3827 11.608 24.8947 11.4 25.3 10.984C25.7053 10.5573 25.908 10.0293 25.908 9.4C25.908 8.76 25.7053 8.232 25.3 7.816C24.8947 7.4 24.3827 7.192 23.764 7.192H21.188V11.608H23.764ZM35.0081 9H36.4001V17H35.0081V15.624C34.3148 16.68 33.3068 17.208 31.9841 17.208C30.8641 17.208 29.9095 16.8027 29.1201 15.992C28.3308 15.1707 27.9361 14.1733 27.9361 13C27.9361 11.8267 28.3308 10.8347 29.1201 10.024C29.9095 9.20267 30.8641 8.792 31.9841 8.792C33.3068 8.792 34.3148 9.32 35.0081 10.376V9ZM32.1601 15.864C32.9708 15.864 33.6481 15.592 34.1921 15.048C34.7361 14.4933 35.0081 13.8107 35.0081 13C35.0081 12.1893 34.7361 11.512 34.1921 10.968C33.6481 10.4133 32.9708 10.136 32.1601 10.136C31.3601 10.136 30.6881 10.4133 30.1441 10.968C29.6001 11.512 29.3281 12.1893 29.3281 13C29.3281 13.8107 29.6001 14.4933 30.1441 15.048C30.6881 15.592 31.3601 15.864 32.1601 15.864ZM42.8291 12.904C43.7145 13.2667 44.1571 13.9013 44.1571 14.808C44.1571 15.48 43.8905 16.0507 43.3571 16.52C42.8238 16.9787 42.0665 17.208 41.0851 17.208C39.4851 17.208 38.4131 16.568 37.8691 15.288L39.0371 14.6C39.3465 15.4747 40.0345 15.912 41.1011 15.912C41.6345 15.912 42.0451 15.8 42.3331 15.576C42.6318 15.3413 42.7811 15.0427 42.7811 14.68C42.7811 14.36 42.6585 14.0987 42.4131 13.896C42.1785 13.6933 41.8585 13.592 41.4531 13.592H40.2851V12.328H41.1491C41.5545 12.328 41.8691 12.232 42.0931 12.04C42.3171 11.8373 42.4291 11.5653 42.4291 11.224C42.4291 10.8827 42.2958 10.6053 42.0291 10.392C41.7731 10.1787 41.4158 10.072 40.9571 10.072C40.0611 10.072 39.4531 10.4507 39.1331 11.208L37.9971 10.552C38.5625 9.37867 39.5491 8.792 40.9571 8.792C41.8318 8.792 42.5198 9.016 43.0211 9.464C43.5331 9.912 43.7891 10.4613 43.7891 11.112C43.7891 11.9227 43.4691 12.52 42.8291 12.904ZM50.0814 8.792C51.2014 8.792 52.156 9.20267 52.9454 10.024C53.7347 10.8347 54.1294 11.8267 54.1294 13C54.1294 14.1733 53.7347 15.1707 52.9454 15.992C52.156 16.8027 51.2014 17.208 50.0814 17.208C48.7587 17.208 47.7507 16.68 47.0574 15.624V20.2H45.6654V9H47.0574V10.376C47.7507 9.32 48.7587 8.792 50.0814 8.792ZM49.9054 15.864C50.7054 15.864 51.3774 15.592 51.9214 15.048C52.4654 14.4933 52.7374 13.8107 52.7374 13C52.7374 12.1893 52.4654 11.512 51.9214 10.968C51.3774 10.4133 50.7054 10.136 49.9054 10.136C49.0947 10.136 48.4174 10.4133 47.8734 10.968C47.3294 11.512 47.0574 12.1893 47.0574 13C47.0574 13.8107 47.3294 14.4933 47.8734 15.048C48.4174 15.592 49.0947 15.864 49.9054 15.864ZM62.4144 9H63.8064V17H62.4144V15.624C61.721 16.68 60.713 17.208 59.3904 17.208C58.2704 17.208 57.3157 16.8027 56.5264 15.992C55.737 15.1707 55.3424 14.1733 55.3424 13C55.3424 11.8267 55.737 10.8347 56.5264 10.024C57.3157 9.20267 58.2704 8.792 59.3904 8.792C60.713 8.792 61.721 9.32 62.4144 10.376V9ZM59.5664 15.864C60.377 15.864 61.0544 15.592 61.5984 15.048C62.1424 14.4933 62.4144 13.8107 62.4144 13C62.4144 12.1893 62.1424 11.512 61.5984 10.968C61.0544 10.4133 60.377 10.136 59.5664 10.136C58.7664 10.136 58.0944 10.4133 57.5504 10.968C57.0064 11.512 56.7344 12.1893 56.7344 13C56.7344 13.8107 57.0064 14.4933 57.5504 15.048C58.0944 15.592 58.7664 15.864 59.5664 15.864ZM69.5474 17.208C68.3634 17.208 67.3874 16.8187 66.6194 16.04C65.8514 15.2613 65.4674 14.2587 65.4674 13.032C65.4674 11.6667 65.6647 10.616 66.0594 9.88C66.4647 9.144 67.286 8.47733 68.5234 7.88C68.7474 7.77333 69.0514 7.63467 69.4354 7.464C69.83 7.29333 70.118 7.16533 70.2994 7.08C70.4807 6.984 70.6834 6.86133 70.9074 6.712C71.1314 6.552 71.2967 6.38133 71.4034 6.2C71.5207 6.008 71.606 5.78933 71.6594 5.544L72.7794 6.184C72.7474 6.35467 72.7047 6.51467 72.6514 6.664C72.598 6.80267 72.518 6.94133 72.4114 7.08C72.3154 7.208 72.23 7.32 72.1554 7.416C72.0807 7.512 71.9527 7.61867 71.7714 7.736C71.6007 7.84267 71.4727 7.92267 71.3874 7.976C71.3127 8.02933 71.158 8.10933 70.9234 8.216C70.6994 8.32267 70.5447 8.39733 70.4594 8.44C70.3847 8.472 70.2087 8.54667 69.9314 8.664C69.654 8.77067 69.4834 8.84 69.4194 8.872C68.694 9.18133 68.1607 9.496 67.8194 9.816C67.4887 10.136 67.2487 10.5413 67.0994 11.032C67.4407 10.6053 67.8674 10.2907 68.3794 10.088C68.8914 9.88533 69.4034 9.784 69.9154 9.784C70.918 9.784 71.766 10.1253 72.4594 10.808C73.1634 11.4907 73.5154 12.3707 73.5154 13.448C73.5154 14.536 73.142 15.4373 72.3954 16.152C71.6487 16.856 70.6994 17.208 69.5474 17.208ZM67.6754 15.16C68.1767 15.6293 68.8007 15.864 69.5474 15.864C70.294 15.864 70.9074 15.6347 71.3874 15.176C71.878 14.7173 72.1234 14.1413 72.1234 13.448C72.1234 12.7333 71.8887 12.152 71.4194 11.704C70.9607 11.2453 70.3527 11.016 69.5954 11.016C68.9127 11.016 68.294 11.2347 67.7394 11.672C67.1954 12.0987 66.9234 12.664 66.9234 13.368C66.9234 14.0933 67.174 14.6907 67.6754 15.16ZM81.7455 15.992C80.9242 16.8027 79.9268 17.208 78.7535 17.208C77.5802 17.208 76.5828 16.8027 75.7615 15.992C74.9508 15.1813 74.5455 14.184 74.5455 13C74.5455 11.816 74.9508 10.8187 75.7615 10.008C76.5828 9.19733 77.5802 8.792 78.7535 8.792C79.9268 8.792 80.9242 9.19733 81.7455 10.008C82.5668 10.8187 82.9775 11.816 82.9775 13C82.9775 14.184 82.5668 15.1813 81.7455 15.992ZM78.7535 15.848C79.5535 15.848 80.2255 15.576 80.7695 15.032C81.3135 14.488 81.5855 13.8107 81.5855 13C81.5855 12.1893 81.3135 11.512 80.7695 10.968C80.2255 10.424 79.5535 10.152 78.7535 10.152C77.9642 10.152 77.2975 10.424 76.7535 10.968C76.2095 11.512 75.9375 12.1893 75.9375 13C75.9375 13.8107 76.2095 14.488 76.7535 15.032C77.2975 15.576 77.9642 15.848 78.7535 15.848ZM90.258 9V10.344H87.538V17H86.146V10.344H83.41V9H90.258ZM97.7894 9H99.1814V17H97.7894V15.624C97.096 16.68 96.088 17.208 94.7654 17.208C93.6454 17.208 92.6907 16.8027 91.9014 15.992C91.112 15.1707 90.7174 14.1733 90.7174 13C90.7174 11.8267 91.112 10.8347 91.9014 10.024C92.6907 9.20267 93.6454 8.792 94.7654 8.792C96.088 8.792 97.096 9.32 97.7894 10.376V9ZM94.9414 15.864C95.752 15.864 96.4294 15.592 96.9734 15.048C97.5174 14.4933 97.7894 13.8107 97.7894 13C97.7894 12.1893 97.5174 11.512 96.9734 10.968C96.4294 10.4133 95.752 10.136 94.9414 10.136C94.1414 10.136 93.4694 10.4133 92.9254 10.968C92.3814 11.512 92.1094 12.1893 92.1094 13C92.1094 13.8107 92.3814 14.4933 92.9254 15.048C93.4694 15.592 94.1414 15.864 94.9414 15.864ZM106.826 9H108.218V17H106.826V13.656H102.682V17H101.29V9H102.682V12.328H106.826V9ZM117.089 15.992C116.268 16.8027 115.271 17.208 114.097 17.208C112.924 17.208 111.927 16.8027 111.105 15.992C110.295 15.1813 109.889 14.184 109.889 13C109.889 11.816 110.295 10.8187 111.105 10.008C111.927 9.19733 112.924 8.792 114.097 8.792C115.271 8.792 116.268 9.19733 117.089 10.008C117.911 10.8187 118.321 11.816 118.321 13C118.321 14.184 117.911 15.1813 117.089 15.992ZM114.097 15.848C114.897 15.848 115.569 15.576 116.113 15.032C116.657 14.488 116.929 13.8107 116.929 13C116.929 12.1893 116.657 11.512 116.113 10.968C115.569 10.424 114.897 10.152 114.097 10.152C113.308 10.152 112.641 10.424 112.097 10.968C111.553 11.512 111.281 12.1893 111.281 13C111.281 13.8107 111.553 14.488 112.097 15.032C112.641 15.576 113.308 15.848 114.097 15.848Z" fill="white"/>
</svg>
