<svg width="172" height="47" viewBox="0 0 172 47" fill="none" xmlns="http://www.w3.org/2000/svg">
<path d="M150.4 8.60039L136.6 22.3996C135.164 23.8358 135.164 26.1642 136.6 27.6004L150.4 41.3996C151.836 42.8358 154.164 42.8358 155.6 41.3996L169.4 27.6004C170.836 26.1642 170.836 23.8358 169.4 22.3996L155.6 8.60038C154.164 7.16424 151.836 7.16424 150.4 8.60039Z" fill="white"/>
<path d="M153.043 35.8818C159.053 35.8818 163.924 31.0099 163.924 25.0002C163.924 18.9904 159.053 14.1185 153.043 14.1185C147.033 14.1185 142.161 18.9904 142.161 25.0002C142.161 31.0099 147.033 35.8818 153.043 35.8818Z" fill="#101010"/>
<path d="M156.262 18.1995H149.919C147.888 18.1995 146.241 19.846 146.241 21.877V28.2206C146.241 30.2516 147.888 31.8981 149.919 31.8981H156.262C158.293 31.8981 159.94 30.2516 159.94 28.2206V21.877C159.94 19.846 158.293 18.1995 156.262 18.1995Z" fill="white"/>
<path d="M153.024 29.7234C155.642 29.7234 157.765 27.6006 157.765 24.982C157.765 22.3633 155.642 20.2405 153.024 20.2405C150.405 20.2405 148.282 22.3633 148.282 24.982C148.282 27.6006 150.405 29.7234 153.024 29.7234Z" fill="#101010"/>
<path d="M152.309 23.6938L151.87 24.1332C151.391 24.6119 151.391 25.3881 151.87 25.8668L152.309 26.3062C152.788 26.785 153.564 26.785 154.043 26.3062L154.482 25.8668C154.961 25.3881 154.961 24.6119 154.482 24.1332L154.043 23.6938C153.564 23.215 152.788 23.215 152.309 23.6938Z" fill="white"/>
<path d="M3.96 34.2313V38.9473H1.746V26.3473C2.37 26.3473 3.048 26.3413 3.78 26.3293C4.512 26.3173 5.112 26.3113 5.58 26.3113C8.628 26.3113 10.152 27.6073 10.152 30.1993C10.152 31.1593 9.906 31.9513 9.414 32.5753C8.922 33.1753 8.358 33.5833 7.722 33.7993L11.664 38.9473H8.982L5.508 34.2313H3.96ZM5.472 28.3813C5.412 28.3813 5.316 28.3873 5.184 28.3993C5.052 28.3993 4.866 28.4053 4.626 28.4173C4.386 28.4173 4.164 28.4173 3.96 28.4173V32.1613H5.4C6.108 32.1613 6.684 31.9873 7.128 31.6393C7.584 31.2913 7.812 30.8173 7.812 30.2173C7.812 28.9933 7.032 28.3813 5.472 28.3813ZM18.6154 36.6793L19.2094 38.1373C18.4054 38.8093 17.3734 39.1453 16.1134 39.1453C14.8174 39.1453 13.7614 38.7553 12.9454 37.9753C12.1534 37.2073 11.7574 36.1813 11.7574 34.8973C11.7574 33.6973 12.1474 32.6893 12.9274 31.8733C13.7074 31.0573 14.7454 30.6493 16.0414 30.6493C17.1094 30.6493 18.0154 31.0033 18.7594 31.7113C19.5034 32.4193 19.8754 33.3193 19.8754 34.4113C19.8754 34.8913 19.8334 35.2633 19.7494 35.5273H13.8994C13.9834 36.1153 14.2414 36.5773 14.6734 36.9133C15.1174 37.2493 15.6694 37.4173 16.3294 37.4173C17.2294 37.4173 17.9914 37.1713 18.6154 36.6793ZM15.9514 32.3773C14.7754 32.3773 14.0674 32.9653 13.8274 34.1413H17.8054C17.8174 33.6253 17.6494 33.2053 17.3014 32.8813C16.9654 32.5453 16.5154 32.3773 15.9514 32.3773ZM29.2659 42.5473H27.1959V38.5333C26.5719 38.9413 25.9059 39.1453 25.1979 39.1453C23.9139 39.1453 22.8879 38.7613 22.1199 37.9933C21.3639 37.2133 20.9859 36.1813 20.9859 34.8973C20.9859 33.6853 21.4239 32.6773 22.2999 31.8733C23.1879 31.0573 24.2979 30.6493 25.6299 30.6493C27.0219 30.6493 28.2339 30.9733 29.2659 31.6213V42.5473ZM25.4679 37.2193C26.1639 37.2193 26.7399 36.9733 27.1959 36.4813V32.9893C26.6559 32.7253 26.1279 32.5933 25.6119 32.5933C24.8679 32.5933 24.2799 32.8213 23.8479 33.2773C23.4159 33.7213 23.1999 34.2913 23.1999 34.9873C23.1999 35.6353 23.4039 36.1693 23.8119 36.5893C24.2319 37.0093 24.7839 37.2193 25.4679 37.2193ZM36.8006 30.8473H38.8706V38.9473H36.8006V37.9573C36.1526 38.7493 35.2886 39.1453 34.2086 39.1453C33.3446 39.1453 32.6546 38.8573 32.1386 38.2813C31.6226 37.7053 31.3646 36.8773 31.3646 35.7973V30.8473H33.4346V35.3653C33.4346 36.6013 33.9506 37.2193 34.9826 37.2193C35.6906 37.2193 36.2966 36.8893 36.8006 36.2293V30.8473ZM47.5314 36.6793L48.1254 38.1373C47.3214 38.8093 46.2894 39.1453 45.0294 39.1453C43.7334 39.1453 42.6774 38.7553 41.8614 37.9753C41.0694 37.2073 40.6734 36.1813 40.6734 34.8973C40.6734 33.6973 41.0634 32.6893 41.8434 31.8733C42.6234 31.0573 43.6614 30.6493 44.9574 30.6493C46.0254 30.6493 46.9314 31.0033 47.6754 31.7113C48.4194 32.4193 48.7914 33.3193 48.7914 34.4113C48.7914 34.8913 48.7494 35.2633 48.6654 35.5273H42.8154C42.8994 36.1153 43.1574 36.5773 43.5894 36.9133C44.0334 37.2493 44.5854 37.4173 45.2454 37.4173C46.1454 37.4173 46.9074 37.1713 47.5314 36.6793ZM44.8674 32.3773C43.6914 32.3773 42.9834 32.9653 42.7434 34.1413H46.7214C46.7334 33.6253 46.5654 33.2053 46.2174 32.8813C45.8814 32.5453 45.4314 32.3773 44.8674 32.3773ZM50.1886 33.1153C50.1886 32.3593 50.4646 31.7593 51.0166 31.3153C51.5686 30.8713 52.2826 30.6493 53.1586 30.6493C54.4786 30.6493 55.5046 30.9913 56.2366 31.6753L55.4626 33.1513C54.8026 32.6353 54.0706 32.3773 53.2666 32.3773C52.9786 32.3773 52.7386 32.4493 52.5466 32.5933C52.3546 32.7253 52.2586 32.8873 52.2586 33.0793C52.2586 33.4753 52.7686 33.8053 53.7886 34.0693C54.1606 34.1533 54.4906 34.2493 54.7786 34.3573C55.0666 34.4533 55.3606 34.5973 55.6606 34.7893C55.9726 34.9693 56.2126 35.2093 56.3806 35.5093C56.5486 35.8093 56.6326 36.1573 56.6326 36.5533C56.6326 37.3453 56.3326 37.9753 55.7326 38.4433C55.1446 38.9113 54.3526 39.1453 53.3566 39.1453C52.6486 39.1453 51.9586 38.9953 51.2866 38.6953C50.6026 38.3833 50.1646 38.0713 49.9726 37.7593L50.9806 36.4093C51.2086 36.6853 51.5866 36.9193 52.1146 37.1113C52.6546 37.3153 53.1166 37.4173 53.5006 37.4173C53.9686 37.4653 54.2986 37.3153 54.4906 36.9673C54.6826 36.6073 54.5566 36.3133 54.1126 36.0853C53.9326 35.9893 53.6506 35.8873 53.2666 35.7793C52.8946 35.6713 52.5466 35.5633 52.2226 35.4553C51.9106 35.3353 51.5866 35.1853 51.2506 35.0053C50.9266 34.8253 50.6686 34.5793 50.4766 34.2673C50.2846 33.9433 50.1886 33.5593 50.1886 33.1153ZM58.2767 35.8693V28.5973H60.3467V30.8473H62.9567V32.7913H60.3467V35.7433C60.3467 36.7153 60.6707 37.2013 61.3187 37.2013C61.7267 37.2013 62.1407 37.0453 62.5607 36.7333L63.1907 38.3353C62.5307 38.8633 61.7327 39.1273 60.7967 39.1273C59.9207 39.1273 59.2787 38.8633 58.8707 38.3353C58.4747 37.7953 58.2767 36.9733 58.2767 35.8693ZM69.6494 38.9473H69.4964V27.0473H69.6834C70.1707 27.0473 70.624 27.0416 71.0434 27.0303C71.882 27.0076 72.3807 26.9963 72.5394 26.9963C73.684 26.9963 74.6927 27.1549 75.5654 27.4723C76.4494 27.7783 77.152 28.2089 77.6734 28.7643C78.1947 29.3083 78.58 29.9259 78.8294 30.6173C79.09 31.2973 79.2204 32.0339 79.2204 32.8273C79.2204 34.6179 78.6254 36.0913 77.4354 37.2473C76.2567 38.4033 74.5794 38.9813 72.4034 38.9813C71.916 38.9813 71.4684 38.9756 71.0604 38.9643C70.6524 38.9529 70.182 38.9473 69.6494 38.9473ZM72.5054 27.8803C72.256 27.8803 71.8877 27.8916 71.4004 27.9143C70.9244 27.9256 70.6014 27.9313 70.4314 27.9313V38.0633C70.8054 38.0633 71.1567 38.0689 71.4854 38.0803C71.814 38.0803 72.052 38.0859 72.1994 38.0973C72.3467 38.0973 72.426 38.0973 72.4374 38.0973C74.2847 38.0973 75.7127 37.6099 76.7214 36.6353C77.73 35.6493 78.2344 34.3799 78.2344 32.8273C78.2344 31.3653 77.7527 30.1753 76.7894 29.2573C75.8147 28.3393 74.3867 27.8803 72.5054 27.8803ZM87.4555 37.3323L87.7445 38.0123C87.0532 38.7376 86.1125 39.1003 84.9225 39.1003C83.6985 39.1003 82.7182 38.7376 81.9815 38.0123C81.2335 37.2869 80.8595 36.3236 80.8595 35.1223C80.8595 33.9663 81.1995 33.0143 81.8795 32.2663C82.5709 31.5183 83.5229 31.1443 84.7355 31.1443C85.7215 31.1443 86.5489 31.4616 87.2175 32.0963C87.8749 32.7196 88.2035 33.5526 88.2035 34.5953C88.2035 34.8673 88.1865 35.1053 88.1525 35.3093H81.8455C81.8795 36.2273 82.1799 36.9526 82.7465 37.4853C83.3132 38.0066 84.0555 38.2673 84.9735 38.2673C86.0389 38.2673 86.8662 37.9556 87.4555 37.3323ZM84.6505 31.9773C83.8345 31.9773 83.1715 32.2153 82.6615 32.6913C82.1629 33.1673 81.8739 33.7963 81.7945 34.5783H87.3025C87.2912 33.7736 87.0475 33.1389 86.5715 32.6743C86.0955 32.2096 85.4552 31.9773 84.6505 31.9773ZM94.2796 36.9413C94.2796 36.5899 94.1323 36.3066 93.8376 36.0913C93.5543 35.8759 93.2029 35.7059 92.7836 35.5813C92.3756 35.4566 91.9619 35.3206 91.5426 35.1733C91.1233 35.0146 90.7663 34.7709 90.4716 34.4423C90.1883 34.1023 90.0466 33.6773 90.0466 33.1673C90.0466 32.5553 90.2733 32.0679 90.7266 31.7053C91.1799 31.3313 91.7749 31.1443 92.5116 31.1443C93.5656 31.1443 94.3646 31.4276 94.9086 31.9943L94.5346 32.6573C94.0133 32.1699 93.3446 31.9263 92.5286 31.9263C92.0753 31.9263 91.7013 32.0453 91.4066 32.2833C91.1233 32.5099 90.9816 32.7989 90.9816 33.1503C90.9816 33.5129 91.1233 33.8133 91.4066 34.0513C91.7013 34.2779 92.0526 34.4593 92.4606 34.5953C92.8799 34.7199 93.2993 34.8559 93.7186 35.0033C94.1379 35.1506 94.4893 35.3829 94.7726 35.7003C95.0673 36.0176 95.2146 36.4199 95.2146 36.9073C95.2146 37.5986 94.9539 38.1369 94.4326 38.5223C93.9226 38.9076 93.2653 39.1003 92.4606 39.1003C91.9619 39.1003 91.4406 38.9869 90.8966 38.7603C90.3866 38.5449 90.0353 38.2899 89.8426 37.9953L90.3356 37.4173C90.5509 37.6779 90.8739 37.8933 91.3046 38.0633C91.7466 38.2333 92.1659 38.3183 92.5626 38.3183C93.0613 38.3183 93.4693 38.1993 93.7866 37.9613C94.1153 37.7119 94.2796 37.3719 94.2796 36.9413ZM98.7331 38.9473H97.8491V31.2973H98.7331V38.9473ZM97.6961 28.3223C97.6961 28.1523 97.7584 28.0163 97.8831 27.9143C98.0077 27.8123 98.1551 27.7613 98.3251 27.7613C98.4724 27.7613 98.6027 27.8179 98.7161 27.9313C98.8407 28.0333 98.9031 28.1636 98.9031 28.3223C98.9031 28.5149 98.8464 28.6679 98.7331 28.7813C98.6311 28.8946 98.4951 28.9513 98.3251 28.9513C98.1437 28.9513 97.9907 28.8946 97.8661 28.7813C97.7527 28.6679 97.6961 28.5149 97.6961 28.3223ZM100.752 40.0693C100.752 39.4913 100.956 39.0039 101.364 38.6073C101.772 38.2106 102.35 37.9329 103.098 37.7743C102.928 37.5703 102.843 37.3266 102.843 37.0433C102.843 36.7599 102.939 36.5049 103.132 36.2783C102.633 36.0629 102.242 35.7399 101.959 35.3093C101.675 34.8786 101.534 34.3913 101.534 33.8473C101.534 33.0653 101.811 32.4193 102.367 31.9093C102.922 31.3993 103.653 31.1443 104.56 31.1443C105.285 31.1443 105.925 31.3369 106.481 31.7223H106.498L108.674 31.1443V31.9773L107.127 32.3683C107.433 32.8329 107.586 33.3259 107.586 33.8473C107.586 34.6066 107.302 35.2526 106.736 35.7853C106.169 36.2953 105.444 36.5503 104.56 36.5503C104.242 36.5503 103.987 36.5276 103.795 36.4823C103.693 36.6296 103.642 36.8166 103.642 37.0433C103.642 37.3039 103.715 37.5079 103.863 37.6553C104.293 37.6326 104.531 37.6213 104.577 37.6213C105.744 37.6213 106.673 37.8366 107.365 38.2673C108.056 38.6979 108.402 39.2986 108.402 40.0693C108.402 40.8286 108.056 41.4179 107.365 41.8373C106.673 42.2679 105.744 42.4833 104.577 42.4833C103.398 42.4833 102.463 42.2736 101.772 41.8543C101.092 41.4349 100.752 40.8399 100.752 40.0693ZM101.653 40.0693C101.653 40.5679 101.913 40.9589 102.435 41.2423C102.967 41.5369 103.681 41.6843 104.577 41.6843C105.461 41.6843 106.169 41.5369 106.702 41.2423C107.234 40.9476 107.501 40.5566 107.501 40.0693C107.501 39.5706 107.234 39.1739 106.702 38.8793C106.18 38.5733 105.472 38.4203 104.577 38.4203C103.693 38.4203 102.984 38.5676 102.452 38.8623C101.919 39.1569 101.653 39.5593 101.653 40.0693ZM103.03 32.4873C102.633 32.8499 102.435 33.3033 102.435 33.8473C102.435 34.3913 102.633 34.8446 103.03 35.2073C103.426 35.5699 103.936 35.7513 104.56 35.7513C105.183 35.7513 105.693 35.5699 106.09 35.2073C106.486 34.8446 106.685 34.3913 106.685 33.8473C106.685 33.3033 106.481 32.8499 106.073 32.4873C105.676 32.1246 105.172 31.9433 104.56 31.9433C103.959 31.9433 103.449 32.1246 103.03 32.4873ZM111.075 38.9473H110.191V31.2973H111.075V32.3683C111.392 32.0169 111.8 31.7279 112.299 31.5013C112.809 31.2746 113.319 31.1613 113.829 31.1613C114.894 31.1613 115.693 31.4389 116.226 31.9943C116.758 32.5496 117.025 33.4109 117.025 34.5783V38.9473H116.141V34.7483C116.141 32.9123 115.302 31.9943 113.625 31.9943C113.137 31.9943 112.661 32.1076 112.197 32.3343C111.732 32.5496 111.358 32.8273 111.075 33.1673V38.9473Z" fill="#292929"/>
<path d="M23.264 5.8C24.2987 5.8 25.1573 6.14667 25.84 6.84C26.5333 7.52267 26.88 8.376 26.88 9.4C26.88 10.4133 26.5333 11.2667 25.84 11.96C25.1573 12.6533 24.2987 13 23.264 13H20.688V17H19.2V5.8H23.264ZM23.264 11.608C23.8827 11.608 24.3947 11.4 24.8 10.984C25.2053 10.5573 25.408 10.0293 25.408 9.4C25.408 8.76 25.2053 8.232 24.8 7.816C24.3947 7.4 23.8827 7.192 23.264 7.192H20.688V11.608H23.264ZM34.5081 9H35.9001V17H34.5081V15.624C33.8148 16.68 32.8068 17.208 31.4841 17.208C30.3641 17.208 29.4095 16.8027 28.6201 15.992C27.8308 15.1707 27.4361 14.1733 27.4361 13C27.4361 11.8267 27.8308 10.8347 28.6201 10.024C29.4095 9.20267 30.3641 8.792 31.4841 8.792C32.8068 8.792 33.8148 9.32 34.5081 10.376V9ZM31.6601 15.864C32.4708 15.864 33.1481 15.592 33.6921 15.048C34.2361 14.4933 34.5081 13.8107 34.5081 13C34.5081 12.1893 34.2361 11.512 33.6921 10.968C33.1481 10.4133 32.4708 10.136 31.6601 10.136C30.8601 10.136 30.1881 10.4133 29.6441 10.968C29.1001 11.512 28.8281 12.1893 28.8281 13C28.8281 13.8107 29.1001 14.4933 29.6441 15.048C30.1881 15.592 30.8601 15.864 31.6601 15.864ZM42.3291 12.904C43.2145 13.2667 43.6571 13.9013 43.6571 14.808C43.6571 15.48 43.3905 16.0507 42.8571 16.52C42.3238 16.9787 41.5665 17.208 40.5851 17.208C38.9851 17.208 37.9131 16.568 37.3691 15.288L38.5371 14.6C38.8465 15.4747 39.5345 15.912 40.6011 15.912C41.1345 15.912 41.5451 15.8 41.8331 15.576C42.1318 15.3413 42.2811 15.0427 42.2811 14.68C42.2811 14.36 42.1585 14.0987 41.9131 13.896C41.6785 13.6933 41.3585 13.592 40.9531 13.592H39.7851V12.328H40.6491C41.0545 12.328 41.3691 12.232 41.5931 12.04C41.8171 11.8373 41.9291 11.5653 41.9291 11.224C41.9291 10.8827 41.7958 10.6053 41.5291 10.392C41.2731 10.1787 40.9158 10.072 40.4571 10.072C39.5611 10.072 38.9531 10.4507 38.6331 11.208L37.4971 10.552C38.0625 9.37867 39.0491 8.792 40.4571 8.792C41.3318 8.792 42.0198 9.016 42.5211 9.464C43.0331 9.912 43.2891 10.4613 43.2891 11.112C43.2891 11.9227 42.9691 12.52 42.3291 12.904ZM49.5814 8.792C50.7014 8.792 51.656 9.20267 52.4454 10.024C53.2347 10.8347 53.6294 11.8267 53.6294 13C53.6294 14.1733 53.2347 15.1707 52.4454 15.992C51.656 16.8027 50.7014 17.208 49.5814 17.208C48.2587 17.208 47.2507 16.68 46.5574 15.624V20.2H45.1654V9H46.5574V10.376C47.2507 9.32 48.2587 8.792 49.5814 8.792ZM49.4054 15.864C50.2054 15.864 50.8774 15.592 51.4214 15.048C51.9654 14.4933 52.2374 13.8107 52.2374 13C52.2374 12.1893 51.9654 11.512 51.4214 10.968C50.8774 10.4133 50.2054 10.136 49.4054 10.136C48.5947 10.136 47.9174 10.4133 47.3734 10.968C46.8294 11.512 46.5574 12.1893 46.5574 13C46.5574 13.8107 46.8294 14.4933 47.3734 15.048C47.9174 15.592 48.5947 15.864 49.4054 15.864ZM61.9144 9H63.3064V17H61.9144V15.624C61.221 16.68 60.213 17.208 58.8904 17.208C57.7704 17.208 56.8157 16.8027 56.0264 15.992C55.237 15.1707 54.8424 14.1733 54.8424 13C54.8424 11.8267 55.237 10.8347 56.0264 10.024C56.8157 9.20267 57.7704 8.792 58.8904 8.792C60.213 8.792 61.221 9.32 61.9144 10.376V9ZM59.0664 15.864C59.877 15.864 60.5544 15.592 61.0984 15.048C61.6424 14.4933 61.9144 13.8107 61.9144 13C61.9144 12.1893 61.6424 11.512 61.0984 10.968C60.5544 10.4133 59.877 10.136 59.0664 10.136C58.2664 10.136 57.5944 10.4133 57.0504 10.968C56.5064 11.512 56.2344 12.1893 56.2344 13C56.2344 13.8107 56.5064 14.4933 57.0504 15.048C57.5944 15.592 58.2664 15.864 59.0664 15.864ZM69.0474 17.208C67.8634 17.208 66.8874 16.8187 66.1194 16.04C65.3514 15.2613 64.9674 14.2587 64.9674 13.032C64.9674 11.6667 65.1647 10.616 65.5594 9.88C65.9647 9.144 66.786 8.47733 68.0234 7.88C68.2474 7.77333 68.5514 7.63467 68.9354 7.464C69.33 7.29333 69.618 7.16533 69.7994 7.08C69.9807 6.984 70.1834 6.86133 70.4074 6.712C70.6314 6.552 70.7967 6.38133 70.9034 6.2C71.0207 6.008 71.106 5.78933 71.1594 5.544L72.2794 6.184C72.2474 6.35467 72.2047 6.51467 72.1514 6.664C72.098 6.80267 72.018 6.94133 71.9114 7.08C71.8154 7.208 71.73 7.32 71.6554 7.416C71.5807 7.512 71.4527 7.61867 71.2714 7.736C71.1007 7.84267 70.9727 7.92267 70.8874 7.976C70.8127 8.02933 70.658 8.10933 70.4234 8.216C70.1994 8.32267 70.0447 8.39733 69.9594 8.44C69.8847 8.472 69.7087 8.54667 69.4314 8.664C69.154 8.77067 68.9834 8.84 68.9194 8.872C68.194 9.18133 67.6607 9.496 67.3194 9.816C66.9887 10.136 66.7487 10.5413 66.5994 11.032C66.9407 10.6053 67.3674 10.2907 67.8794 10.088C68.3914 9.88533 68.9034 9.784 69.4154 9.784C70.418 9.784 71.266 10.1253 71.9594 10.808C72.6634 11.4907 73.0154 12.3707 73.0154 13.448C73.0154 14.536 72.642 15.4373 71.8954 16.152C71.1487 16.856 70.1994 17.208 69.0474 17.208ZM67.1754 15.16C67.6767 15.6293 68.3007 15.864 69.0474 15.864C69.794 15.864 70.4074 15.6347 70.8874 15.176C71.378 14.7173 71.6234 14.1413 71.6234 13.448C71.6234 12.7333 71.3887 12.152 70.9194 11.704C70.4607 11.2453 69.8527 11.016 69.0954 11.016C68.4127 11.016 67.794 11.2347 67.2394 11.672C66.6954 12.0987 66.4234 12.664 66.4234 13.368C66.4234 14.0933 66.674 14.6907 67.1754 15.16ZM81.2455 15.992C80.4242 16.8027 79.4268 17.208 78.2535 17.208C77.0802 17.208 76.0828 16.8027 75.2615 15.992C74.4508 15.1813 74.0455 14.184 74.0455 13C74.0455 11.816 74.4508 10.8187 75.2615 10.008C76.0828 9.19733 77.0802 8.792 78.2535 8.792C79.4268 8.792 80.4242 9.19733 81.2455 10.008C82.0668 10.8187 82.4775 11.816 82.4775 13C82.4775 14.184 82.0668 15.1813 81.2455 15.992ZM78.2535 15.848C79.0535 15.848 79.7255 15.576 80.2695 15.032C80.8135 14.488 81.0855 13.8107 81.0855 13C81.0855 12.1893 80.8135 11.512 80.2695 10.968C79.7255 10.424 79.0535 10.152 78.2535 10.152C77.4642 10.152 76.7975 10.424 76.2535 10.968C75.7095 11.512 75.4375 12.1893 75.4375 13C75.4375 13.8107 75.7095 14.488 76.2535 15.032C76.7975 15.576 77.4642 15.848 78.2535 15.848ZM89.758 9V10.344H87.038V17H85.646V10.344H82.91V9H89.758ZM97.2894 9H98.6814V17H97.2894V15.624C96.596 16.68 95.588 17.208 94.2654 17.208C93.1454 17.208 92.1907 16.8027 91.4014 15.992C90.612 15.1707 90.2174 14.1733 90.2174 13C90.2174 11.8267 90.612 10.8347 91.4014 10.024C92.1907 9.20267 93.1454 8.792 94.2654 8.792C95.588 8.792 96.596 9.32 97.2894 10.376V9ZM94.4414 15.864C95.252 15.864 95.9294 15.592 96.4734 15.048C97.0174 14.4933 97.2894 13.8107 97.2894 13C97.2894 12.1893 97.0174 11.512 96.4734 10.968C95.9294 10.4133 95.252 10.136 94.4414 10.136C93.6414 10.136 92.9694 10.4133 92.4254 10.968C91.8814 11.512 91.6094 12.1893 91.6094 13C91.6094 13.8107 91.8814 14.4933 92.4254 15.048C92.9694 15.592 93.6414 15.864 94.4414 15.864ZM106.326 9H107.718V17H106.326V13.656H102.182V17H100.79V9H102.182V12.328H106.326V9ZM116.589 15.992C115.768 16.8027 114.771 17.208 113.597 17.208C112.424 17.208 111.427 16.8027 110.605 15.992C109.795 15.1813 109.389 14.184 109.389 13C109.389 11.816 109.795 10.8187 110.605 10.008C111.427 9.19733 112.424 8.792 113.597 8.792C114.771 8.792 115.768 9.19733 116.589 10.008C117.411 10.8187 117.821 11.816 117.821 13C117.821 14.184 117.411 15.1813 116.589 15.992ZM113.597 15.848C114.397 15.848 115.069 15.576 115.613 15.032C116.157 14.488 116.429 13.8107 116.429 13C116.429 12.1893 116.157 11.512 115.613 10.968C115.069 10.424 114.397 10.152 113.597 10.152C112.808 10.152 112.141 10.424 111.597 10.968C111.053 11.512 110.781 12.1893 110.781 13C110.781 13.8107 111.053 14.488 111.597 15.032C112.141 15.576 112.808 15.848 113.597 15.848Z" fill="white"/>
</svg>
