<?xml version="1.0" encoding="utf-8"?><svg xmlns="http://www.w3.org/2000/svg" xmlns:xlink="http://www.w3.org/1999/xlink"><symbol viewBox="0 0 11 19" fill="none" id="arrowButton-yellow" xmlns="http://www.w3.org/2000/svg"><path d="M1.875 17.375L9.75 9.5L1.875 1.625" stroke="#F8EB00" stroke-width="2" stroke-linecap="round" stroke-linejoin="round"/></symbol><symbol viewBox="0 0 176 52" fill="none" id="logotype-white" xmlns="http://www.w3.org/2000/svg"><g clip-path="url(#bclip0_2165_43210)"><mask id="bmask0_2165_43210" style="mask-type:luminance" maskUnits="userSpaceOnUse" x="0" y="0" width="176" height="52"><path d="M175.81 0H0V51.8105H175.81V0Z" fill="white"/></mask><g mask="url(#bmask0_2165_43210)"><path d="M63.4612 50.9895H43.9997C43.9785 50.4 43.9785 50.4422 44.6343 50.3369C45.692 50.1474 46.792 49.979 47.8074 49.6421C49.3304 49.1579 50.2612 48 50.5997 46.4843C51.1497 44.1474 51.615 41.7895 52.0381 39.4316C52.7997 35.2843 53.4977 31.1158 54.217 26.9474C54.9785 22.5053 55.7612 18.0843 56.5227 13.6422C56.9247 11.3895 57.3266 9.11586 57.7285 6.86322C57.7708 6.67375 57.792 6.46322 57.8131 6.27375C57.7708 6.2527 57.7285 6.2527 57.6862 6.23164C57.3054 6.86322 56.9247 7.4948 56.565 8.14743C54.64 11.4316 52.7362 14.7159 50.8112 18.0211C49.0343 21.0737 47.2785 24.1264 45.5016 27.179C43.7458 30.1895 41.9689 33.2 40.2343 36.2316C38.6054 39.0316 36.9977 41.8316 35.39 44.6106C34.0574 46.9053 32.7247 49.2 31.3708 51.4948C31.265 51.6632 31.0112 51.8106 30.7997 51.8106C30.1862 51.8527 29.5727 51.8316 28.917 51.8316C24.8766 37.5579 20.8151 23.2843 16.7747 9.03164C16.7324 9.03164 16.6901 9.03164 16.6266 9.0527C16.4574 10.0211 16.2881 10.9685 16.1189 11.9369C15.2728 16.758 14.4266 21.6 13.5805 26.4421C12.7555 31.2843 11.9093 36.1053 11.1266 40.9474C10.8516 42.7158 10.8516 44.5053 11.2747 46.2737C11.7401 48.1264 12.9458 49.2421 14.7228 49.7264C15.8439 50.0211 16.9862 50.1685 18.1285 50.379C18.3612 50.4211 18.6151 50.4211 18.9112 50.4422C18.8901 50.6527 18.8689 50.8421 18.8478 51.0106H-0.00031851C-0.0426263 50.5474 0.211219 50.4 0.676604 50.3579C3.6593 50.0632 5.8593 48.6106 7.25545 45.9369C8.41891 43.7053 8.99007 41.2843 9.4343 38.8421C10.6401 32.1685 11.8458 25.4948 12.967 18.8211C13.5381 15.4527 14.0458 12.0843 14.4478 8.6948C14.617 7.34743 14.5112 5.95796 14.3843 4.61059C14.2151 2.77901 12.967 1.68428 10.9574 1.43164C10.1112 1.32638 9.28622 1.26322 8.35545 1.17901C8.37661 0.98954 8.37661 0.757961 8.39776 0.463224H8.96891C13.3266 0.421119 17.642 0.421119 21.9574 0.400066C22.4016 0.400066 22.5497 0.547434 22.6554 0.947434C24.6862 8.14743 26.717 15.3264 28.7689 22.5264C30.4612 28.4843 32.1324 34.4211 33.8035 40.379C34.015 41.0948 34.2266 41.8106 34.4593 42.6737C34.8824 41.979 35.242 41.3685 35.6016 40.7579C37.6324 37.2843 39.642 33.8316 41.6727 30.3579C43.1535 27.8316 44.6131 25.2843 46.0939 22.7579C47.9554 19.5369 49.8381 16.3369 51.7208 13.1159C53.2016 10.5895 54.6612 8.04217 56.142 5.51586C57.0727 3.8948 58.0247 2.27375 58.9766 0.67375C59.04 0.547434 59.2516 0.442171 59.3785 0.442171C63.715 0.421119 68.0516 0.442171 72.3881 0.442171C72.4304 0.442171 72.4939 0.463224 72.5362 0.484277C72.6208 0.968487 72.4939 1.17901 71.9227 1.22112C70.8016 1.32638 69.6804 1.4948 68.6016 1.72638C66.9939 2.06322 66.042 3.15796 65.6189 4.67375C65.1958 6.14743 64.8997 7.66322 64.6247 9.17901C63.8843 13.2422 63.1651 17.3264 62.4458 21.3895C61.5362 26.5264 60.6266 31.6632 59.717 36.8211C59.2939 39.2632 58.8285 41.6843 58.4477 44.1264C58.3208 44.9685 58.2997 45.8316 58.342 46.6948C58.4477 48.3579 59.0189 49.4106 60.6266 49.9158C61.5574 50.2106 63.5881 50.5264 64.4343 50.5474M47.5747 50.2948C50.2824 50.3369 52.567 49.0106 54.6189 46.9053C57.0516 44.4211 58.7862 41.4316 60.4785 38.4422C62.065 35.6422 63.6727 32.8632 65.2593 30.0843C66.6766 27.6 68.0727 25.0948 69.49 22.6106C71.4997 19.0948 73.5093 15.579 75.5189 12.0632C76.9362 9.60007 78.3112 7.11585 79.7285 4.63164C80.5535 3.20007 81.3785 1.74743 82.2247 0.315855C82.2881 0.189539 82.4362 0.0421708 82.542 0.0421708C83.6208 0.0211182 84.6785 0.0211182 85.7785 0.0211182C86.1593 2.02112 86.5189 3.97901 86.8785 5.93691C87.7458 10.6316 88.6131 15.3264 89.4804 20.0211C90.1997 23.9158 90.8977 27.7895 91.617 31.6843C92.4631 36.2316 93.3093 40.7579 94.1977 45.2843C94.367 46.2106 94.7054 47.1158 95.065 47.979C95.6574 49.3685 96.8208 50.0843 98.2804 50.2948C98.6612 50.3579 99.042 50.4 99.4227 50.4422C99.5708 50.9474 99.3804 50.6948 98.8727 50.6737C95.8266 50.6106 92.7804 50.9474 89.7343 50.9474C86.7304 50.9474 83.7477 51.0316 80.7439 51.0948C80.5535 51.0948 80.3631 51.0948 80.1093 51.0948C80.1304 50.8632 80.1516 50.6948 80.1939 50.3579C81.0612 50.3579 81.9074 50.379 82.7747 50.3579C83.3881 50.3369 84.0016 50.2737 84.6151 50.1685C86.0324 49.9158 86.6035 49.1158 86.4131 47.7264C86.1804 46.1264 85.9266 44.5474 85.6727 42.9685C85.1227 39.6843 84.5516 36.379 84.0227 33.0948C83.9593 32.7158 83.8535 32.5895 83.4304 32.5685C80.6804 32.5053 77.9304 32.3579 75.2016 32.3579C72.2189 32.3369 69.2574 32.4632 66.2747 32.4843C65.9362 32.4843 65.8093 32.6527 65.6824 32.8843C64.7727 34.5474 63.842 36.2316 62.9324 37.8948C61.79 40 60.6054 42.0843 59.4843 44.1895C59.0824 44.9474 58.765 45.7474 58.5747 46.5685C58.2785 47.7685 58.7862 48.7579 59.865 49.4106C61.092 50.1474 62.467 50.3579 63.8631 50.4422C64.0535 50.4632 64.2439 50.4632 64.4766 50.4843C64.4554 50.6948 64.4343 50.8843 64.4131 51.0316H47.49M79.6227 8.06322C75.3497 15.6843 71.1401 23.179 66.8881 30.7579C72.5151 30.9264 78.0362 31.0316 83.5997 30.6316C82.2881 23.1579 80.9766 15.6843 79.6227 8.06322Z" fill="white"/><path d="M85.4405 50.9895C85.3982 50.5053 85.6944 50.3789 86.1598 50.3579C87.6405 50.2316 89.1213 50.0421 90.5175 49.4526C91.9348 48.8421 92.9078 47.7895 93.3098 46.3579C93.9021 44.1474 94.3886 41.8947 94.8117 39.6421C95.5944 35.5158 96.2713 31.3684 97.0117 27.221C98.1752 20.5895 99.3386 13.979 100.46 7.34738C100.65 6.21054 100.756 5.05264 100.439 3.9158C100.1 2.7158 99.2328 2.02105 98.0694 1.74737C96.8425 1.45263 95.5944 1.30526 94.2617 1.07368C94.2617 0.947368 94.2828 0.715789 94.304 0.568421C96.1444 0.568421 97.9425 0.568421 99.7405 0.568421C104.585 0.547368 109.429 0.547368 114.273 0.48421C118.61 0.421053 122.946 0.48421 127.198 1.51579C130.541 2.3158 133.65 3.57896 136.337 5.76843C139.489 8.3158 141.519 11.579 142.45 15.5158C143.127 18.4 143.148 21.3053 142.937 24.2316C142.683 27.6842 141.985 31.0316 140.652 34.2105C139.594 36.6947 138.198 38.9895 136.4 41.0316C133.333 44.5474 129.504 46.9474 125.146 48.5895C121.889 49.8105 118.525 50.5053 115.077 50.9053C111.037 51.3684 106.996 51.2421 102.956 51.1368C98.5136 51.0316 94.0925 51.0526 89.6501 51.0105C88.2117 50.9684 86.8367 50.9895 85.4405 50.9895ZM114.654 1.93684C112.856 2.10527 111.058 2.27369 109.239 2.44211C108.794 2.48422 108.625 2.67369 108.562 3.1158C108.244 5.05264 107.906 6.98948 107.546 8.90527C106.7 13.7263 105.833 18.5684 104.966 23.3895C104.119 28.2105 103.252 33.0105 102.427 37.8316C102.067 39.8947 100.798 47.0737 100.608 49.1579H102.723H106.742C110.55 49.1579 113.089 49.3684 118.377 48.1053C123.137 46.8842 125.844 44.8631 128.912 41.0105C131.217 38.1053 132.719 34.821 133.65 31.2631C134.581 27.6842 134.898 24.0631 134.835 20.379C134.792 17.6 134.348 14.8842 133.248 12.2947C131.366 7.83159 128.129 4.80001 123.539 3.20001C120.683 2.16843 117.7 1.87368 114.654 1.93684Z" fill="white"/><path d="M168.279 51.1789C168.279 51.1789 128.721 51.1789 128.785 51.1368C128.7 50.5474 129.06 50.4632 129.504 50.4211C131.006 50.2947 132.466 50.1053 133.862 49.4947C135.321 48.8632 136.273 47.7684 136.675 46.2737C137.204 44.3158 137.648 42.3368 138.008 40.3368C139.235 33.4947 140.441 26.6316 141.625 19.7895C142.344 15.7263 143.064 11.6842 143.741 7.62105C143.889 6.73684 143.91 5.81053 143.889 4.90526C143.846 3.2421 142.894 2.12632 141.181 1.74737C139.996 1.47368 138.791 1.34737 137.543 1.13684C137.564 0.989474 137.585 0.778947 137.606 0.547368C143.994 0.547368 150.341 0.610526 156.687 0.526316C163.033 0.442105 169.4 0.778947 175.768 0C174.943 4.58947 174.118 9.15789 173.293 13.7684H172.827C172.7 12.8421 172.594 11.8947 172.446 10.9684C172.214 9.53684 171.981 8.10526 171.219 6.82105C170.268 5.2 168.829 4.21053 167.094 3.57895C164.471 2.63158 161.721 2.35789 158.95 2.27368C156.856 2.21053 154.762 2.23158 152.668 2.18947C152.266 2.18947 152.096 2.25263 152.012 2.69474C150.785 9.70526 149.537 16.6947 148.289 23.7053C148.268 23.8526 148.268 24 148.246 24.1895C148.373 24.2105 148.458 24.2316 148.543 24.2316C151.102 24.1474 153.662 24.2105 156.179 23.9368C158.993 23.6421 161.51 22.5474 163.414 20.3368C164.408 19.1789 164.979 17.7895 165.444 16.3368C165.571 15.9158 165.593 15.9158 166.143 16C165.994 16.7368 165.825 17.4526 165.677 18.1895C165.043 21.7474 164.408 25.3053 163.794 28.8421C163.519 30.4 163.287 31.9579 163.075 33.5158C163.012 33.9368 162.843 34.021 162.504 33.9368C162.504 33.2632 162.525 32.5684 162.504 31.8947C162.419 30.3789 162.144 28.9263 160.939 27.8526C159.987 27.0105 158.823 26.6105 157.596 26.4211C156.285 26.2316 154.931 26.0842 153.598 26.0421C151.694 25.9789 149.791 26.0211 147.866 26.0211C147.591 27.5579 147.294 29.0737 147.019 30.5895C146.491 33.5158 145.941 36.4421 145.454 39.3895C145.158 41.2211 144.946 43.0737 145.264 44.9263C145.644 47.1789 146.787 48.3789 149.05 48.8842C151.293 49.3895 153.556 49.3684 155.841 49.3474C157.618 49.3263 159.373 49.1158 161.087 48.5684C163.858 47.7053 165.994 45.9789 167.75 43.7263C169.083 42.021 170.162 40.1684 171.071 38.2105C171.241 37.8316 171.473 37.6421 171.854 37.7895C170.585 42.4632 169.527 46.6316 168.279 51.1789Z" fill="white"/></g></g><defs><clipPath id="bclip0_2165_43210"><rect width="176" height="52" fill="white"/></clipPath></defs></symbol><symbol viewBox="0 0 116 34" fill="none" id="logotype-yellow" xmlns="http://www.w3.org/2000/svg"><g clip-path="url(#cclip0_2701_8010)"><mask id="cmask0_2701_8010" style="mask-type:luminance" maskUnits="userSpaceOnUse" x="0" y="0" width="116" height="34"><path d="M115.875 0H0V33.8761H115.875V0Z" fill="white"/></mask><g mask="url(#cmask0_2701_8010)"><path d="M41.827 33.3392H29.0001C28.9861 32.9537 28.9861 32.9813 29.4183 32.9124C30.1154 32.7886 30.8404 32.6784 31.5097 32.4582C32.5135 32.1416 33.127 31.3845 33.3501 30.3934C33.7126 28.8655 34.0193 27.3238 34.2981 25.7821C34.8001 23.0703 35.2602 20.3448 35.7342 17.6193C36.2361 14.7149 36.752 11.8242 37.2539 8.91975C37.5188 7.44687 37.7837 5.96023 38.0486 4.48736C38.0765 4.36347 38.0904 4.22582 38.1044 4.10193C38.0765 4.08817 38.0486 4.08817 38.0207 4.0744C37.7698 4.48736 37.5188 4.90031 37.2818 5.32703C36.013 7.4744 34.7582 9.62177 33.4895 11.7829C32.3183 13.7788 31.1611 15.7748 29.99 17.7707C28.8328 19.7392 27.6616 21.7076 26.5183 23.6898C25.4448 25.5205 24.3852 27.3513 23.3255 29.1683C22.4472 30.6687 21.5688 32.1691 20.6765 33.6695C20.6068 33.7797 20.4395 33.876 20.3001 33.876C19.8957 33.9035 19.4914 33.8898 19.0592 33.8898C16.3962 24.557 13.7193 15.2242 11.0563 5.90517C11.0284 5.90517 11.0006 5.90517 10.9587 5.91893C10.8472 6.55213 10.7357 7.17157 10.6241 7.80476C10.0664 10.957 9.50873 14.123 8.95104 17.289C8.40729 20.455 7.8496 23.6072 7.33373 26.7732C7.15248 27.9294 7.15248 29.0995 7.43133 30.2558C7.73806 31.4671 8.53277 32.1967 9.70393 32.5133C10.4429 32.706 11.1958 32.8023 11.9486 32.94C12.102 32.9675 12.2693 32.9675 12.4645 32.9813C12.4506 33.1189 12.4366 33.2428 12.4227 33.3529H7.86027e-05C-0.027806 33.0501 0.139501 32.9537 0.446232 32.9262C2.4121 32.7335 3.8621 31.7837 4.78229 30.0355C5.54912 28.5764 5.92556 26.9934 6.21835 25.3967C7.01306 21.0331 7.80777 16.6695 8.54671 12.306C8.92316 10.1035 9.25777 7.90112 9.52268 5.68493C9.63421 4.80396 9.5645 3.89545 9.48085 3.01448C9.36931 1.81691 8.54671 1.10112 7.22219 0.935939C6.6645 0.867113 6.12075 0.825818 5.50729 0.770757C5.52123 0.64687 5.52123 0.495454 5.53518 0.302741H5.91162C8.78373 0.275211 11.628 0.275211 14.4722 0.261445C14.765 0.261445 14.8626 0.357802 14.9323 0.61934C16.2707 5.32703 17.6092 10.021 18.9616 14.7286C20.077 18.6242 21.1784 22.506 22.2799 26.4015C22.4193 26.8695 22.5587 27.3375 22.7121 27.9019C22.9909 27.4477 23.2279 27.0485 23.465 26.6493C24.8034 24.378 26.1279 22.1205 27.4664 19.8493C28.4424 18.1975 29.4044 16.5319 30.3804 14.8801C31.6073 12.774 32.8481 10.6817 34.089 8.57561C35.065 6.92379 36.027 5.25821 37.0029 3.60638C37.6164 2.54647 38.2438 1.48655 38.8712 0.440393C38.913 0.357802 39.0525 0.288976 39.1361 0.288976C41.9943 0.275211 44.8525 0.288976 47.7106 0.288976C47.7385 0.288976 47.7804 0.302741 47.8082 0.316506C47.864 0.633105 47.7804 0.770757 47.4039 0.798287C46.665 0.867113 45.926 0.977235 45.215 1.12865C44.1553 1.34889 43.528 2.06468 43.2491 3.05578C42.9703 4.01934 42.7751 5.01043 42.5938 6.00153C42.1058 8.65821 41.6318 11.3287 41.1578 13.9853C40.5582 17.344 39.9587 20.7027 39.3592 24.0752C39.0804 25.672 38.7736 27.255 38.5227 28.8517C38.439 29.4023 38.4251 29.9667 38.4529 30.5311C38.5227 31.6185 38.8991 32.3068 39.9587 32.6371C40.5722 32.8299 41.9106 33.0363 42.4683 33.0501M31.3563 32.8849C33.1409 32.9124 34.6467 32.0452 35.9991 30.6687C37.6025 29.0444 38.7457 27.0898 39.8611 25.1351C40.9068 23.3043 41.9664 21.4873 43.0121 19.6703C43.9462 18.046 44.8664 16.408 45.8005 14.7837C47.1251 12.4849 48.4496 10.1861 49.7741 7.88736C50.7082 6.27683 51.6145 4.65254 52.5486 3.02825C53.0924 2.09221 53.6361 1.14242 54.1938 0.206385C54.2356 0.123793 54.3332 0.0274371 54.403 0.0274371C55.114 0.0136719 55.8111 0.0136719 56.5361 0.0136719C56.7871 1.32136 57.0241 2.60153 57.2611 3.88169C57.8328 6.95132 58.4044 10.021 58.976 13.0906C59.4501 15.6371 59.9102 18.1699 60.3842 20.7165C60.9419 23.6898 61.4996 26.6493 62.0852 29.6088C62.1967 30.2145 62.4198 30.8064 62.6568 31.3707C63.0472 32.2792 63.814 32.7473 64.776 32.8849C65.027 32.9262 65.2779 32.9537 65.5289 32.9813C65.6265 33.3116 65.501 33.1465 65.1664 33.1327C63.1587 33.0914 61.151 33.3116 59.1433 33.3116C57.1635 33.3116 55.1977 33.3667 53.2179 33.408C53.0924 33.408 52.9669 33.408 52.7996 33.408C52.8135 33.2566 52.8275 33.1465 52.8554 32.9262C53.427 32.9262 53.9847 32.94 54.5563 32.9262C54.9606 32.9124 55.365 32.8711 55.7693 32.8023C56.7034 32.6371 57.0799 32.1141 56.9544 31.2056C56.801 30.1594 56.6337 29.127 56.4664 28.0946C56.1039 25.9473 55.7275 23.7861 55.3789 21.6388C55.3371 21.391 55.2674 21.3084 54.9885 21.2946C53.176 21.2533 51.3635 21.157 49.565 21.157C47.5991 21.1432 45.6472 21.2258 43.6813 21.2396C43.4582 21.2396 43.3746 21.3497 43.2909 21.5011C42.6914 22.5886 42.0779 23.6898 41.4784 24.7772C40.7255 26.1537 39.9448 27.5165 39.2058 28.893C38.9409 29.3886 38.7318 29.9116 38.6063 30.4485C38.4111 31.2331 38.7457 31.8801 39.4568 32.3068C40.2654 32.7886 41.1717 32.9262 42.0919 32.9813C42.2174 32.995 42.3428 32.995 42.4962 33.0088C42.4823 33.1465 42.4683 33.2703 42.4544 33.3667H31.3005M52.4789 5.27197C49.6626 10.255 46.888 15.1554 44.0856 20.1108C47.7943 20.2209 51.4332 20.2898 55.1001 20.0282C54.2356 15.1416 53.3712 10.255 52.4789 5.27197Z" fill="#F8EB00"/><path d="M56.3132 33.3393C56.2853 33.0227 56.4805 32.9401 56.7872 32.9264C57.7632 32.8438 58.7392 32.7199 59.6593 32.3345C60.5935 31.9353 61.2348 31.247 61.4997 30.311C61.8901 28.8656 62.2108 27.3928 62.4896 25.9199C63.0055 23.2219 63.4517 20.5102 63.9396 17.7984C64.7065 13.4624 65.4733 9.14013 66.2122 4.8041C66.3377 4.06078 66.4074 3.3037 66.1983 2.56038C65.9752 1.77576 65.4036 1.3215 64.6367 1.14256C63.8281 0.949845 63.0055 0.853488 62.1271 0.702071C62.1271 0.61948 62.1411 0.468063 62.155 0.371707C63.368 0.371707 64.5531 0.371707 65.7382 0.371707C68.931 0.357942 72.1238 0.357942 75.3166 0.316646C78.1747 0.275351 81.0329 0.316646 83.8353 0.99114C86.0382 1.51422 88.0877 2.34013 89.8584 3.77171C91.9358 5.4373 93.2743 7.5709 93.8877 10.145C94.3339 12.0308 94.3478 13.9304 94.2084 15.8438C94.0411 18.1013 93.581 20.2899 92.7026 22.3685C92.0055 23.9928 91.0853 25.4932 89.9002 26.8284C87.8786 29.1272 85.355 30.6964 82.4829 31.7701C80.3358 32.5685 78.119 33.0227 75.8464 33.2843C73.1834 33.5871 70.5204 33.5045 67.8574 33.4357C64.9295 33.3668 62.0156 33.3806 59.0877 33.3531C58.1396 33.3255 57.2334 33.3393 56.3132 33.3393ZM75.5675 1.26644C74.3824 1.37657 73.1973 1.48669 71.9983 1.59681C71.7055 1.62434 71.594 1.74823 71.5521 2.0373C71.343 3.3037 71.1199 4.57009 70.8829 5.82272C70.3252 8.97495 69.7536 12.1409 69.1819 15.2932C68.6242 18.4454 68.0526 21.5838 67.5089 24.7361C67.2718 26.0851 66.4353 30.779 66.3098 32.1417H67.7041H70.3531C72.8627 32.1417 74.5358 32.2794 78.0214 31.4535C81.1584 30.6551 82.943 29.3336 84.9646 26.8146C86.4843 24.915 87.4742 22.7677 88.0877 20.4413C88.7012 18.1013 88.9103 15.7336 88.8685 13.3247C88.8406 11.5077 88.5478 9.73204 87.8228 8.03892C86.5819 5.1207 84.4488 3.13851 81.4233 2.09236C79.5411 1.41787 77.5752 1.22515 75.5675 1.26644Z" fill="#F8EB00"/><path d="M110.912 33.4632C110.912 33.4632 84.8394 33.4632 84.8812 33.4356C84.8255 33.0502 85.0625 32.9951 85.3553 32.9676C86.3452 32.885 87.3072 32.7611 88.2274 32.3619C89.1894 31.949 89.8168 31.2332 90.0817 30.2559C90.4303 28.9757 90.7231 27.6818 90.9601 26.3741C91.7687 21.9004 92.5634 17.413 93.3442 12.9393C93.8182 10.2826 94.2923 7.63968 94.7384 4.983C94.836 4.40486 94.85 3.79919 94.836 3.20729C94.8081 2.11984 94.1807 1.39028 93.0514 1.14251C92.2707 0.963563 91.4759 0.880972 90.6533 0.74332C90.6673 0.646964 90.6812 0.509312 90.6952 0.357895C94.9057 0.357895 99.0884 0.39919 103.271 0.34413C107.454 0.289069 111.65 0.509312 115.847 0C115.303 3.00081 114.76 5.98785 114.216 9.00243H113.909C113.825 8.39676 113.756 7.77733 113.658 7.17166C113.505 6.23563 113.351 5.29959 112.849 4.45992C112.222 3.4 111.274 2.75304 110.131 2.34008C108.402 1.72065 106.589 1.5417 104.763 1.48664C103.383 1.44534 102.002 1.45911 100.622 1.43158C100.357 1.43158 100.246 1.47287 100.19 1.76194C99.3812 6.34575 98.5586 10.9158 97.736 15.4996C97.7221 15.596 97.7221 15.6923 97.7082 15.8162C97.7918 15.83 97.8476 15.8437 97.9033 15.8437C99.5904 15.7887 101.277 15.83 102.937 15.651C104.791 15.4583 106.45 14.7425 107.705 13.2972C108.36 12.5401 108.737 11.6316 109.043 10.6818C109.127 10.4065 109.141 10.4065 109.503 10.4615C109.406 10.9433 109.294 11.4113 109.197 11.8931C108.778 14.2194 108.36 16.5457 107.956 18.8583C107.774 19.8769 107.621 20.8955 107.482 21.9142C107.44 22.1895 107.328 22.2445 107.105 22.1895C107.105 21.749 107.119 21.2947 107.105 20.8542C107.049 19.8632 106.868 18.9134 106.074 18.2113C105.446 17.6607 104.679 17.3992 103.871 17.2753C103.006 17.1514 102.114 17.0551 101.236 17.0275C99.9807 16.9862 98.7259 17.0138 97.4572 17.0138C97.2759 18.0186 97.0807 19.0097 96.8995 20.0008C96.5509 21.9142 96.1884 23.8275 95.8678 25.7547C95.6726 26.9522 95.5331 28.1636 95.7423 29.3749C95.9932 30.8478 96.7461 31.6324 98.238 31.9628C99.7158 32.2931 101.208 32.2794 102.713 32.2656C103.885 32.2518 105.042 32.1142 106.171 31.7563C107.998 31.1919 109.406 30.0632 110.563 28.5903C111.441 27.4753 112.152 26.264 112.752 24.9838C112.863 24.736 113.017 24.6121 113.268 24.7085C112.431 27.7644 111.734 30.4899 110.912 33.4632Z" fill="#F8EB00"/></g></g><defs><clipPath id="cclip0_2701_8010"><rect width="116" height="34" fill="white"/></clipPath></defs></symbol><symbol viewBox="0 0 29 29" fill="none" id="mailIcon" xmlns="http://www.w3.org/2000/svg"><path d="M4.83333 7.25008L12.2134 12.8232L12.2159 12.8253C13.0353 13.4262 13.4453 13.7269 13.8943 13.843C14.2912 13.9457 14.7084 13.9457 15.1053 13.843C15.5548 13.7268 15.966 13.4252 16.7869 12.8232C16.7869 12.8232 21.5205 9.19059 24.1667 7.25008M3.625 19.092V9.90865C3.625 8.55519 3.625 7.87796 3.8884 7.361C4.12009 6.90628 4.48953 6.53684 4.94425 6.30515C5.46121 6.04175 6.13844 6.04175 7.4919 6.04175H21.5086C22.862 6.04175 23.5378 6.04175 24.0548 6.30515C24.5095 6.53684 24.8802 6.90628 25.1119 7.361C25.375 7.87745 25.375 8.55387 25.375 9.90468V19.0961C25.375 20.4469 25.375 21.1223 25.1119 21.6388C24.8802 22.0935 24.5095 22.4636 24.0548 22.6953C23.5383 22.9584 22.8629 22.9584 21.5121 22.9584H7.48793C6.13712 22.9584 5.4607 22.9584 4.94425 22.6953C4.48953 22.4636 4.12009 22.0935 3.8884 21.6388C3.625 21.1218 3.625 20.4454 3.625 19.092Z" stroke="white" stroke-width="2" stroke-linecap="round" stroke-linejoin="round"/></symbol><symbol viewBox="0 0 29 29" fill="none" id="phoneIcon" xmlns="http://www.w3.org/2000/svg"><path d="M11.4821 5.14414C11.1151 4.22663 10.2265 3.625 9.23832 3.625H5.91447C4.65003 3.625 3.625 4.64978 3.625 5.91423C3.625 16.662 12.338 25.375 23.0858 25.375C24.3502 25.375 25.375 24.3499 25.375 23.0854L25.3756 19.761C25.3756 18.7728 24.7741 17.8844 23.8566 17.5174L20.6709 16.2435C19.8467 15.9139 18.9083 16.0622 18.2264 16.6305L17.4043 17.3162C16.444 18.1164 15.0312 18.0528 14.1474 17.1689L11.8323 14.8517C10.9485 13.9679 10.8831 12.5562 11.6833 11.596L12.3689 10.7739C12.9372 10.0919 13.0868 9.15332 12.7572 8.32915L11.4821 5.14414Z" stroke="white" stroke-width="2" stroke-linecap="round" stroke-linejoin="round"/></symbol><symbol viewBox="0 0 58 57" fill="none" id="propertyEffectiveness" xmlns="http://www.w3.org/2000/svg"><path d="M56.4998 28.4999C56.4998 43.6877 44.1877 55.9999 28.9999 55.9999C13.8121 55.9999 1.5 43.6877 1.5 28.4999C1.5 13.3121 13.8121 1 28.9999 1C44.1877 1 56.4998 13.3121 56.4998 28.4999Z" stroke="#7D7D7D" stroke-width="2"/><rect x="28.5273" y="28.0254" width="27.9741" height="27.9741" stroke="#7D7D7D" stroke-width="2"/></symbol><symbol viewBox="0 0 62 61" fill="none" id="propertyProfitability" xmlns="http://www.w3.org/2000/svg"><path d="M31.5 2L2.5 17.7241L31.5 32.4655L59.5 17.7241L31.5 2Z" stroke="#7D7D7D" stroke-width="2"/><path d="M31.5 14.7759L2.5 30.5L31.5 45.2414L59.5 30.5L31.5 14.7759Z" stroke="#7D7D7D" stroke-width="2"/><path d="M31.5 28.5347L2.5 44.2588L31.5 59.0002L59.5 44.2588L31.5 28.5347Z" stroke="#7D7D7D" stroke-width="2"/></symbol><symbol viewBox="0 0 58 57" fill="none" id="propertyStability" xmlns="http://www.w3.org/2000/svg"><circle cx="14.5548" cy="14.0548" r="13.0548" stroke="#7D7D7D" stroke-width="2"/><path d="M27.6096 42.5546C27.6096 50.0062 21.7391 55.9998 14.5548 55.9998C7.37048 55.9998 1.5 50.0062 1.5 42.5546C1.5 35.103 7.37048 29.1094 14.5548 29.1094C21.7391 29.1094 27.6096 35.103 27.6096 42.5546Z" stroke="#7D7D7D" stroke-width="2"/><path d="M56.4998 14.0548C56.4998 21.2391 50.5062 27.1096 43.0546 27.1096C35.603 27.1096 29.6094 21.2391 29.6094 14.0548C29.6094 6.87048 35.603 1 43.0546 1C50.5062 1 56.4998 6.87048 56.4998 14.0548Z" stroke="#7D7D7D" stroke-width="2"/><circle cx="43.0546" cy="42.5546" r="13.4452" stroke="#7D7D7D" stroke-width="2"/></symbol><symbol viewBox="0 0 172 47" fill="none" id="requestDesignIconCompany" xmlns="http://www.w3.org/2000/svg"><path d="M150.4 8.60039L136.6 22.3996C135.164 23.8358 135.164 26.1642 136.6 27.6004L150.4 41.3996C151.836 42.8358 154.164 42.8358 155.6 41.3996L169.4 27.6004C170.836 26.1642 170.836 23.8358 169.4 22.3996L155.6 8.60038C154.164 7.16424 151.836 7.16424 150.4 8.60039Z" fill="white"/><path d="M153.043 35.8818C159.053 35.8818 163.924 31.0099 163.924 25.0002C163.924 18.9904 159.053 14.1185 153.043 14.1185C147.033 14.1185 142.161 18.9904 142.161 25.0002C142.161 31.0099 147.033 35.8818 153.043 35.8818Z" fill="#101010"/><path d="M156.262 18.1995H149.919C147.888 18.1995 146.241 19.846 146.241 21.877V28.2206C146.241 30.2516 147.888 31.8981 149.919 31.8981H156.262C158.293 31.8981 159.94 30.2516 159.94 28.2206V21.877C159.94 19.846 158.293 18.1995 156.262 18.1995Z" fill="white"/><path d="M153.024 29.7234C155.642 29.7234 157.765 27.6006 157.765 24.982C157.765 22.3633 155.642 20.2405 153.024 20.2405C150.405 20.2405 148.282 22.3633 148.282 24.982C148.282 27.6006 150.405 29.7234 153.024 29.7234Z" fill="#101010"/><path d="M152.309 23.6938L151.87 24.1332C151.391 24.6119 151.391 25.3881 151.87 25.8668L152.309 26.3062C152.788 26.785 153.564 26.785 154.043 26.3062L154.482 25.8668C154.961 25.3881 154.961 24.6119 154.482 24.1332L154.043 23.6938C153.564 23.215 152.788 23.215 152.309 23.6938Z" fill="white"/><path d="M3.96 34.2313V38.9473H1.746V26.3473C2.37 26.3473 3.048 26.3413 3.78 26.3293C4.512 26.3173 5.112 26.3113 5.58 26.3113C8.628 26.3113 10.152 27.6073 10.152 30.1993C10.152 31.1593 9.906 31.9513 9.414 32.5753C8.922 33.1753 8.358 33.5833 7.722 33.7993L11.664 38.9473H8.982L5.508 34.2313H3.96ZM5.472 28.3813C5.412 28.3813 5.316 28.3873 5.184 28.3993C5.052 28.3993 4.866 28.4053 4.626 28.4173C4.386 28.4173 4.164 28.4173 3.96 28.4173V32.1613H5.4C6.108 32.1613 6.684 31.9873 7.128 31.6393C7.584 31.2913 7.812 30.8173 7.812 30.2173C7.812 28.9933 7.032 28.3813 5.472 28.3813ZM18.6154 36.6793L19.2094 38.1373C18.4054 38.8093 17.3734 39.1453 16.1134 39.1453C14.8174 39.1453 13.7614 38.7553 12.9454 37.9753C12.1534 37.2073 11.7574 36.1813 11.7574 34.8973C11.7574 33.6973 12.1474 32.6893 12.9274 31.8733C13.7074 31.0573 14.7454 30.6493 16.0414 30.6493C17.1094 30.6493 18.0154 31.0033 18.7594 31.7113C19.5034 32.4193 19.8754 33.3193 19.8754 34.4113C19.8754 34.8913 19.8334 35.2633 19.7494 35.5273H13.8994C13.9834 36.1153 14.2414 36.5773 14.6734 36.9133C15.1174 37.2493 15.6694 37.4173 16.3294 37.4173C17.2294 37.4173 17.9914 37.1713 18.6154 36.6793ZM15.9514 32.3773C14.7754 32.3773 14.0674 32.9653 13.8274 34.1413H17.8054C17.8174 33.6253 17.6494 33.2053 17.3014 32.8813C16.9654 32.5453 16.5154 32.3773 15.9514 32.3773ZM29.2659 42.5473H27.1959V38.5333C26.5719 38.9413 25.9059 39.1453 25.1979 39.1453C23.9139 39.1453 22.8879 38.7613 22.1199 37.9933C21.3639 37.2133 20.9859 36.1813 20.9859 34.8973C20.9859 33.6853 21.4239 32.6773 22.2999 31.8733C23.1879 31.0573 24.2979 30.6493 25.6299 30.6493C27.0219 30.6493 28.2339 30.9733 29.2659 31.6213V42.5473ZM25.4679 37.2193C26.1639 37.2193 26.7399 36.9733 27.1959 36.4813V32.9893C26.6559 32.7253 26.1279 32.5933 25.6119 32.5933C24.8679 32.5933 24.2799 32.8213 23.8479 33.2773C23.4159 33.7213 23.1999 34.2913 23.1999 34.9873C23.1999 35.6353 23.4039 36.1693 23.8119 36.5893C24.2319 37.0093 24.7839 37.2193 25.4679 37.2193ZM36.8006 30.8473H38.8706V38.9473H36.8006V37.9573C36.1526 38.7493 35.2886 39.1453 34.2086 39.1453C33.3446 39.1453 32.6546 38.8573 32.1386 38.2813C31.6226 37.7053 31.3646 36.8773 31.3646 35.7973V30.8473H33.4346V35.3653C33.4346 36.6013 33.9506 37.2193 34.9826 37.2193C35.6906 37.2193 36.2966 36.8893 36.8006 36.2293V30.8473ZM47.5314 36.6793L48.1254 38.1373C47.3214 38.8093 46.2894 39.1453 45.0294 39.1453C43.7334 39.1453 42.6774 38.7553 41.8614 37.9753C41.0694 37.2073 40.6734 36.1813 40.6734 34.8973C40.6734 33.6973 41.0634 32.6893 41.8434 31.8733C42.6234 31.0573 43.6614 30.6493 44.9574 30.6493C46.0254 30.6493 46.9314 31.0033 47.6754 31.7113C48.4194 32.4193 48.7914 33.3193 48.7914 34.4113C48.7914 34.8913 48.7494 35.2633 48.6654 35.5273H42.8154C42.8994 36.1153 43.1574 36.5773 43.5894 36.9133C44.0334 37.2493 44.5854 37.4173 45.2454 37.4173C46.1454 37.4173 46.9074 37.1713 47.5314 36.6793ZM44.8674 32.3773C43.6914 32.3773 42.9834 32.9653 42.7434 34.1413H46.7214C46.7334 33.6253 46.5654 33.2053 46.2174 32.8813C45.8814 32.5453 45.4314 32.3773 44.8674 32.3773ZM50.1886 33.1153C50.1886 32.3593 50.4646 31.7593 51.0166 31.3153C51.5686 30.8713 52.2826 30.6493 53.1586 30.6493C54.4786 30.6493 55.5046 30.9913 56.2366 31.6753L55.4626 33.1513C54.8026 32.6353 54.0706 32.3773 53.2666 32.3773C52.9786 32.3773 52.7386 32.4493 52.5466 32.5933C52.3546 32.7253 52.2586 32.8873 52.2586 33.0793C52.2586 33.4753 52.7686 33.8053 53.7886 34.0693C54.1606 34.1533 54.4906 34.2493 54.7786 34.3573C55.0666 34.4533 55.3606 34.5973 55.6606 34.7893C55.9726 34.9693 56.2126 35.2093 56.3806 35.5093C56.5486 35.8093 56.6326 36.1573 56.6326 36.5533C56.6326 37.3453 56.3326 37.9753 55.7326 38.4433C55.1446 38.9113 54.3526 39.1453 53.3566 39.1453C52.6486 39.1453 51.9586 38.9953 51.2866 38.6953C50.6026 38.3833 50.1646 38.0713 49.9726 37.7593L50.9806 36.4093C51.2086 36.6853 51.5866 36.9193 52.1146 37.1113C52.6546 37.3153 53.1166 37.4173 53.5006 37.4173C53.9686 37.4653 54.2986 37.3153 54.4906 36.9673C54.6826 36.6073 54.5566 36.3133 54.1126 36.0853C53.9326 35.9893 53.6506 35.8873 53.2666 35.7793C52.8946 35.6713 52.5466 35.5633 52.2226 35.4553C51.9106 35.3353 51.5866 35.1853 51.2506 35.0053C50.9266 34.8253 50.6686 34.5793 50.4766 34.2673C50.2846 33.9433 50.1886 33.5593 50.1886 33.1153ZM58.2767 35.8693V28.5973H60.3467V30.8473H62.9567V32.7913H60.3467V35.7433C60.3467 36.7153 60.6707 37.2013 61.3187 37.2013C61.7267 37.2013 62.1407 37.0453 62.5607 36.7333L63.1907 38.3353C62.5307 38.8633 61.7327 39.1273 60.7967 39.1273C59.9207 39.1273 59.2787 38.8633 58.8707 38.3353C58.4747 37.7953 58.2767 36.9733 58.2767 35.8693ZM69.6494 38.9473H69.4964V27.0473H69.6834C70.1707 27.0473 70.624 27.0416 71.0434 27.0303C71.882 27.0076 72.3807 26.9963 72.5394 26.9963C73.684 26.9963 74.6927 27.1549 75.5654 27.4723C76.4494 27.7783 77.152 28.2089 77.6734 28.7643C78.1947 29.3083 78.58 29.9259 78.8294 30.6173C79.09 31.2973 79.2204 32.0339 79.2204 32.8273C79.2204 34.6179 78.6254 36.0913 77.4354 37.2473C76.2567 38.4033 74.5794 38.9813 72.4034 38.9813C71.916 38.9813 71.4684 38.9756 71.0604 38.9643C70.6524 38.9529 70.182 38.9473 69.6494 38.9473ZM72.5054 27.8803C72.256 27.8803 71.8877 27.8916 71.4004 27.9143C70.9244 27.9256 70.6014 27.9313 70.4314 27.9313V38.0633C70.8054 38.0633 71.1567 38.0689 71.4854 38.0803C71.814 38.0803 72.052 38.0859 72.1994 38.0973C72.3467 38.0973 72.426 38.0973 72.4374 38.0973C74.2847 38.0973 75.7127 37.6099 76.7214 36.6353C77.73 35.6493 78.2344 34.3799 78.2344 32.8273C78.2344 31.3653 77.7527 30.1753 76.7894 29.2573C75.8147 28.3393 74.3867 27.8803 72.5054 27.8803ZM87.4555 37.3323L87.7445 38.0123C87.0532 38.7376 86.1125 39.1003 84.9225 39.1003C83.6985 39.1003 82.7182 38.7376 81.9815 38.0123C81.2335 37.2869 80.8595 36.3236 80.8595 35.1223C80.8595 33.9663 81.1995 33.0143 81.8795 32.2663C82.5709 31.5183 83.5229 31.1443 84.7355 31.1443C85.7215 31.1443 86.5489 31.4616 87.2175 32.0963C87.8749 32.7196 88.2035 33.5526 88.2035 34.5953C88.2035 34.8673 88.1865 35.1053 88.1525 35.3093H81.8455C81.8795 36.2273 82.1799 36.9526 82.7465 37.4853C83.3132 38.0066 84.0555 38.2673 84.9735 38.2673C86.0389 38.2673 86.8662 37.9556 87.4555 37.3323ZM84.6505 31.9773C83.8345 31.9773 83.1715 32.2153 82.6615 32.6913C82.1629 33.1673 81.8739 33.7963 81.7945 34.5783H87.3025C87.2912 33.7736 87.0475 33.1389 86.5715 32.6743C86.0955 32.2096 85.4552 31.9773 84.6505 31.9773ZM94.2796 36.9413C94.2796 36.5899 94.1323 36.3066 93.8376 36.0913C93.5543 35.8759 93.2029 35.7059 92.7836 35.5813C92.3756 35.4566 91.9619 35.3206 91.5426 35.1733C91.1233 35.0146 90.7663 34.7709 90.4716 34.4423C90.1883 34.1023 90.0466 33.6773 90.0466 33.1673C90.0466 32.5553 90.2733 32.0679 90.7266 31.7053C91.1799 31.3313 91.7749 31.1443 92.5116 31.1443C93.5656 31.1443 94.3646 31.4276 94.9086 31.9943L94.5346 32.6573C94.0133 32.1699 93.3446 31.9263 92.5286 31.9263C92.0753 31.9263 91.7013 32.0453 91.4066 32.2833C91.1233 32.5099 90.9816 32.7989 90.9816 33.1503C90.9816 33.5129 91.1233 33.8133 91.4066 34.0513C91.7013 34.2779 92.0526 34.4593 92.4606 34.5953C92.8799 34.7199 93.2993 34.8559 93.7186 35.0033C94.1379 35.1506 94.4893 35.3829 94.7726 35.7003C95.0673 36.0176 95.2146 36.4199 95.2146 36.9073C95.2146 37.5986 94.9539 38.1369 94.4326 38.5223C93.9226 38.9076 93.2653 39.1003 92.4606 39.1003C91.9619 39.1003 91.4406 38.9869 90.8966 38.7603C90.3866 38.5449 90.0353 38.2899 89.8426 37.9953L90.3356 37.4173C90.5509 37.6779 90.8739 37.8933 91.3046 38.0633C91.7466 38.2333 92.1659 38.3183 92.5626 38.3183C93.0613 38.3183 93.4693 38.1993 93.7866 37.9613C94.1153 37.7119 94.2796 37.3719 94.2796 36.9413ZM98.7331 38.9473H97.8491V31.2973H98.7331V38.9473ZM97.6961 28.3223C97.6961 28.1523 97.7584 28.0163 97.8831 27.9143C98.0077 27.8123 98.1551 27.7613 98.3251 27.7613C98.4724 27.7613 98.6027 27.8179 98.7161 27.9313C98.8407 28.0333 98.9031 28.1636 98.9031 28.3223C98.9031 28.5149 98.8464 28.6679 98.7331 28.7813C98.6311 28.8946 98.4951 28.9513 98.3251 28.9513C98.1437 28.9513 97.9907 28.8946 97.8661 28.7813C97.7527 28.6679 97.6961 28.5149 97.6961 28.3223ZM100.752 40.0693C100.752 39.4913 100.956 39.0039 101.364 38.6073C101.772 38.2106 102.35 37.9329 103.098 37.7743C102.928 37.5703 102.843 37.3266 102.843 37.0433C102.843 36.7599 102.939 36.5049 103.132 36.2783C102.633 36.0629 102.242 35.7399 101.959 35.3093C101.675 34.8786 101.534 34.3913 101.534 33.8473C101.534 33.0653 101.811 32.4193 102.367 31.9093C102.922 31.3993 103.653 31.1443 104.56 31.1443C105.285 31.1443 105.925 31.3369 106.481 31.7223H106.498L108.674 31.1443V31.9773L107.127 32.3683C107.433 32.8329 107.586 33.3259 107.586 33.8473C107.586 34.6066 107.302 35.2526 106.736 35.7853C106.169 36.2953 105.444 36.5503 104.56 36.5503C104.242 36.5503 103.987 36.5276 103.795 36.4823C103.693 36.6296 103.642 36.8166 103.642 37.0433C103.642 37.3039 103.715 37.5079 103.863 37.6553C104.293 37.6326 104.531 37.6213 104.577 37.6213C105.744 37.6213 106.673 37.8366 107.365 38.2673C108.056 38.6979 108.402 39.2986 108.402 40.0693C108.402 40.8286 108.056 41.4179 107.365 41.8373C106.673 42.2679 105.744 42.4833 104.577 42.4833C103.398 42.4833 102.463 42.2736 101.772 41.8543C101.092 41.4349 100.752 40.8399 100.752 40.0693ZM101.653 40.0693C101.653 40.5679 101.913 40.9589 102.435 41.2423C102.967 41.5369 103.681 41.6843 104.577 41.6843C105.461 41.6843 106.169 41.5369 106.702 41.2423C107.234 40.9476 107.501 40.5566 107.501 40.0693C107.501 39.5706 107.234 39.1739 106.702 38.8793C106.18 38.5733 105.472 38.4203 104.577 38.4203C103.693 38.4203 102.984 38.5676 102.452 38.8623C101.919 39.1569 101.653 39.5593 101.653 40.0693ZM103.03 32.4873C102.633 32.8499 102.435 33.3033 102.435 33.8473C102.435 34.3913 102.633 34.8446 103.03 35.2073C103.426 35.5699 103.936 35.7513 104.56 35.7513C105.183 35.7513 105.693 35.5699 106.09 35.2073C106.486 34.8446 106.685 34.3913 106.685 33.8473C106.685 33.3033 106.481 32.8499 106.073 32.4873C105.676 32.1246 105.172 31.9433 104.56 31.9433C103.959 31.9433 103.449 32.1246 103.03 32.4873ZM111.075 38.9473H110.191V31.2973H111.075V32.3683C111.392 32.0169 111.8 31.7279 112.299 31.5013C112.809 31.2746 113.319 31.1613 113.829 31.1613C114.894 31.1613 115.693 31.4389 116.226 31.9943C116.758 32.5496 117.025 33.4109 117.025 34.5783V38.9473H116.141V34.7483C116.141 32.9123 115.302 31.9943 113.625 31.9943C113.137 31.9943 112.661 32.1076 112.197 32.3343C111.732 32.5496 111.358 32.8273 111.075 33.1673V38.9473Z" fill="#292929"/><path d="M23.264 5.8C24.2987 5.8 25.1573 6.14667 25.84 6.84C26.5333 7.52267 26.88 8.376 26.88 9.4C26.88 10.4133 26.5333 11.2667 25.84 11.96C25.1573 12.6533 24.2987 13 23.264 13H20.688V17H19.2V5.8H23.264ZM23.264 11.608C23.8827 11.608 24.3947 11.4 24.8 10.984C25.2053 10.5573 25.408 10.0293 25.408 9.4C25.408 8.76 25.2053 8.232 24.8 7.816C24.3947 7.4 23.8827 7.192 23.264 7.192H20.688V11.608H23.264ZM34.5081 9H35.9001V17H34.5081V15.624C33.8148 16.68 32.8068 17.208 31.4841 17.208C30.3641 17.208 29.4095 16.8027 28.6201 15.992C27.8308 15.1707 27.4361 14.1733 27.4361 13C27.4361 11.8267 27.8308 10.8347 28.6201 10.024C29.4095 9.20267 30.3641 8.792 31.4841 8.792C32.8068 8.792 33.8148 9.32 34.5081 10.376V9ZM31.6601 15.864C32.4708 15.864 33.1481 15.592 33.6921 15.048C34.2361 14.4933 34.5081 13.8107 34.5081 13C34.5081 12.1893 34.2361 11.512 33.6921 10.968C33.1481 10.4133 32.4708 10.136 31.6601 10.136C30.8601 10.136 30.1881 10.4133 29.6441 10.968C29.1001 11.512 28.8281 12.1893 28.8281 13C28.8281 13.8107 29.1001 14.4933 29.6441 15.048C30.1881 15.592 30.8601 15.864 31.6601 15.864ZM42.3291 12.904C43.2145 13.2667 43.6571 13.9013 43.6571 14.808C43.6571 15.48 43.3905 16.0507 42.8571 16.52C42.3238 16.9787 41.5665 17.208 40.5851 17.208C38.9851 17.208 37.9131 16.568 37.3691 15.288L38.5371 14.6C38.8465 15.4747 39.5345 15.912 40.6011 15.912C41.1345 15.912 41.5451 15.8 41.8331 15.576C42.1318 15.3413 42.2811 15.0427 42.2811 14.68C42.2811 14.36 42.1585 14.0987 41.9131 13.896C41.6785 13.6933 41.3585 13.592 40.9531 13.592H39.7851V12.328H40.6491C41.0545 12.328 41.3691 12.232 41.5931 12.04C41.8171 11.8373 41.9291 11.5653 41.9291 11.224C41.9291 10.8827 41.7958 10.6053 41.5291 10.392C41.2731 10.1787 40.9158 10.072 40.4571 10.072C39.5611 10.072 38.9531 10.4507 38.6331 11.208L37.4971 10.552C38.0625 9.37867 39.0491 8.792 40.4571 8.792C41.3318 8.792 42.0198 9.016 42.5211 9.464C43.0331 9.912 43.2891 10.4613 43.2891 11.112C43.2891 11.9227 42.9691 12.52 42.3291 12.904ZM49.5814 8.792C50.7014 8.792 51.656 9.20267 52.4454 10.024C53.2347 10.8347 53.6294 11.8267 53.6294 13C53.6294 14.1733 53.2347 15.1707 52.4454 15.992C51.656 16.8027 50.7014 17.208 49.5814 17.208C48.2587 17.208 47.2507 16.68 46.5574 15.624V20.2H45.1654V9H46.5574V10.376C47.2507 9.32 48.2587 8.792 49.5814 8.792ZM49.4054 15.864C50.2054 15.864 50.8774 15.592 51.4214 15.048C51.9654 14.4933 52.2374 13.8107 52.2374 13C52.2374 12.1893 51.9654 11.512 51.4214 10.968C50.8774 10.4133 50.2054 10.136 49.4054 10.136C48.5947 10.136 47.9174 10.4133 47.3734 10.968C46.8294 11.512 46.5574 12.1893 46.5574 13C46.5574 13.8107 46.8294 14.4933 47.3734 15.048C47.9174 15.592 48.5947 15.864 49.4054 15.864ZM61.9144 9H63.3064V17H61.9144V15.624C61.221 16.68 60.213 17.208 58.8904 17.208C57.7704 17.208 56.8157 16.8027 56.0264 15.992C55.237 15.1707 54.8424 14.1733 54.8424 13C54.8424 11.8267 55.237 10.8347 56.0264 10.024C56.8157 9.20267 57.7704 8.792 58.8904 8.792C60.213 8.792 61.221 9.32 61.9144 10.376V9ZM59.0664 15.864C59.877 15.864 60.5544 15.592 61.0984 15.048C61.6424 14.4933 61.9144 13.8107 61.9144 13C61.9144 12.1893 61.6424 11.512 61.0984 10.968C60.5544 10.4133 59.877 10.136 59.0664 10.136C58.2664 10.136 57.5944 10.4133 57.0504 10.968C56.5064 11.512 56.2344 12.1893 56.2344 13C56.2344 13.8107 56.5064 14.4933 57.0504 15.048C57.5944 15.592 58.2664 15.864 59.0664 15.864ZM69.0474 17.208C67.8634 17.208 66.8874 16.8187 66.1194 16.04C65.3514 15.2613 64.9674 14.2587 64.9674 13.032C64.9674 11.6667 65.1647 10.616 65.5594 9.88C65.9647 9.144 66.786 8.47733 68.0234 7.88C68.2474 7.77333 68.5514 7.63467 68.9354 7.464C69.33 7.29333 69.618 7.16533 69.7994 7.08C69.9807 6.984 70.1834 6.86133 70.4074 6.712C70.6314 6.552 70.7967 6.38133 70.9034 6.2C71.0207 6.008 71.106 5.78933 71.1594 5.544L72.2794 6.184C72.2474 6.35467 72.2047 6.51467 72.1514 6.664C72.098 6.80267 72.018 6.94133 71.9114 7.08C71.8154 7.208 71.73 7.32 71.6554 7.416C71.5807 7.512 71.4527 7.61867 71.2714 7.736C71.1007 7.84267 70.9727 7.92267 70.8874 7.976C70.8127 8.02933 70.658 8.10933 70.4234 8.216C70.1994 8.32267 70.0447 8.39733 69.9594 8.44C69.8847 8.472 69.7087 8.54667 69.4314 8.664C69.154 8.77067 68.9834 8.84 68.9194 8.872C68.194 9.18133 67.6607 9.496 67.3194 9.816C66.9887 10.136 66.7487 10.5413 66.5994 11.032C66.9407 10.6053 67.3674 10.2907 67.8794 10.088C68.3914 9.88533 68.9034 9.784 69.4154 9.784C70.418 9.784 71.266 10.1253 71.9594 10.808C72.6634 11.4907 73.0154 12.3707 73.0154 13.448C73.0154 14.536 72.642 15.4373 71.8954 16.152C71.1487 16.856 70.1994 17.208 69.0474 17.208ZM67.1754 15.16C67.6767 15.6293 68.3007 15.864 69.0474 15.864C69.794 15.864 70.4074 15.6347 70.8874 15.176C71.378 14.7173 71.6234 14.1413 71.6234 13.448C71.6234 12.7333 71.3887 12.152 70.9194 11.704C70.4607 11.2453 69.8527 11.016 69.0954 11.016C68.4127 11.016 67.794 11.2347 67.2394 11.672C66.6954 12.0987 66.4234 12.664 66.4234 13.368C66.4234 14.0933 66.674 14.6907 67.1754 15.16ZM81.2455 15.992C80.4242 16.8027 79.4268 17.208 78.2535 17.208C77.0802 17.208 76.0828 16.8027 75.2615 15.992C74.4508 15.1813 74.0455 14.184 74.0455 13C74.0455 11.816 74.4508 10.8187 75.2615 10.008C76.0828 9.19733 77.0802 8.792 78.2535 8.792C79.4268 8.792 80.4242 9.19733 81.2455 10.008C82.0668 10.8187 82.4775 11.816 82.4775 13C82.4775 14.184 82.0668 15.1813 81.2455 15.992ZM78.2535 15.848C79.0535 15.848 79.7255 15.576 80.2695 15.032C80.8135 14.488 81.0855 13.8107 81.0855 13C81.0855 12.1893 80.8135 11.512 80.2695 10.968C79.7255 10.424 79.0535 10.152 78.2535 10.152C77.4642 10.152 76.7975 10.424 76.2535 10.968C75.7095 11.512 75.4375 12.1893 75.4375 13C75.4375 13.8107 75.7095 14.488 76.2535 15.032C76.7975 15.576 77.4642 15.848 78.2535 15.848ZM89.758 9V10.344H87.038V17H85.646V10.344H82.91V9H89.758ZM97.2894 9H98.6814V17H97.2894V15.624C96.596 16.68 95.588 17.208 94.2654 17.208C93.1454 17.208 92.1907 16.8027 91.4014 15.992C90.612 15.1707 90.2174 14.1733 90.2174 13C90.2174 11.8267 90.612 10.8347 91.4014 10.024C92.1907 9.20267 93.1454 8.792 94.2654 8.792C95.588 8.792 96.596 9.32 97.2894 10.376V9ZM94.4414 15.864C95.252 15.864 95.9294 15.592 96.4734 15.048C97.0174 14.4933 97.2894 13.8107 97.2894 13C97.2894 12.1893 97.0174 11.512 96.4734 10.968C95.9294 10.4133 95.252 10.136 94.4414 10.136C93.6414 10.136 92.9694 10.4133 92.4254 10.968C91.8814 11.512 91.6094 12.1893 91.6094 13C91.6094 13.8107 91.8814 14.4933 92.4254 15.048C92.9694 15.592 93.6414 15.864 94.4414 15.864ZM106.326 9H107.718V17H106.326V13.656H102.182V17H100.79V9H102.182V12.328H106.326V9ZM116.589 15.992C115.768 16.8027 114.771 17.208 113.597 17.208C112.424 17.208 111.427 16.8027 110.605 15.992C109.795 15.1813 109.389 14.184 109.389 13C109.389 11.816 109.795 10.8187 110.605 10.008C111.427 9.19733 112.424 8.792 113.597 8.792C114.771 8.792 115.768 9.19733 116.589 10.008C117.411 10.8187 117.821 11.816 117.821 13C117.821 14.184 117.411 15.1813 116.589 15.992ZM113.597 15.848C114.397 15.848 115.069 15.576 115.613 15.032C116.157 14.488 116.429 13.8107 116.429 13C116.429 12.1893 116.157 11.512 115.613 10.968C115.069 10.424 114.397 10.152 113.597 10.152C112.808 10.152 112.141 10.424 111.597 10.968C111.053 11.512 110.781 12.1893 110.781 13C110.781 13.8107 111.053 14.488 111.597 15.032C112.141 15.576 112.808 15.848 113.597 15.848Z" fill="white"/></symbol><symbol viewBox="0 0 173 47" fill="none" id="requestDesignIconCompanyMobile" xmlns="http://www.w3.org/2000/svg"><path d="M150.9 8.60035L137.1 22.3996C135.664 23.8357 135.664 26.1642 137.1 27.6003L150.9 41.3996C152.336 42.8357 154.664 42.8357 156.1 41.3996L169.9 27.6003C171.336 26.1642 171.336 23.8357 169.9 22.3996L156.1 8.60035C154.664 7.16421 152.336 7.16421 150.9 8.60035Z" fill="white"/><path d="M153.543 35.8818C159.553 35.8818 164.424 31.0099 164.424 25.0002C164.424 18.9904 159.553 14.1185 153.543 14.1185C147.533 14.1185 142.661 18.9904 142.661 25.0002C142.661 31.0099 147.533 35.8818 153.543 35.8818Z" fill="#101010"/><path d="M156.762 18.1995H150.419C148.388 18.1995 146.741 19.846 146.741 21.877V28.2206C146.741 30.2516 148.388 31.8981 150.419 31.8981H156.762C158.793 31.8981 160.44 30.2516 160.44 28.2206V21.877C160.44 19.846 158.793 18.1995 156.762 18.1995Z" fill="white"/><path d="M153.524 29.7234C156.142 29.7234 158.265 27.6006 158.265 24.982C158.265 22.3633 156.142 20.2405 153.524 20.2405C150.905 20.2405 148.782 22.3633 148.782 24.982C148.782 27.6006 150.905 29.7234 153.524 29.7234Z" fill="#101010"/><path d="M152.809 23.6938L152.37 24.1332C151.891 24.6119 151.891 25.3881 152.37 25.8668L152.809 26.3062C153.288 26.785 154.064 26.785 154.543 26.3062L154.982 25.8668C155.461 25.3881 155.461 24.6119 154.982 24.1332L154.543 23.6938C154.064 23.215 153.288 23.215 152.809 23.6938Z" fill="white"/><path d="M4.46 34.2313V38.9473H2.246V26.3473C2.87 26.3473 3.548 26.3413 4.28 26.3293C5.012 26.3173 5.612 26.3113 6.08 26.3113C9.128 26.3113 10.652 27.6073 10.652 30.1993C10.652 31.1593 10.406 31.9513 9.914 32.5753C9.422 33.1753 8.858 33.5833 8.222 33.7993L12.164 38.9473H9.482L6.008 34.2313H4.46ZM5.972 28.3813C5.912 28.3813 5.816 28.3873 5.684 28.3993C5.552 28.3993 5.366 28.4053 5.126 28.4173C4.886 28.4173 4.664 28.4173 4.46 28.4173V32.1613H5.9C6.608 32.1613 7.184 31.9873 7.628 31.6393C8.084 31.2913 8.312 30.8173 8.312 30.2173C8.312 28.9933 7.532 28.3813 5.972 28.3813ZM19.1154 36.6793L19.7094 38.1373C18.9054 38.8093 17.8734 39.1453 16.6134 39.1453C15.3174 39.1453 14.2614 38.7553 13.4454 37.9753C12.6534 37.2073 12.2574 36.1813 12.2574 34.8973C12.2574 33.6973 12.6474 32.6893 13.4274 31.8733C14.2074 31.0573 15.2454 30.6493 16.5414 30.6493C17.6094 30.6493 18.5154 31.0033 19.2594 31.7113C20.0034 32.4193 20.3754 33.3193 20.3754 34.4113C20.3754 34.8913 20.3334 35.2633 20.2494 35.5273H14.3994C14.4834 36.1153 14.7414 36.5773 15.1734 36.9133C15.6174 37.2493 16.1694 37.4173 16.8294 37.4173C17.7294 37.4173 18.4914 37.1713 19.1154 36.6793ZM16.4514 32.3773C15.2754 32.3773 14.5674 32.9653 14.3274 34.1413H18.3054C18.3174 33.6253 18.1494 33.2053 17.8014 32.8813C17.4654 32.5453 17.0154 32.3773 16.4514 32.3773ZM29.7659 42.5473H27.6959V38.5333C27.0719 38.9413 26.4059 39.1453 25.6979 39.1453C24.4139 39.1453 23.3879 38.7613 22.6199 37.9933C21.8639 37.2133 21.4859 36.1813 21.4859 34.8973C21.4859 33.6853 21.9239 32.6773 22.7999 31.8733C23.6879 31.0573 24.7979 30.6493 26.1299 30.6493C27.5219 30.6493 28.7339 30.9733 29.7659 31.6213V42.5473ZM25.9679 37.2193C26.6639 37.2193 27.2399 36.9733 27.6959 36.4813V32.9893C27.1559 32.7253 26.6279 32.5933 26.1119 32.5933C25.3679 32.5933 24.7799 32.8213 24.3479 33.2773C23.9159 33.7213 23.6999 34.2913 23.6999 34.9873C23.6999 35.6353 23.9039 36.1693 24.3119 36.5893C24.7319 37.0093 25.2839 37.2193 25.9679 37.2193ZM37.3006 30.8473H39.3706V38.9473H37.3006V37.9573C36.6526 38.7493 35.7886 39.1453 34.7086 39.1453C33.8446 39.1453 33.1546 38.8573 32.6386 38.2813C32.1226 37.7053 31.8646 36.8773 31.8646 35.7973V30.8473H33.9346V35.3653C33.9346 36.6013 34.4506 37.2193 35.4826 37.2193C36.1906 37.2193 36.7966 36.8893 37.3006 36.2293V30.8473ZM48.0314 36.6793L48.6254 38.1373C47.8214 38.8093 46.7894 39.1453 45.5294 39.1453C44.2334 39.1453 43.1774 38.7553 42.3614 37.9753C41.5694 37.2073 41.1734 36.1813 41.1734 34.8973C41.1734 33.6973 41.5634 32.6893 42.3434 31.8733C43.1234 31.0573 44.1614 30.6493 45.4574 30.6493C46.5254 30.6493 47.4314 31.0033 48.1754 31.7113C48.9194 32.4193 49.2914 33.3193 49.2914 34.4113C49.2914 34.8913 49.2494 35.2633 49.1654 35.5273H43.3154C43.3994 36.1153 43.6574 36.5773 44.0894 36.9133C44.5334 37.2493 45.0854 37.4173 45.7454 37.4173C46.6454 37.4173 47.4074 37.1713 48.0314 36.6793ZM45.3674 32.3773C44.1914 32.3773 43.4834 32.9653 43.2434 34.1413H47.2214C47.2334 33.6253 47.0654 33.2053 46.7174 32.8813C46.3814 32.5453 45.9314 32.3773 45.3674 32.3773ZM50.6886 33.1153C50.6886 32.3593 50.9646 31.7593 51.5166 31.3153C52.0686 30.8713 52.7826 30.6493 53.6586 30.6493C54.9786 30.6493 56.0046 30.9913 56.7366 31.6753L55.9626 33.1513C55.3026 32.6353 54.5706 32.3773 53.7666 32.3773C53.4786 32.3773 53.2386 32.4493 53.0466 32.5933C52.8546 32.7253 52.7586 32.8873 52.7586 33.0793C52.7586 33.4753 53.2686 33.8053 54.2886 34.0693C54.6606 34.1533 54.9906 34.2493 55.2786 34.3573C55.5666 34.4533 55.8606 34.5973 56.1606 34.7893C56.4726 34.9693 56.7126 35.2093 56.8806 35.5093C57.0486 35.8093 57.1326 36.1573 57.1326 36.5533C57.1326 37.3453 56.8326 37.9753 56.2326 38.4433C55.6446 38.9113 54.8526 39.1453 53.8566 39.1453C53.1486 39.1453 52.4586 38.9953 51.7866 38.6953C51.1026 38.3833 50.6646 38.0713 50.4726 37.7593L51.4806 36.4093C51.7086 36.6853 52.0866 36.9193 52.6146 37.1113C53.1546 37.3153 53.6166 37.4173 54.0006 37.4173C54.4686 37.4653 54.7986 37.3153 54.9906 36.9673C55.1826 36.6073 55.0566 36.3133 54.6126 36.0853C54.4326 35.9893 54.1506 35.8873 53.7666 35.7793C53.3946 35.6713 53.0466 35.5633 52.7226 35.4553C52.4106 35.3353 52.0866 35.1853 51.7506 35.0053C51.4266 34.8253 51.1686 34.5793 50.9766 34.2673C50.7846 33.9433 50.6886 33.5593 50.6886 33.1153ZM58.7767 35.8693V28.5973H60.8467V30.8473H63.4567V32.7913H60.8467V35.7433C60.8467 36.7153 61.1707 37.2013 61.8187 37.2013C62.2267 37.2013 62.6407 37.0453 63.0607 36.7333L63.6907 38.3353C63.0307 38.8633 62.2327 39.1273 61.2967 39.1273C60.4207 39.1273 59.7787 38.8633 59.3707 38.3353C58.9747 37.7953 58.7767 36.9733 58.7767 35.8693ZM70.1494 38.9473H69.9964V27.0473H70.1834C70.6707 27.0473 71.124 27.0416 71.5434 27.0303C72.382 27.0076 72.8807 26.9963 73.0394 26.9963C74.184 26.9963 75.1927 27.1549 76.0654 27.4723C76.9494 27.7783 77.652 28.2089 78.1734 28.7643C78.6947 29.3083 79.08 29.9259 79.3294 30.6173C79.59 31.2973 79.7204 32.0339 79.7204 32.8273C79.7204 34.6179 79.1254 36.0913 77.9354 37.2473C76.7567 38.4033 75.0794 38.9813 72.9034 38.9813C72.416 38.9813 71.9684 38.9756 71.5604 38.9643C71.1524 38.9529 70.682 38.9473 70.1494 38.9473ZM73.0054 27.8803C72.756 27.8803 72.3877 27.8916 71.9004 27.9143C71.4244 27.9256 71.1014 27.9313 70.9314 27.9313V38.0633C71.3054 38.0633 71.6567 38.0689 71.9854 38.0803C72.314 38.0803 72.552 38.0859 72.6994 38.0973C72.8467 38.0973 72.926 38.0973 72.9374 38.0973C74.7847 38.0973 76.2127 37.6099 77.2214 36.6353C78.23 35.6493 78.7344 34.3799 78.7344 32.8273C78.7344 31.3653 78.2527 30.1753 77.2894 29.2573C76.3147 28.3393 74.8867 27.8803 73.0054 27.8803ZM87.9555 37.3323L88.2445 38.0123C87.5532 38.7376 86.6125 39.1003 85.4225 39.1003C84.1985 39.1003 83.2182 38.7376 82.4815 38.0123C81.7335 37.2869 81.3595 36.3236 81.3595 35.1223C81.3595 33.9663 81.6995 33.0143 82.3795 32.2663C83.0709 31.5183 84.0229 31.1443 85.2355 31.1443C86.2215 31.1443 87.0489 31.4616 87.7175 32.0963C88.3749 32.7196 88.7035 33.5526 88.7035 34.5953C88.7035 34.8673 88.6865 35.1053 88.6525 35.3093H82.3455C82.3795 36.2273 82.6799 36.9526 83.2465 37.4853C83.8132 38.0066 84.5555 38.2673 85.4735 38.2673C86.5389 38.2673 87.3662 37.9556 87.9555 37.3323ZM85.1505 31.9773C84.3345 31.9773 83.6715 32.2153 83.1615 32.6913C82.6629 33.1673 82.3739 33.7963 82.2945 34.5783H87.8025C87.7912 33.7736 87.5475 33.1389 87.0715 32.6743C86.5955 32.2096 85.9552 31.9773 85.1505 31.9773ZM94.7796 36.9413C94.7796 36.5899 94.6323 36.3066 94.3376 36.0913C94.0543 35.8759 93.7029 35.7059 93.2836 35.5813C92.8756 35.4566 92.4619 35.3206 92.0426 35.1733C91.6233 35.0146 91.2663 34.7709 90.9716 34.4423C90.6883 34.1023 90.5466 33.6773 90.5466 33.1673C90.5466 32.5553 90.7733 32.0679 91.2266 31.7053C91.6799 31.3313 92.2749 31.1443 93.0116 31.1443C94.0656 31.1443 94.8646 31.4276 95.4086 31.9943L95.0346 32.6573C94.5133 32.1699 93.8446 31.9263 93.0286 31.9263C92.5753 31.9263 92.2013 32.0453 91.9066 32.2833C91.6233 32.5099 91.4816 32.7989 91.4816 33.1503C91.4816 33.5129 91.6233 33.8133 91.9066 34.0513C92.2013 34.2779 92.5526 34.4593 92.9606 34.5953C93.3799 34.7199 93.7993 34.8559 94.2186 35.0033C94.6379 35.1506 94.9893 35.3829 95.2726 35.7003C95.5673 36.0176 95.7146 36.4199 95.7146 36.9073C95.7146 37.5986 95.4539 38.1369 94.9326 38.5223C94.4226 38.9076 93.7653 39.1003 92.9606 39.1003C92.4619 39.1003 91.9406 38.9869 91.3966 38.7603C90.8866 38.5449 90.5353 38.2899 90.3426 37.9953L90.8356 37.4173C91.0509 37.6779 91.3739 37.8933 91.8046 38.0633C92.2466 38.2333 92.6659 38.3183 93.0626 38.3183C93.5613 38.3183 93.9693 38.1993 94.2866 37.9613C94.6153 37.7119 94.7796 37.3719 94.7796 36.9413ZM99.2331 38.9473H98.3491V31.2973H99.2331V38.9473ZM98.1961 28.3223C98.1961 28.1523 98.2584 28.0163 98.3831 27.9143C98.5077 27.8123 98.6551 27.7613 98.8251 27.7613C98.9724 27.7613 99.1027 27.8179 99.2161 27.9313C99.3407 28.0333 99.4031 28.1636 99.4031 28.3223C99.4031 28.5149 99.3464 28.6679 99.2331 28.7813C99.1311 28.8946 98.9951 28.9513 98.8251 28.9513C98.6437 28.9513 98.4907 28.8946 98.3661 28.7813C98.2527 28.6679 98.1961 28.5149 98.1961 28.3223ZM101.252 40.0693C101.252 39.4913 101.456 39.0039 101.864 38.6073C102.272 38.2106 102.85 37.9329 103.598 37.7743C103.428 37.5703 103.343 37.3266 103.343 37.0433C103.343 36.7599 103.439 36.5049 103.632 36.2783C103.133 36.0629 102.742 35.7399 102.459 35.3093C102.175 34.8786 102.034 34.3913 102.034 33.8473C102.034 33.0653 102.311 32.4193 102.867 31.9093C103.422 31.3993 104.153 31.1443 105.06 31.1443C105.785 31.1443 106.425 31.3369 106.981 31.7223H106.998L109.174 31.1443V31.9773L107.627 32.3683C107.933 32.8329 108.086 33.3259 108.086 33.8473C108.086 34.6066 107.802 35.2526 107.236 35.7853C106.669 36.2953 105.944 36.5503 105.06 36.5503C104.742 36.5503 104.487 36.5276 104.295 36.4823C104.193 36.6296 104.142 36.8166 104.142 37.0433C104.142 37.3039 104.215 37.5079 104.363 37.6553C104.793 37.6326 105.031 37.6213 105.077 37.6213C106.244 37.6213 107.173 37.8366 107.865 38.2673C108.556 38.6979 108.902 39.2986 108.902 40.0693C108.902 40.8286 108.556 41.4179 107.865 41.8373C107.173 42.2679 106.244 42.4833 105.077 42.4833C103.898 42.4833 102.963 42.2736 102.272 41.8543C101.592 41.4349 101.252 40.8399 101.252 40.0693ZM102.153 40.0693C102.153 40.5679 102.413 40.9589 102.935 41.2423C103.467 41.5369 104.181 41.6843 105.077 41.6843C105.961 41.6843 106.669 41.5369 107.202 41.2423C107.734 40.9476 108.001 40.5566 108.001 40.0693C108.001 39.5706 107.734 39.1739 107.202 38.8793C106.68 38.5733 105.972 38.4203 105.077 38.4203C104.193 38.4203 103.484 38.5676 102.952 38.8623C102.419 39.1569 102.153 39.5593 102.153 40.0693ZM103.53 32.4873C103.133 32.8499 102.935 33.3033 102.935 33.8473C102.935 34.3913 103.133 34.8446 103.53 35.2073C103.926 35.5699 104.436 35.7513 105.06 35.7513C105.683 35.7513 106.193 35.5699 106.59 35.2073C106.986 34.8446 107.185 34.3913 107.185 33.8473C107.185 33.3033 106.981 32.8499 106.573 32.4873C106.176 32.1246 105.672 31.9433 105.06 31.9433C104.459 31.9433 103.949 32.1246 103.53 32.4873ZM111.575 38.9473H110.691V31.2973H111.575V32.3683C111.892 32.0169 112.3 31.7279 112.799 31.5013C113.309 31.2746 113.819 31.1613 114.329 31.1613C115.394 31.1613 116.193 31.4389 116.726 31.9943C117.258 32.5496 117.525 33.4109 117.525 34.5783V38.9473H116.641V34.7483C116.641 32.9123 115.802 31.9943 114.125 31.9943C113.637 31.9943 113.161 32.1076 112.697 32.3343C112.232 32.5496 111.858 32.8273 111.575 33.1673V38.9473Z" fill="white"/><path d="M23.764 5.8C24.7987 5.8 25.6573 6.14667 26.34 6.84C27.0333 7.52267 27.38 8.376 27.38 9.4C27.38 10.4133 27.0333 11.2667 26.34 11.96C25.6573 12.6533 24.7987 13 23.764 13H21.188V17H19.7V5.8H23.764ZM23.764 11.608C24.3827 11.608 24.8947 11.4 25.3 10.984C25.7053 10.5573 25.908 10.0293 25.908 9.4C25.908 8.76 25.7053 8.232 25.3 7.816C24.8947 7.4 24.3827 7.192 23.764 7.192H21.188V11.608H23.764ZM35.0081 9H36.4001V17H35.0081V15.624C34.3148 16.68 33.3068 17.208 31.9841 17.208C30.8641 17.208 29.9095 16.8027 29.1201 15.992C28.3308 15.1707 27.9361 14.1733 27.9361 13C27.9361 11.8267 28.3308 10.8347 29.1201 10.024C29.9095 9.20267 30.8641 8.792 31.9841 8.792C33.3068 8.792 34.3148 9.32 35.0081 10.376V9ZM32.1601 15.864C32.9708 15.864 33.6481 15.592 34.1921 15.048C34.7361 14.4933 35.0081 13.8107 35.0081 13C35.0081 12.1893 34.7361 11.512 34.1921 10.968C33.6481 10.4133 32.9708 10.136 32.1601 10.136C31.3601 10.136 30.6881 10.4133 30.1441 10.968C29.6001 11.512 29.3281 12.1893 29.3281 13C29.3281 13.8107 29.6001 14.4933 30.1441 15.048C30.6881 15.592 31.3601 15.864 32.1601 15.864ZM42.8291 12.904C43.7145 13.2667 44.1571 13.9013 44.1571 14.808C44.1571 15.48 43.8905 16.0507 43.3571 16.52C42.8238 16.9787 42.0665 17.208 41.0851 17.208C39.4851 17.208 38.4131 16.568 37.8691 15.288L39.0371 14.6C39.3465 15.4747 40.0345 15.912 41.1011 15.912C41.6345 15.912 42.0451 15.8 42.3331 15.576C42.6318 15.3413 42.7811 15.0427 42.7811 14.68C42.7811 14.36 42.6585 14.0987 42.4131 13.896C42.1785 13.6933 41.8585 13.592 41.4531 13.592H40.2851V12.328H41.1491C41.5545 12.328 41.8691 12.232 42.0931 12.04C42.3171 11.8373 42.4291 11.5653 42.4291 11.224C42.4291 10.8827 42.2958 10.6053 42.0291 10.392C41.7731 10.1787 41.4158 10.072 40.9571 10.072C40.0611 10.072 39.4531 10.4507 39.1331 11.208L37.9971 10.552C38.5625 9.37867 39.5491 8.792 40.9571 8.792C41.8318 8.792 42.5198 9.016 43.0211 9.464C43.5331 9.912 43.7891 10.4613 43.7891 11.112C43.7891 11.9227 43.4691 12.52 42.8291 12.904ZM50.0814 8.792C51.2014 8.792 52.156 9.20267 52.9454 10.024C53.7347 10.8347 54.1294 11.8267 54.1294 13C54.1294 14.1733 53.7347 15.1707 52.9454 15.992C52.156 16.8027 51.2014 17.208 50.0814 17.208C48.7587 17.208 47.7507 16.68 47.0574 15.624V20.2H45.6654V9H47.0574V10.376C47.7507 9.32 48.7587 8.792 50.0814 8.792ZM49.9054 15.864C50.7054 15.864 51.3774 15.592 51.9214 15.048C52.4654 14.4933 52.7374 13.8107 52.7374 13C52.7374 12.1893 52.4654 11.512 51.9214 10.968C51.3774 10.4133 50.7054 10.136 49.9054 10.136C49.0947 10.136 48.4174 10.4133 47.8734 10.968C47.3294 11.512 47.0574 12.1893 47.0574 13C47.0574 13.8107 47.3294 14.4933 47.8734 15.048C48.4174 15.592 49.0947 15.864 49.9054 15.864ZM62.4144 9H63.8064V17H62.4144V15.624C61.721 16.68 60.713 17.208 59.3904 17.208C58.2704 17.208 57.3157 16.8027 56.5264 15.992C55.737 15.1707 55.3424 14.1733 55.3424 13C55.3424 11.8267 55.737 10.8347 56.5264 10.024C57.3157 9.20267 58.2704 8.792 59.3904 8.792C60.713 8.792 61.721 9.32 62.4144 10.376V9ZM59.5664 15.864C60.377 15.864 61.0544 15.592 61.5984 15.048C62.1424 14.4933 62.4144 13.8107 62.4144 13C62.4144 12.1893 62.1424 11.512 61.5984 10.968C61.0544 10.4133 60.377 10.136 59.5664 10.136C58.7664 10.136 58.0944 10.4133 57.5504 10.968C57.0064 11.512 56.7344 12.1893 56.7344 13C56.7344 13.8107 57.0064 14.4933 57.5504 15.048C58.0944 15.592 58.7664 15.864 59.5664 15.864ZM69.5474 17.208C68.3634 17.208 67.3874 16.8187 66.6194 16.04C65.8514 15.2613 65.4674 14.2587 65.4674 13.032C65.4674 11.6667 65.6647 10.616 66.0594 9.88C66.4647 9.144 67.286 8.47733 68.5234 7.88C68.7474 7.77333 69.0514 7.63467 69.4354 7.464C69.83 7.29333 70.118 7.16533 70.2994 7.08C70.4807 6.984 70.6834 6.86133 70.9074 6.712C71.1314 6.552 71.2967 6.38133 71.4034 6.2C71.5207 6.008 71.606 5.78933 71.6594 5.544L72.7794 6.184C72.7474 6.35467 72.7047 6.51467 72.6514 6.664C72.598 6.80267 72.518 6.94133 72.4114 7.08C72.3154 7.208 72.23 7.32 72.1554 7.416C72.0807 7.512 71.9527 7.61867 71.7714 7.736C71.6007 7.84267 71.4727 7.92267 71.3874 7.976C71.3127 8.02933 71.158 8.10933 70.9234 8.216C70.6994 8.32267 70.5447 8.39733 70.4594 8.44C70.3847 8.472 70.2087 8.54667 69.9314 8.664C69.654 8.77067 69.4834 8.84 69.4194 8.872C68.694 9.18133 68.1607 9.496 67.8194 9.816C67.4887 10.136 67.2487 10.5413 67.0994 11.032C67.4407 10.6053 67.8674 10.2907 68.3794 10.088C68.8914 9.88533 69.4034 9.784 69.9154 9.784C70.918 9.784 71.766 10.1253 72.4594 10.808C73.1634 11.4907 73.5154 12.3707 73.5154 13.448C73.5154 14.536 73.142 15.4373 72.3954 16.152C71.6487 16.856 70.6994 17.208 69.5474 17.208ZM67.6754 15.16C68.1767 15.6293 68.8007 15.864 69.5474 15.864C70.294 15.864 70.9074 15.6347 71.3874 15.176C71.878 14.7173 72.1234 14.1413 72.1234 13.448C72.1234 12.7333 71.8887 12.152 71.4194 11.704C70.9607 11.2453 70.3527 11.016 69.5954 11.016C68.9127 11.016 68.294 11.2347 67.7394 11.672C67.1954 12.0987 66.9234 12.664 66.9234 13.368C66.9234 14.0933 67.174 14.6907 67.6754 15.16ZM81.7455 15.992C80.9242 16.8027 79.9268 17.208 78.7535 17.208C77.5802 17.208 76.5828 16.8027 75.7615 15.992C74.9508 15.1813 74.5455 14.184 74.5455 13C74.5455 11.816 74.9508 10.8187 75.7615 10.008C76.5828 9.19733 77.5802 8.792 78.7535 8.792C79.9268 8.792 80.9242 9.19733 81.7455 10.008C82.5668 10.8187 82.9775 11.816 82.9775 13C82.9775 14.184 82.5668 15.1813 81.7455 15.992ZM78.7535 15.848C79.5535 15.848 80.2255 15.576 80.7695 15.032C81.3135 14.488 81.5855 13.8107 81.5855 13C81.5855 12.1893 81.3135 11.512 80.7695 10.968C80.2255 10.424 79.5535 10.152 78.7535 10.152C77.9642 10.152 77.2975 10.424 76.7535 10.968C76.2095 11.512 75.9375 12.1893 75.9375 13C75.9375 13.8107 76.2095 14.488 76.7535 15.032C77.2975 15.576 77.9642 15.848 78.7535 15.848ZM90.258 9V10.344H87.538V17H86.146V10.344H83.41V9H90.258ZM97.7894 9H99.1814V17H97.7894V15.624C97.096 16.68 96.088 17.208 94.7654 17.208C93.6454 17.208 92.6907 16.8027 91.9014 15.992C91.112 15.1707 90.7174 14.1733 90.7174 13C90.7174 11.8267 91.112 10.8347 91.9014 10.024C92.6907 9.20267 93.6454 8.792 94.7654 8.792C96.088 8.792 97.096 9.32 97.7894 10.376V9ZM94.9414 15.864C95.752 15.864 96.4294 15.592 96.9734 15.048C97.5174 14.4933 97.7894 13.8107 97.7894 13C97.7894 12.1893 97.5174 11.512 96.9734 10.968C96.4294 10.4133 95.752 10.136 94.9414 10.136C94.1414 10.136 93.4694 10.4133 92.9254 10.968C92.3814 11.512 92.1094 12.1893 92.1094 13C92.1094 13.8107 92.3814 14.4933 92.9254 15.048C93.4694 15.592 94.1414 15.864 94.9414 15.864ZM106.826 9H108.218V17H106.826V13.656H102.682V17H101.29V9H102.682V12.328H106.826V9ZM117.089 15.992C116.268 16.8027 115.271 17.208 114.097 17.208C112.924 17.208 111.927 16.8027 111.105 15.992C110.295 15.1813 109.889 14.184 109.889 13C109.889 11.816 110.295 10.8187 111.105 10.008C111.927 9.19733 112.924 8.792 114.097 8.792C115.271 8.792 116.268 9.19733 117.089 10.008C117.911 10.8187 118.321 11.816 118.321 13C118.321 14.184 117.911 15.1813 117.089 15.992ZM114.097 15.848C114.897 15.848 115.569 15.576 116.113 15.032C116.657 14.488 116.929 13.8107 116.929 13C116.929 12.1893 116.657 11.512 116.113 10.968C115.569 10.424 114.897 10.152 114.097 10.152C113.308 10.152 112.641 10.424 112.097 10.968C111.553 11.512 111.281 12.1893 111.281 13C111.281 13.8107 111.553 14.488 112.097 15.032C112.641 15.576 113.308 15.848 114.097 15.848Z" fill="white"/></symbol></svg>